<svg width="974" height="449" viewBox="0 0 974 449" fill="none" xmlns="http://www.w3.org/2000/svg">
<path d="M224.851 445.563C233.574 442.64 237.897 439.079 240.269 436.453C246.027 429.998 243.928 424.445 250.943 421.132C254.975 419.231 256.582 420.647 262.21 418.233C267.363 416.018 270.334 412.97 272.884 410.366C277.841 405.285 276.471 404.175 280 402.084C285.111 399.044 288.634 400.999 294.232 397.943C297.552 396.125 299.029 393.947 301.941 389.661C306.127 383.487 304.977 381.657 308.463 379.723C311.802 377.863 314.026 378.895 320.323 377.238C322.695 376.609 324.599 375.876 332.183 371.855C349.38 362.745 349.973 361.006 349.973 359.846C349.908 356.364 344.191 355.569 344.636 352.807C345.229 349.08 355.862 348.794 368.949 343.697C383.317 338.094 382.339 334.81 382.291 334.794C381.105 334.326 382.452 334.703 381.995 334.587C378.437 333.659 383.062 322.959 383.774 321.336C391.72 303.083 405.869 299.617 405.122 287.794C404.825 283.185 402.548 281.633 403.936 277.028C405.525 271.74 409.332 271.111 414.61 263.777C417.86 259.215 420.061 254.324 421.133 249.284C422.093 245.325 423.997 237.548 420.54 236.447C417.575 235.507 411.182 239.014 408.087 243.072C405.211 246.836 406.901 248.845 403.936 250.94C400.591 253.3 397.199 251.615 389.704 253.011C385.553 253.785 383.602 254.857 368.949 262.535C373.438 264.489 377.844 266.742 377.251 267.918C376.065 270.108 359.2 269.624 366.577 271.645" stroke="#3A3838" stroke-width="5" stroke-linecap="round" stroke-linejoin="round"/>
<path d="M363.6 345.58L361.958 354.918L362.723 358.396L366.98 359.87L392.912 363.73L397.116 364.608L399.263 366.016L404.469 370.562L407.197 371.647L410.773 370.686L416.092 367.953L419.65 367.92L423.107 369.121L440.109 376.823L485.176 382.207L498.904 387.772L503.263 389.039L506.886 387.722L513.741 383.735L517.495 382.414L520.857 383.366L534.395 392.145L565.231 395.872L575.899 392.455L578.573 391.938L581.36 393.491L584.562 397.147L586.875 398.149L590.249 397.209L598.439 394.215L626.902 399.598L665.619 413.47L670.488 414.713L675.475 413.433L689.523 404.153L694.8 402.704L700.487 403.806L731.27 415.748H739.572L749.967 411.255L752.914 410.572L754.456 411.214L763.262 414.29L766.553 414.713L766.108 413.019L758.548 397.528V392.559L753.211 372.682L747.281 348.251L735.421 321.335L747.281 314.71L728.898 303.115L736.607 287.794L708.143 281.582L685.301 270.824L682.94 270.195L679.466 269.574H662.731L659.814 269.366L656.843 268.174L649.59 264.377L647.954 263.983L645.173 264.364L635.169 268.393L633.129 268.952L631.368 268.161L628.023 262.704L626.606 261.499L623.949 261.838L604.618 268.542L600.514 269.366L597.656 267.723L591.631 260.559L590.433 258.186L586.282 256.944L566.82 254.289L564.934 254.045L562.746 254.443L560.783 255.358L559.004 255.701H555.446L516.309 247.834L512.454 247.627L509.786 248.248L504.449 251.975L501.78 252.596L499.705 250.732L495.554 243.279L491.996 242.451L474.799 242.865L470.944 242.658L468.276 241.208L462.162 236.525L458.195 232.512L454.34 231.063L449.893 232.098L443.074 236.446H422.319L368.949 237.688L359.461 231.891L316.172 236.446L307.277 231.063L294.231 236.446L287.116 231.063L280 228.578L271.105 236.446H240.269L232.56 226.922L201.724 232.305L188.678 224.023L179.783 231.891L169.702 232.305L160.214 237.688H152.505L138.866 227.75L131.75 237.688V247.213L142.424 254.666L159.028 261.706V269.574H169.702L175.632 276.199L183.341 279.098L194.015 279.926L202.91 284.067V292.349L215.956 296.075V301.459L239.083 314.71L253.315 302.287L267.547 297.732L274.07 290.692L290.673 289.864L309.353 288.829L310.242 289.036L323.881 282.41H352.345L359.461 277.027V269.574" stroke="#3A3838" stroke-width="5" stroke-linecap="round" stroke-linejoin="round"/>
<path d="M715.852 200.42H733.048L760.919 206.218L789.383 216.984L805.987 229.407L827.928 242.658L835.637 252.596L842.16 257.979H868.999L875.071 258.186L877.146 260.17V263.776L892.564 269.988L901.459 263.362L914.505 259.221V246.385C914.505 246.385 900.273 186.755 899.087 185.513L884.559 170.399L867.362 167.086" stroke="#3A3838" stroke-width="5" stroke-linecap="round" stroke-linejoin="round"/>
<path d="M188.382 223.817C188.797 222.363 192.385 220.864 197.87 213.878C205.075 204.698 203.331 201.613 209.137 195.244C214.213 189.671 216.282 191.219 229.299 181.993C243.382 172.001 241.532 169.773 248.274 167.914C260.532 164.523 268.596 171.364 280.296 166.672C286.511 164.187 290.97 160.046 290.97 160.046C295.163 156.158 294.57 154.249 298.086 152.593C303.423 150.059 307.657 153.028 314.097 151.351C322.814 149.077 320.329 142.24 328.329 139.342C337.55 135.984 351.841 141.069 360.944 144.311C370.183 147.599 373.059 150.195 379.327 149.694C385.595 149.193 386.626 146.228 394.152 145.553C398.635 145.139 402.453 145.967 410.162 147.624C419.206 149.562 419.81 150.771 426.173 151.351C430.769 151.765 431.991 151.268 437.44 151.765C441.495 152.132 445.475 152.826 449.3 153.835L454.044 154.249L462.939 156.32C463.197 156.626 463.54 156.893 463.947 157.106C464.354 157.32 464.818 157.474 465.311 157.562C470.363 158.158 474.153 147.624 486.659 131.474C495.512 120.024 503.032 113.13 499.705 107.043C499.07 105.879 497.576 103.9 498.519 101.659C499.646 98.972 503.263 98.3675 508.007 95.4481C508.967 94.856 514.417 91.5225 516.309 87.9944C519.072 82.8266 515.176 75.4806 509.193 71.8449C498.371 65.2691 481.915 71.5509 452.265 74.3294C436.8 75.7787 441.484 74.0478 397.71 74.3294C397.71 74.3294 379.072 74.4454 299.865 77.2281L248.867 81.7831" stroke="#3A3838" stroke-width="5" stroke-linecap="round" stroke-linejoin="round"/>
<path d="M478.06 242.658V224.024L472.13 207.874L460.863 201.249L454.34 185.513L449.596 175.161L463.828 166.465C461.948 164.324 463.128 158.796 465.607 158.183L465.874 158.113L472.136 156.535C472.429 156.609 472.734 156.661 473.043 156.688V156.688C473.636 156.771 500.41 161.38 556.341 171.028L642.919 185.522L677.313 190.491L715.857 200.429L712.044 205.493L703.404 216.993L709.927 236.455L711.113 242.666L730.089 261.714L718.822 270.825L721.005 284.394L736.612 287.802L745.033 279.959L747.577 279.318L750.15 279.872L758.956 286.022L762.402 287.599L765.159 287.806H808.181L811.62 288.428L813.02 289.529L816.465 293.028L818.736 294.225L821.535 294.958L836.888 297.157L840.974 297.745L844.561 299.041L858.17 303.956C859.772 307.418 862.049 313.965 858.17 320.106C862.805 322.259 867.913 323.867 873.292 324.868C880.497 326.193 884.084 325.625 891.082 326.938C898.47 328.321 903.535 330.665 907.093 332.321C912.744 334.967 926.181 341.266 929.626 352.198C930.494 355.055 930.694 357.992 930.219 360.894C929.626 364.89 929.069 368.687 924.882 371.66C920.34 374.878 914.209 375.217 911.244 375.387C908.279 375.557 902.07 375.896 897.012 373.316C895.162 372.372 894.106 371.358 885.745 364.62C883.754 363.071 881.934 361.418 880.301 359.676C879.186 358.434 878.902 357.904 877.674 356.927C877.674 356.927 877.01 356.401 876.257 355.925C875.243 355.283 865.381 350.222 848.979 352.198C835.791 353.784 836.811 357.701 816.957 363.792C806.716 366.931 798.503 369.449 787.307 369.59C782.421 369.648 778.845 369.233 767.146 369.175C760.931 369.142 755.813 369.229 752.386 369.312" stroke="#3A3838" stroke-width="5" stroke-linecap="round" stroke-linejoin="round"/>
<path d="M117.222 151.765C105.058 154.057 92.3925 154.759 79.8633 153.835C71.1285 153.173 59.0788 152.266 46.6555 146.796C41.0635 144.336 36.4026 140.737 27.0866 133.545C13.0386 122.7 5.97004 117.155 3.95978 111.184C2.82716 107.821 1.40397 100.537 8.11076 90.479" stroke="#3A3838" stroke-width="5" stroke-linecap="round" stroke-linejoin="round"/>
<path d="M8.70361 87.5801H78.0842L143.907 83.4392L188.381 79.7124L224.554 83.8533H248.274L323.585 132.302L328.329 138.099" stroke="#3A3838" stroke-width="5" stroke-linecap="round" stroke-linejoin="round"/>
<path d="M884.559 170.399H893.454L884.559 138.1L893.454 135.615L897.012 128.99L909.465 132.302L893.454 109.113L860.246 97.9327L869.734 86.3382L864.99 73.0872L860.246 63.9772L885.152 58.1799L860.246 45.7572L847.201 41.2021L818.737 64.3913L802.133 50.3122" stroke="#3A3838" stroke-width="5" stroke-linecap="round" stroke-linejoin="round"/>
<path d="M815.178 156.32C815.178 156.32 814.585 149.28 815.178 146.381C815.771 143.483 802.132 137.686 802.132 137.686H791.458" stroke="#3A3838" stroke-width="5" stroke-linecap="round" stroke-linejoin="round"/>
<path d="M803.318 130.232L809.248 119.051L823.48 109.941L818.736 99.5889L813.399 89.6507L815.178 73.087L818.736 64.3911" stroke="#3A3838" stroke-width="5" stroke-linecap="round" stroke-linejoin="round"/>
<path d="M803.318 136.029V131.06V137.686" stroke="#3A3838" stroke-width="5" stroke-linecap="round" stroke-linejoin="round"/>
<path d="M639.059 36.2334V57.7662L647.361 79.713L655.069 90.4794V109.114L664.557 122.365L676.417 134.373V146.382L681.754 167.086L693.27 194.599" stroke="#3A3838" stroke-width="5" stroke-linecap="round" stroke-linejoin="round"/>
<path d="M648.547 223.817L639.059 230.857L604.665 227.13L599.328 218.434H575.015L568.492 222.161L561.376 223.817L556.039 225.887L547.738 225.473L544.18 223.403C544.18 223.403 536.471 221.747 535.878 221.332C535.285 220.918 530.541 218.434 530.541 218.434L525.204 219.262L521.053 214.707L519.867 211.808V208.081L517.495 205.183L515.716 201.042L514.53 197.729L509.193 195.245C509.193 195.245 505.635 196.073 504.449 196.487C503.263 196.901 499.705 195.245 499.112 195.245C498.519 195.245 494.961 196.073 494.961 196.073V199.386L490.81 201.87L486.659 203.112L485.176 203.406L482.508 203.941L477.764 204.769L473.02 207.253" stroke="#3A3838" stroke-width="5" stroke-linecap="round" stroke-linejoin="round"/>
<path d="M484.88 204.354L490.81 206.839L493.182 208.91L496.147 210.566C496.147 210.566 495.554 213.05 496.147 213.05C496.74 213.05 497.333 213.879 497.926 213.879C498.519 213.879 499.112 212.636 499.705 213.05C500.298 213.465 500.891 213.05 502.077 213.05H505.635C505.635 213.05 505.635 213.465 506.821 213.05C508.007 212.636 507.414 212.222 508.6 211.808C509.752 211.466 510.942 211.189 512.158 210.98C512.701 210.402 513.295 209.849 513.937 209.324C514.53 208.91 514.53 208.495 515.716 208.495C516.902 208.495 518.088 209.324 518.088 209.324L519.867 209.974" stroke="#3A3838" stroke-width="5" stroke-linecap="round" stroke-linejoin="round"/>
<path d="M360.351 269.367L364.816 270.948" stroke="#3A3838" stroke-width="5" stroke-linecap="round" stroke-linejoin="round"/>
<path d="M241.751 77.8496C252.395 77.8496 261.024 71.8242 261.024 64.3916C261.024 56.9589 252.395 50.9336 241.751 50.9336C231.108 50.9336 222.479 56.9589 222.479 64.3916C222.479 71.8242 231.108 77.8496 241.751 77.8496Z" fill="#403F3F"/>
<path d="M639.058 26.916C649.702 26.916 658.331 20.8906 658.331 13.458C658.331 6.02535 649.702 0 639.058 0C628.415 0 619.786 6.02535 619.786 13.458C619.786 20.8906 628.415 26.916 639.058 26.916Z" fill="#403F3F"/>
<path d="M316.469 354.463C327.113 354.463 335.741 348.438 335.741 341.005C335.741 333.572 327.113 327.547 316.469 327.547C305.825 327.547 297.196 333.572 297.196 341.005C297.196 348.438 305.825 354.463 316.469 354.463Z" fill="#403F3F"/>
<path d="M666.336 222.367C676.98 222.367 685.609 216.342 685.609 208.909C685.609 201.477 676.98 195.451 666.336 195.451C655.693 195.451 647.064 201.477 647.064 208.909C647.064 216.342 655.693 222.367 666.336 222.367Z" fill="#403F3F"/>
<path d="M815.179 187.169C825.823 187.169 834.451 181.144 834.451 173.711C834.451 166.279 825.823 160.253 815.179 160.253C804.535 160.253 795.906 166.279 795.906 173.711C795.906 181.144 804.535 187.169 815.179 187.169Z" fill="#403F3F"/>
<path d="M791.458 434.383C802.102 434.383 810.731 428.357 810.731 420.925C810.731 413.492 802.102 407.467 791.458 407.467C780.815 407.467 772.186 413.492 772.186 420.925C772.186 428.357 780.815 434.383 791.458 434.383Z" fill="#403F3F"/>
<path d="M144.587 151.326C155.231 151.326 163.859 145.3 163.859 137.868C163.859 130.435 155.231 124.41 144.587 124.41C133.943 124.41 125.314 130.435 125.314 137.868C125.314 145.3 133.943 151.326 144.587 151.326Z" fill="#403F3F"/>
<path d="M208.745 26.7998C208.621 25.2511 208.472 23.367 208.472 21.9798H208.407C207.856 23.2759 207.192 24.6796 206.391 26.2118L203.568 31.624H202.015L199.405 26.3112C198.646 24.7335 198.024 23.3007 197.579 21.9798H197.52C197.466 23.3711 197.36 25.2262 197.205 26.9033L196.784 31.6944H194.833L195.948 20.5139H198.581L201.303 25.8971C201.961 27.2636 202.489 28.4934 202.916 29.657H202.975C203.396 28.5266 203.954 27.2967 204.671 25.9012L207.518 20.4932H210.162L211.153 31.6737H209.125L208.745 26.7998Z" fill="#783131"/>
<path d="M224.785 27.62C224.785 30.589 221.82 31.8851 219.081 31.8851C215.973 31.8851 213.572 30.3033 213.572 27.7442C213.572 25.0609 216.092 23.4956 219.265 23.4956C222.562 23.5122 224.785 25.181 224.785 27.62ZM215.695 27.7152C215.695 29.4709 217.136 30.796 219.17 30.796C221.204 30.796 222.662 29.4875 222.662 27.6696C222.662 26.3156 221.684 24.6012 219.205 24.6012C216.727 24.6012 215.695 26.1955 215.695 27.7152Z" fill="#783131"/>
<path d="M227.448 25.856C227.448 25.0278 227.407 24.3569 227.354 23.6944H229.192L229.31 25.0112H229.37C229.747 24.5448 230.299 24.1589 230.967 23.8948C231.634 23.6307 232.392 23.4985 233.159 23.5122C234.736 23.5122 237.203 24.1747 237.203 26.9243V31.7029H235.128V27.0858C235.128 25.7897 234.428 24.7048 232.477 24.7048C231.842 24.7143 231.228 24.8641 230.723 25.1327C230.218 25.4013 229.848 25.7749 229.666 26.1997C229.567 26.4193 229.517 26.6484 229.518 26.8788V31.7029H227.448V25.856Z" fill="#783131"/>
<path d="M243.002 21.3877V23.6942H245.967V24.7957H243.002V29.1147C243.002 30.1126 243.412 30.6758 244.58 30.6758C244.981 30.6814 245.38 30.6451 245.766 30.5681L245.861 31.6779C245.26 31.8212 244.627 31.8885 243.993 31.8766C243.577 31.8926 243.16 31.8458 242.773 31.7393C242.385 31.6328 242.034 31.4692 241.745 31.2596C241.152 30.8166 240.933 30.1126 240.933 29.1892V24.7957H239.154V23.6942H240.933V21.7645L243.002 21.3877Z" fill="#783131"/>
<path d="M248.055 30.2207C248.89 30.5734 249.842 30.7702 250.818 30.7922C252.342 30.7922 253.048 30.2663 253.048 29.5996C253.048 28.9329 252.455 28.5312 250.913 28.1337C248.843 27.6078 247.859 26.821 247.865 25.8603C247.865 24.5725 249.365 23.5124 251.832 23.5124C252.815 23.4992 253.785 23.6693 254.643 24.0052L254.133 25.0653C253.42 24.7568 252.599 24.5933 251.761 24.5932C250.527 24.5932 249.863 25.086 249.863 25.6906C249.863 26.2951 250.533 26.6513 252.039 27.0571C254.014 27.5705 255.04 28.2662 255.046 29.4629C255.046 30.8833 253.469 31.8771 250.759 31.8771C249.632 31.8884 248.521 31.6958 247.533 31.3181L248.055 30.2207Z" fill="#783131"/>
<path d="M268.122 27.62C268.122 30.589 265.157 31.8851 262.418 31.8851C259.31 31.8851 256.909 30.3033 256.909 27.7442C256.909 25.0609 259.429 23.4956 262.601 23.4956C265.898 23.5122 268.122 25.181 268.122 27.62ZM259.032 27.7152C259.032 29.4709 260.473 30.796 262.507 30.796C264.541 30.796 265.993 29.4875 265.993 27.6696C265.993 26.3156 265.015 24.6012 262.536 24.6012C260.058 24.6012 259.032 26.1955 259.032 27.7152Z" fill="#783131"/>
<path d="M280.355 29.5123C280.355 30.3405 280.391 31.0693 280.45 31.7029H278.606L278.493 30.3943H278.446C278.062 30.8571 277.507 31.2396 276.84 31.5018C276.172 31.764 275.416 31.8963 274.651 31.8851C272.872 31.8851 270.701 31.1811 270.701 28.3736V23.6943H272.777V28.121C272.777 29.6448 273.459 30.6842 275.338 30.6842C275.936 30.6761 276.518 30.5449 277.009 30.3069C277.501 30.069 277.881 29.7349 278.102 29.3467C278.224 29.1074 278.288 28.8554 278.292 28.6013V23.6943H280.367L280.355 29.5123Z" fill="#783131"/>
<path d="M283.831 26.1873C283.831 25.2432 283.795 24.4357 283.736 23.7027H285.562L285.639 25.2721H285.716C285.919 24.7832 286.337 24.3512 286.911 24.0369C287.484 23.7226 288.184 23.542 288.913 23.5205C289.112 23.5155 289.311 23.5294 289.506 23.5619V24.9326C289.274 24.8987 289.037 24.8834 288.8 24.887C287.329 24.887 286.292 25.6614 286.007 26.7505C285.951 26.9761 285.923 27.2047 285.924 27.4337V31.703H283.848L283.831 26.1873Z" fill="#783131"/>
<path d="M294.012 21.4292C294.012 21.6686 293.875 21.8982 293.633 22.0675C293.391 22.2368 293.062 22.3319 292.719 22.3319C292.376 22.3319 292.047 22.2368 291.805 22.0675C291.562 21.8982 291.426 21.6686 291.426 21.4292C291.422 21.3093 291.453 21.1901 291.517 21.0788C291.581 20.9675 291.676 20.8664 291.797 20.7816C291.919 20.6969 292.064 20.6302 292.223 20.5856C292.382 20.541 292.553 20.5195 292.725 20.5223C292.896 20.5189 293.067 20.54 293.226 20.5844C293.385 20.6289 293.529 20.6957 293.65 20.7807C293.771 20.8658 293.865 20.9672 293.927 21.0787C293.99 21.1903 294.018 21.3096 294.012 21.4292ZM291.681 31.7028V23.6943H293.757V31.7028H291.681Z" fill="#783131"/>
<path d="M296.942 30.2207C297.778 30.5734 298.729 30.7702 299.705 30.7922C301.229 30.7922 301.935 30.2663 301.935 29.5996C301.935 28.9329 301.342 28.5312 299.8 28.1337C297.731 27.6078 296.746 26.821 296.752 25.8603C296.752 24.5725 298.252 23.5124 300.719 23.5124C301.702 23.4992 302.673 23.6693 303.53 24.0052L303.014 25.0653C302.302 24.7568 301.48 24.5933 300.642 24.5932C299.409 24.5932 298.739 25.086 298.739 25.6906C298.739 26.2951 299.415 26.6513 300.921 27.0571C302.895 27.5705 303.921 28.2662 303.927 29.4629C303.927 30.8833 302.35 31.8771 299.64 31.8771C298.514 31.8884 297.402 31.6958 296.414 31.3181L296.942 30.2207Z" fill="#783131"/>
<path d="M687.364 8.24861H681.167V12.2819H688.099V13.4827H679.092V2.30225H687.732V3.50311H681.167V7.07258H687.364V8.24861Z" fill="#783131"/>
<path d="M690.453 12.0005C691.289 12.3532 692.241 12.55 693.217 12.572C694.741 12.572 695.446 12.0461 695.446 11.3794C695.446 10.7127 694.853 10.311 693.318 9.9135C691.242 9.3876 690.264 8.60082 690.27 7.64013C690.27 6.35231 691.77 5.29223 694.237 5.29223C695.218 5.27891 696.186 5.44904 697.042 5.785L696.526 6.84508C695.814 6.53595 694.992 6.3724 694.154 6.37301C692.926 6.37301 692.256 6.86578 692.256 7.47035C692.256 8.07493 692.932 8.43105 694.432 8.83686C696.413 9.35033 697.439 10.046 697.445 11.2427C697.445 12.6631 695.861 13.6569 693.152 13.6569C692.027 13.6675 690.918 13.4749 689.932 13.0979L690.453 12.0005Z" fill="#783131"/>
<path d="M708.321 13.1927C707.284 13.5088 706.161 13.6669 705.03 13.6565C701.572 13.6565 699.307 12.0001 699.307 9.56524C699.307 7.13038 701.715 5.29595 705.469 5.29595C706.467 5.28133 707.458 5.42281 708.368 5.71004L707.906 6.82809C707.15 6.55957 706.31 6.42719 705.463 6.44299C702.847 6.44299 701.412 7.80949 701.418 9.47414C701.418 11.3293 703.126 12.4722 705.415 12.4722C706.295 12.4751 707.165 12.3437 707.965 12.0871L708.321 13.1927Z" fill="#783131"/>
<path d="M717.15 13.4828L716.966 12.4559H716.907C716.499 12.835 715.968 13.1409 715.358 13.3483C714.747 13.5557 714.075 13.6586 713.396 13.6484C712.946 13.6707 712.494 13.6277 712.068 13.5221C711.643 13.4164 711.253 13.2505 710.924 13.0346C710.595 12.8188 710.333 12.5577 710.156 12.2678C709.978 11.978 709.888 11.6655 709.892 11.3502C709.892 9.41229 712.353 8.34393 716.782 8.36878V8.19486C716.782 7.54474 716.522 6.33973 714.173 6.34801C713.125 6.34956 712.097 6.55612 711.208 6.9443L710.734 5.97947C711.879 5.50471 713.191 5.26103 714.523 5.27551C718.028 5.27551 718.882 6.93188 718.882 8.55512V11.549C718.871 12.1902 718.928 12.831 719.054 13.4662L717.15 13.4828ZM716.824 9.39159C714.571 9.35846 711.985 9.64418 711.985 11.1929C711.961 11.3769 711.995 11.5623 712.084 11.7364C712.172 11.9104 712.314 12.069 712.499 12.2012C712.684 12.3335 712.907 12.4361 713.154 12.5023C713.401 12.5684 713.666 12.5963 713.93 12.5842C714.539 12.5972 715.139 12.4746 715.642 12.2342C716.145 11.9938 716.526 11.648 716.729 11.2467C716.793 11.0977 716.825 10.9427 716.824 10.7871V9.39159Z" fill="#783131"/>
<path d="M722.227 1.72705H724.302V13.4831H722.227V1.72705Z" fill="#783131"/>
<path d="M730.155 3.20936C730.161 3.33136 730.13 3.45291 730.065 3.56623C730 3.67955 729.902 3.78216 729.777 3.8675C729.652 3.95284 729.503 4.01904 729.339 4.06187C729.176 4.10469 729.001 4.12321 728.826 4.11622C728.657 4.11806 728.489 4.09563 728.333 4.05033C728.176 4.00502 728.035 3.93781 727.917 3.85282C727.799 3.76784 727.707 3.6669 727.648 3.55623C727.588 3.44555 727.561 3.3275 727.569 3.20936C727.569 2.96994 727.706 2.74033 727.948 2.57104C728.19 2.40175 728.519 2.30664 728.862 2.30664C729.205 2.30664 729.534 2.40175 729.776 2.57104C730.018 2.74033 730.155 2.96994 730.155 3.20936ZM727.824 13.483V5.47444H729.9V13.483H727.824Z" fill="#783131"/>
<path d="M734.537 9.73957C734.578 11.7107 736.369 12.5223 738.463 12.5223C739.552 12.5427 740.635 12.4016 741.641 12.1082L742.009 13.1434C740.798 13.5007 739.492 13.6743 738.178 13.6527C734.656 13.6527 732.539 11.9964 732.539 9.61121C732.539 7.22604 734.584 5.28809 737.935 5.28809C741.677 5.28809 742.679 7.58216 742.679 9.05632C742.687 9.28378 742.663 9.51124 742.608 9.73543L734.537 9.73957ZM740.645 8.69192C740.645 7.77678 740.105 6.33574 737.769 6.33574C735.64 6.33574 734.733 7.68154 734.567 8.69192H740.645Z" fill="#783131"/>
<path d="M745.253 7.96688C745.253 7.02275 745.218 6.21527 745.158 5.48232H746.985L747.068 7.05173H747.139C747.342 6.56283 747.759 6.13077 748.333 5.8165C748.906 5.50223 749.607 5.32161 750.335 5.30012C750.534 5.29568 750.734 5.3096 750.928 5.34153V6.71218C750.694 6.67826 750.455 6.66298 750.216 6.66663C748.746 6.66663 747.708 7.44098 747.423 8.53004C747.368 8.75569 747.34 8.9843 747.34 9.21329V13.4826H745.265L745.253 7.96688Z" fill="#783131"/>
<path d="M752.718 12.0005C753.554 12.3531 754.505 12.5499 755.481 12.5719C757.005 12.5719 757.711 12.046 757.711 11.3793C757.711 10.7126 757.118 10.311 755.576 9.91344C753.507 9.38754 752.528 8.60077 752.528 7.64007C752.528 6.35225 754.035 5.29217 756.501 5.29217C757.482 5.27945 758.45 5.44954 759.306 5.78494L758.79 6.84501C758.078 6.5365 757.256 6.373 756.418 6.37295C755.191 6.37295 754.521 6.86572 754.521 7.47029C754.521 8.07487 755.191 8.43099 756.697 8.8368C758.672 9.35027 759.703 10.0459 759.703 11.2427C759.703 12.663 758.126 13.6568 755.416 13.6568C754.29 13.6668 753.179 13.4743 752.19 13.0978L752.718 12.0005Z" fill="#783131"/>
<path d="M777.334 1.72705V11.4168C777.334 12.129 777.369 12.9324 777.429 13.4873H775.573L775.466 12.1042H775.413C775.043 12.5955 774.481 13.0034 773.792 13.2804C773.104 13.5575 772.317 13.6924 771.522 13.6695C768.741 13.6695 766.601 12.0131 766.601 9.59894C766.601 6.92391 768.973 5.29653 771.754 5.29653C772.432 5.26542 773.111 5.36149 773.719 5.5748C774.326 5.7881 774.842 6.1109 775.211 6.50981H775.258V1.72705H777.334ZM775.258 8.72935C775.261 8.52066 775.231 8.31239 775.169 8.10821C775.015 7.63031 774.632 7.20351 774.083 6.89851C773.534 6.59351 772.853 6.42861 772.151 6.43114C769.993 6.43114 768.7 7.75209 768.7 9.51198C768.7 11.1394 769.886 12.4893 772.11 12.4893C772.826 12.4832 773.519 12.3068 774.073 11.9891C774.627 11.6715 775.009 11.2316 775.157 10.7418C775.229 10.5372 775.263 10.3271 775.258 10.1166V8.72935Z" fill="#783131"/>
<path d="M781.977 9.73957C782.018 11.7107 783.809 12.5223 785.903 12.5223C786.992 12.5427 788.075 12.4016 789.081 12.1082L789.449 13.1434C788.238 13.5007 786.932 13.6743 785.618 13.6527C782.096 13.6527 779.979 11.9964 779.979 9.61121C779.979 7.22604 782.024 5.28809 785.375 5.28809C789.117 5.28809 790.119 7.58216 790.119 9.05632C790.124 9.28372 790.1 9.51099 790.048 9.73543L781.977 9.73957ZM788.085 8.69192C788.085 7.77678 787.545 6.33574 785.209 6.33574C783.08 6.33574 782.173 7.68154 782.007 8.69192H788.085Z" fill="#783131"/>
<path d="M692.82 28.4565C692.695 26.9078 692.547 25.0237 692.565 23.6448H692.5C691.948 24.9409 691.314 26.3447 690.489 27.8768L687.667 33.289H686.107L683.504 27.9762C682.739 26.3985 682.116 24.9657 681.672 23.6448H681.618C681.559 25.0361 681.458 26.8913 681.304 28.5683L680.877 33.3594H678.914L680.029 22.1789H682.668L685.384 27.5621C686.048 28.9286 686.57 30.1585 686.997 31.3221H687.056C687.477 30.1916 688.034 28.9617 688.752 27.5662L691.604 22.1582H694.243L695.233 33.3387H693.205L692.82 28.4565Z" fill="#783131"/>
<path d="M700.955 23.0853C700.961 23.2073 700.931 23.3289 700.866 23.4422C700.801 23.5555 700.703 23.6581 700.578 23.7435C700.453 23.8288 700.304 23.895 700.14 23.9378C699.976 23.9807 699.802 23.9992 699.627 23.9922C699.458 23.994 699.29 23.9716 699.133 23.9263C698.977 23.881 698.835 23.8138 698.718 23.7288C698.6 23.6438 698.508 23.5429 698.448 23.4322C698.389 23.3215 698.362 23.2035 698.37 23.0853C698.37 22.8459 698.506 22.6163 698.749 22.447C698.991 22.2777 699.32 22.1826 699.663 22.1826C700.006 22.1826 700.334 22.2777 700.577 22.447C700.819 22.6163 700.955 22.8459 700.955 23.0853ZM698.625 33.359V25.3504H700.7V33.359H698.625Z" fill="#783131"/>
<path d="M704.175 27.5122C704.175 26.684 704.134 26.0132 704.081 25.3506H705.925L706.037 26.6675H706.097C706.474 26.201 707.026 25.8151 707.694 25.5511C708.361 25.287 709.119 25.1547 709.886 25.1684C711.464 25.1684 713.931 25.831 713.931 28.5806V33.3592H711.855V28.7421C711.855 27.446 711.155 26.361 709.204 26.361C708.569 26.3705 707.955 26.5203 707.45 26.7889C706.945 27.0576 706.575 27.4311 706.393 27.8559C706.296 28.0758 706.248 28.3049 706.251 28.535V33.3592H704.175V27.5122Z" fill="#783131"/>
<path d="M718.508 29.6158C718.543 31.5869 720.334 32.3985 722.427 32.3985C723.517 32.419 724.6 32.2778 725.606 31.9845L725.974 33.0197C724.763 33.377 723.457 33.5506 722.143 33.529C718.62 33.529 716.503 31.8726 716.503 29.4875C716.503 27.1023 718.549 25.1644 721.9 25.1644C725.642 25.1644 726.644 27.4584 726.644 28.9326C726.652 29.16 726.628 29.3875 726.573 29.6117L718.508 29.6158ZM724.61 28.5682C724.61 27.6531 724.07 26.212 721.734 26.212C719.605 26.212 718.698 27.5578 718.531 28.5682H724.61ZM725.096 21.8765L722.202 24.2492H720.726L722.801 21.8765H725.096Z" fill="#783131"/>
<path d="M729.218 27.8438C729.218 26.8997 729.182 26.0922 729.123 25.3593H730.949L731.032 26.9287H731.104C731.307 26.4398 731.724 26.0077 732.298 25.6934C732.871 25.3792 733.571 25.1986 734.3 25.1771C734.499 25.1726 734.699 25.1866 734.893 25.2185V26.5891C734.659 26.5552 734.42 26.5399 734.181 26.5436C732.711 26.5436 731.673 27.3179 731.388 28.407C731.332 28.6326 731.305 28.8612 731.305 29.0902V33.3595H729.23L729.218 27.8438Z" fill="#783131"/>
<path d="M743.218 33.3593L743.034 32.3489H742.975C742.568 32.7281 742.037 33.034 741.426 33.2414C740.816 33.4487 740.143 33.5516 739.465 33.5415C739.014 33.5638 738.562 33.5208 738.137 33.4151C737.711 33.3095 737.322 33.1435 736.993 32.9277C736.663 32.7118 736.402 32.4508 736.224 32.1609C736.046 31.871 735.956 31.5586 735.96 31.2433C735.96 29.3054 738.421 28.237 742.851 28.2618V28.0879C742.851 27.4378 742.59 26.2328 740.241 26.2411C739.193 26.2426 738.166 26.4492 737.276 26.8374L736.802 25.8725C737.948 25.3978 739.259 25.1541 740.591 25.1686C744.096 25.1686 744.95 26.8249 744.95 28.4482V31.4421C744.939 32.0832 744.996 32.7241 745.122 33.3593H743.218ZM742.892 29.2681C740.639 29.235 738.053 29.5207 738.053 31.0694C738.03 31.2534 738.063 31.4388 738.152 31.6129C738.241 31.787 738.382 31.9455 738.567 32.0778C738.752 32.21 738.976 32.3126 739.223 32.3788C739.47 32.4449 739.734 32.4728 739.998 32.4607C740.608 32.4737 741.207 32.3511 741.71 32.1107C742.213 31.8703 742.594 31.5245 742.797 31.1232C742.862 30.9742 742.894 30.8192 742.892 30.6636V29.2681Z" fill="#783131"/>
<path d="M748.294 21.603H750.37V33.3591H748.294V21.603Z" fill="#783131"/>
<path d="M764.27 29.2762C764.27 32.2453 761.305 33.5414 758.565 33.5414C755.458 33.5414 753.056 31.9595 753.056 29.4004C753.056 26.7171 755.576 25.1519 758.749 25.1519C762.046 25.1684 764.27 26.8372 764.27 29.2762ZM755.179 29.3715C755.179 31.1272 756.62 32.4523 758.654 32.4523C760.688 32.4523 762.147 31.1438 762.147 29.3259C762.147 27.9718 761.168 26.2575 758.69 26.2575C756.211 26.2575 755.179 27.8517 755.179 29.3715Z" fill="#783131"/>
<path d="M776.835 25.3506C776.776 25.9179 776.734 26.568 776.734 27.5411V32.1914C776.734 34.0465 776.195 35.1563 775.098 35.8602C773.929 36.5238 772.452 36.8655 770.947 36.8209C769.61 36.8461 768.289 36.6187 767.122 36.1625L767.644 35.0403C768.662 35.4677 769.83 35.6898 771.018 35.6822C773.147 35.6822 774.712 34.9037 774.712 32.8746V31.9843H774.665C774.285 32.415 773.747 32.7668 773.107 33.0034C772.467 33.2401 771.748 33.3529 771.024 33.3301C768.16 33.3301 766.132 31.6323 766.132 29.4128C766.132 26.7005 768.658 25.1684 771.309 25.1684C772.028 25.1415 772.744 25.2571 773.373 25.5018C774.002 25.7465 774.52 26.1103 774.866 26.5514H774.914L774.997 25.3506H776.835ZM774.665 28.5018C774.673 28.2808 774.633 28.0602 774.546 27.8475C774.371 27.3999 773.989 27.0053 773.459 26.7252C772.929 26.4451 772.281 26.2952 771.617 26.2988C769.63 26.2988 768.201 27.4749 768.201 29.3341C768.201 30.9035 769.358 32.2328 771.599 32.2328C772.249 32.2301 772.88 32.0829 773.401 31.8126C773.923 31.5423 774.307 31.1629 774.499 30.7296C774.612 30.4791 774.668 30.2178 774.665 29.9553V28.5018Z" fill="#783131"/>
<path d="M782.386 23.0854C782.386 23.265 782.31 23.4405 782.167 23.5897C782.024 23.7389 781.821 23.8552 781.583 23.9237C781.345 23.9922 781.084 24.0099 780.832 23.9746C780.58 23.9392 780.348 23.8525 780.167 23.7252C779.985 23.598 779.862 23.436 779.813 23.2598C779.763 23.0836 779.79 22.9012 779.889 22.7355C779.988 22.5699 780.156 22.4286 780.37 22.3294C780.584 22.2303 780.836 22.1778 781.093 22.1786C781.265 22.1751 781.436 22.1963 781.595 22.2407C781.755 22.2851 781.9 22.3518 782.021 22.4368C782.142 22.5217 782.237 22.6231 782.3 22.7347C782.362 22.8463 782.392 22.9656 782.386 23.0854ZM780.055 33.3591V25.3505H782.125V33.3591H780.055Z" fill="#783131"/>
<path d="M786.768 29.616C786.809 31.5871 788.6 32.3987 790.693 32.3987C791.783 32.4192 792.866 32.278 793.872 31.9847L794.24 33.0199C793.029 33.3772 791.723 33.5508 790.409 33.5292C786.886 33.5292 784.77 31.8728 784.77 29.4877C784.77 27.1025 786.815 25.1646 790.166 25.1646C793.907 25.1646 794.91 27.4586 794.91 28.9328C794.915 29.1602 794.891 29.3875 794.838 29.6119L786.768 29.616ZM792.876 28.5684C792.876 27.6532 792.336 26.2122 790 26.2122C787.871 26.2122 786.964 27.558 786.798 28.5684H792.876Z" fill="#783131"/>
<path d="M97.4102 170.854H99.4856V180.793H106.317V182.01H97.422L97.4102 170.854Z" fill="#783131"/>
<path d="M114.903 182.018L114.72 180.991H114.654C114.249 181.371 113.719 181.677 113.109 181.884C112.5 182.092 111.828 182.194 111.15 182.184C110.699 182.206 110.247 182.163 109.822 182.057C109.396 181.952 109.007 181.786 108.678 181.57C108.348 181.354 108.087 181.093 107.909 180.803C107.731 180.513 107.642 180.201 107.645 179.885C107.645 177.947 110.106 176.879 114.536 176.904V176.73C114.536 176.08 114.275 174.875 111.927 174.883C110.878 174.885 109.851 175.091 108.962 175.48L108.487 174.515C109.632 174.039 110.944 173.796 112.276 173.811C115.781 173.811 116.635 175.467 116.635 177.09V180.084C116.621 180.725 116.679 181.366 116.807 182.001L114.903 182.018ZM114.577 177.927C112.324 177.894 109.738 178.179 109.738 179.728C109.715 179.912 109.748 180.098 109.837 180.272C109.926 180.446 110.067 180.604 110.252 180.736C110.437 180.869 110.661 180.971 110.908 181.037C111.155 181.104 111.419 181.132 111.683 181.119C112.293 181.132 112.892 181.009 113.394 180.769C113.897 180.528 114.278 180.183 114.482 179.782C114.547 179.633 114.579 179.478 114.577 179.322V177.927Z" fill="#783131"/>
<path d="M125.067 170.991C126.38 170.835 127.709 170.76 129.04 170.768C131.068 170.768 132.563 171.099 133.518 171.699C133.983 171.993 134.351 172.354 134.597 172.758C134.843 173.161 134.96 173.597 134.941 174.035C134.972 174.471 134.879 174.906 134.666 175.317C134.453 175.727 134.125 176.103 133.701 176.424C132.598 177.252 130.831 177.646 128.815 177.646C128.256 177.659 127.696 177.625 127.149 177.542V182.019H125.085L125.067 170.991ZM127.131 176.374C127.689 176.473 128.264 176.516 128.839 176.503C131.341 176.503 132.853 175.646 132.853 174.118C132.853 172.59 131.347 171.919 129.082 171.919C128.428 171.912 127.775 171.949 127.131 172.031V176.374Z" fill="#783131"/>
<path d="M137.508 170.262H139.584V182.018H137.508V170.262Z" fill="#783131"/>
<path d="M149.463 182.019L149.28 181.008H149.214C148.809 181.388 148.279 181.694 147.669 181.901C147.06 182.109 146.388 182.212 145.71 182.201C145.259 182.223 144.807 182.18 144.382 182.074C143.956 181.969 143.567 181.803 143.238 181.587C142.908 181.371 142.647 181.11 142.469 180.82C142.291 180.53 142.202 180.218 142.205 179.903C142.205 177.965 144.666 176.896 149.096 176.921V176.747C149.096 176.097 148.835 174.892 146.487 174.9C145.438 174.902 144.411 175.108 143.522 175.497L143.047 174.532C144.192 174.056 145.504 173.813 146.836 173.828C150.341 173.828 151.195 175.484 151.195 177.107V180.101C151.181 180.743 151.239 181.384 151.367 182.019H149.463ZM149.137 177.927C146.884 177.894 144.298 178.18 144.298 179.729C144.275 179.913 144.308 180.098 144.397 180.272C144.486 180.446 144.627 180.605 144.812 180.737C144.997 180.869 145.221 180.972 145.468 181.038C145.715 181.104 145.979 181.132 146.243 181.12C146.852 181.133 147.451 181.011 147.953 180.77C148.456 180.53 148.835 180.184 149.037 179.782C149.105 179.634 149.139 179.479 149.137 179.323V177.927Z" fill="#783131"/>
<path d="M164.436 174.01C164.377 174.577 164.335 175.227 164.335 176.2V180.851C164.335 182.706 163.796 183.815 162.699 184.519C161.521 185.187 160.033 185.529 158.518 185.48C157.181 185.505 155.86 185.278 154.693 184.822L155.215 183.699C156.233 184.127 157.401 184.349 158.589 184.341C160.718 184.341 162.283 183.563 162.283 181.534V180.643H162.218C161.838 181.074 161.3 181.425 160.66 181.662C160.02 181.899 159.301 182.012 158.577 181.989C155.713 181.989 153.685 180.292 153.685 178.072C153.685 175.36 156.211 173.828 158.862 173.828C159.581 173.801 160.297 173.916 160.926 174.161C161.556 174.406 162.074 174.769 162.42 175.211H162.467L162.55 174.01H164.436ZM162.266 177.161C162.271 176.94 162.231 176.72 162.147 176.507C161.972 176.059 161.59 175.664 161.06 175.384C160.53 175.104 159.882 174.954 159.218 174.958C157.225 174.958 155.802 176.134 155.802 177.993C155.802 179.563 156.958 180.892 159.2 180.892C159.849 180.889 160.481 180.742 161.002 180.472C161.524 180.201 161.908 179.822 162.1 179.389C162.212 179.138 162.268 178.877 162.266 178.614V177.161Z" fill="#783131"/>
<path d="M168.961 178.275C169.003 180.246 170.794 181.057 172.887 181.057C173.976 181.078 175.06 180.937 176.065 180.643L176.433 181.679C175.222 182.035 173.916 182.209 172.602 182.188C169.08 182.188 166.963 180.532 166.963 178.146C166.963 175.761 169.009 173.823 172.359 173.823C176.101 173.823 177.103 176.117 177.103 177.591C177.108 177.819 177.084 178.046 177.032 178.271L168.961 178.275ZM175.069 177.227C175.069 176.312 174.529 174.871 172.193 174.871C170.064 174.871 169.157 176.217 168.991 177.227H175.069Z" fill="#783131"/>
<path d="M187.545 346.885C186.207 347.266 184.768 347.447 183.323 347.415C178.817 347.415 175.442 345.427 175.442 341.762C175.442 338.259 178.822 335.903 183.786 335.903C185.088 335.866 186.385 336.034 187.581 336.396L187.071 337.568C186.06 337.255 184.963 337.1 183.857 337.112C180.103 337.112 177.619 338.769 177.619 341.717C177.619 344.446 179.872 346.193 183.744 346.193C184.906 346.205 186.059 346.048 187.13 345.734L187.545 346.885Z" fill="#783131"/>
<path d="M192.331 336.967C192.337 337.089 192.307 337.211 192.242 337.324C192.177 337.437 192.079 337.54 191.954 337.625C191.829 337.711 191.679 337.777 191.516 337.82C191.352 337.863 191.177 337.881 191.003 337.874C190.833 337.876 190.665 337.853 190.509 337.808C190.352 337.763 190.211 337.696 190.093 337.611C189.975 337.526 189.884 337.425 189.824 337.314C189.764 337.203 189.737 337.085 189.746 336.967C189.746 336.728 189.882 336.498 190.124 336.329C190.367 336.16 190.695 336.064 191.038 336.064C191.381 336.064 191.71 336.16 191.952 336.329C192.195 336.498 192.331 336.728 192.331 336.967ZM190.001 347.241V339.232H192.076V347.241H190.001Z" fill="#783131"/>
<path d="M195.551 341.394C195.551 340.566 195.509 339.895 195.456 339.232H197.265L197.377 340.52H197.437C197.782 340.063 198.304 339.683 198.944 339.423C199.583 339.163 200.314 339.034 201.054 339.05C201.767 339.045 202.463 339.198 203.044 339.487C203.624 339.775 204.059 340.185 204.286 340.657H204.321C204.642 340.248 205.085 339.892 205.62 339.613C206.34 339.226 207.232 339.027 208.14 339.05C209.67 339.05 211.929 339.738 211.929 342.524V347.241H209.89V342.711C209.89 341.158 209.071 340.226 207.405 340.226C206.849 340.24 206.312 340.373 205.868 340.607C205.423 340.841 205.092 341.165 204.92 341.535C204.808 341.771 204.75 342.019 204.748 342.268V347.237H202.714V342.433C202.714 341.158 201.908 340.243 200.342 340.243C199.747 340.268 199.178 340.421 198.713 340.681C198.248 340.941 197.91 341.296 197.745 341.696C197.636 341.927 197.582 342.169 197.585 342.413V347.241H195.551V341.394Z" fill="#783131"/>
<path d="M216.495 343.498C216.537 345.469 218.328 346.28 220.421 346.28C221.511 346.301 222.594 346.16 223.6 345.866L223.967 346.902C222.756 347.259 221.451 347.433 220.136 347.411C216.614 347.411 214.497 345.755 214.497 343.369C214.497 340.984 216.543 339.046 219.893 339.046C223.635 339.046 224.637 341.34 224.637 342.815C224.646 343.042 224.622 343.269 224.566 343.494L216.495 343.498ZM222.603 342.45C222.603 341.535 222.064 340.094 219.727 340.094C217.598 340.094 216.691 341.44 216.525 342.45H222.603Z" fill="#783131"/>
<path d="M229.719 336.926V339.232H232.714V340.334H229.719V344.653C229.719 345.651 230.128 346.214 231.297 346.214C231.697 346.219 232.097 346.183 232.483 346.106L232.577 347.216C231.977 347.359 231.344 347.427 230.709 347.415C230.293 347.431 229.877 347.384 229.489 347.277C229.102 347.171 228.751 347.007 228.462 346.798C227.869 346.355 227.65 345.651 227.65 344.727V340.334H225.871V339.232H227.65V337.303L229.719 336.926Z" fill="#783131"/>
<path d="M237.399 336.967C237.405 337.089 237.375 337.211 237.31 337.324C237.245 337.437 237.146 337.54 237.021 337.625C236.896 337.711 236.747 337.777 236.584 337.82C236.42 337.863 236.245 337.881 236.071 337.874C235.901 337.876 235.733 337.853 235.577 337.808C235.42 337.763 235.279 337.696 235.161 337.611C235.043 337.526 234.951 337.425 234.892 337.314C234.832 337.203 234.805 337.085 234.813 336.967C234.813 336.728 234.95 336.498 235.192 336.329C235.435 336.16 235.763 336.064 236.106 336.064C236.449 336.064 236.778 336.16 237.02 336.329C237.263 336.498 237.399 336.728 237.399 336.967ZM235.068 347.241V339.232H237.144V347.241H235.068Z" fill="#783131"/>
<path d="M241.781 343.498C241.822 345.469 243.613 346.28 245.706 346.28C246.796 346.301 247.879 346.16 248.885 345.866L249.252 346.901C248.042 347.259 246.736 347.432 245.422 347.411C241.899 347.411 239.782 345.754 239.782 343.369C239.782 340.984 241.828 339.046 245.179 339.046C248.92 339.046 249.923 341.34 249.923 342.814C249.931 343.042 249.907 343.269 249.851 343.494L241.781 343.498ZM247.889 342.45C247.889 341.535 247.349 340.094 245.012 340.094C242.884 340.094 241.976 341.44 241.81 342.45H247.889ZM244.378 335.758L246.459 338.131H244.983L242.089 335.758H244.378Z" fill="#783131"/>
<path d="M252.496 341.725C252.496 340.781 252.461 339.974 252.401 339.241H254.228L254.311 340.81H254.382C254.585 340.321 255.003 339.889 255.576 339.575C256.15 339.261 256.85 339.08 257.578 339.058C257.778 339.054 257.977 339.068 258.171 339.1V340.47C257.937 340.437 257.698 340.421 257.46 340.425C255.989 340.425 254.951 341.199 254.667 342.288C254.611 342.514 254.583 342.743 254.584 342.972V347.249H252.508L252.496 341.725Z" fill="#783131"/>
<path d="M261.184 343.498C261.225 345.469 263.016 346.28 265.109 346.28C266.199 346.301 267.282 346.16 268.288 345.866L268.655 346.901C267.44 347.262 266.127 347.437 264.807 347.415C261.284 347.415 259.167 345.759 259.167 343.373C259.167 340.988 261.213 339.05 264.564 339.05C268.306 339.05 269.308 341.344 269.308 342.819C269.316 343.046 269.292 343.273 269.237 343.498H261.184ZM267.292 342.45C267.292 341.535 266.752 340.094 264.416 340.094C262.287 340.094 261.379 341.44 261.213 342.45H267.292Z" fill="#783131"/>
<path d="M169.572 362.215C169.447 360.666 169.299 358.782 169.317 357.403H169.252C168.7 358.699 168.036 360.103 167.241 361.635L164.419 367.047H162.859L160.256 361.734C159.491 360.157 158.868 358.724 158.424 357.403H158.37C158.311 358.794 158.21 360.649 158.056 362.326L157.629 367.118H155.696L156.811 355.937H159.449L162.171 361.341C162.83 362.707 163.357 363.937 163.778 365.101H163.838C164.259 363.97 164.816 362.741 165.534 361.345L168.386 355.937H171.025L172.015 367.118H169.987L169.572 362.215Z" fill="#783131"/>
<path d="M185.612 363.034C185.612 366.003 182.647 367.299 179.914 367.299C176.801 367.299 174.399 365.717 174.399 363.158C174.399 360.475 176.919 358.91 180.092 358.91C183.389 358.926 185.612 360.595 185.612 363.034ZM176.522 363.129C176.522 364.885 177.963 366.21 179.997 366.21C182.031 366.21 183.49 364.902 183.49 363.084C183.49 361.73 182.517 360.015 180.032 360.015C177.548 360.015 176.522 361.61 176.522 363.129Z" fill="#783131"/>
<path d="M188.257 361.271C188.257 360.442 188.215 359.772 188.162 359.109H190.006L190.119 360.426H190.178C190.556 359.959 191.108 359.573 191.775 359.309C192.443 359.045 193.201 358.913 193.968 358.927C195.545 358.927 198.012 359.589 198.012 362.339V367.118H195.936V362.5C195.936 361.204 195.237 360.119 193.286 360.119C192.651 360.129 192.037 360.279 191.532 360.547C191.027 360.816 190.657 361.189 190.475 361.614C190.378 361.834 190.33 362.063 190.332 362.293V367.118H188.257V361.271Z" fill="#783131"/>
<path d="M203.829 356.802V359.109H206.824V360.21H203.829V364.529C203.829 365.527 204.238 366.09 205.406 366.09C205.807 366.096 206.207 366.06 206.592 365.983L206.687 367.092C206.088 367.235 205.458 367.303 204.825 367.291C204.408 367.307 203.991 367.26 203.602 367.154C203.214 367.048 202.862 366.884 202.572 366.674C201.979 366.231 201.759 365.527 201.759 364.604V360.21H199.98V359.109H201.759V357.179L203.829 356.802Z" fill="#783131"/>
<path d="M209.172 361.718C209.172 360.695 209.131 359.862 209.077 359.109H210.939L211.058 360.475H211.105C211.516 359.982 212.112 359.577 212.829 359.304C213.547 359.031 214.357 358.901 215.173 358.927C217.948 358.927 220.042 360.558 220.042 362.989C220.042 365.887 217.515 367.299 214.829 367.299C214.133 367.327 213.438 367.227 212.814 367.009C212.189 366.791 211.658 366.463 211.271 366.057H211.224V370.397H209.148L209.172 361.718ZM211.248 363.858C211.247 364.057 211.276 364.256 211.336 364.451C211.507 364.938 211.907 365.371 212.473 365.681C213.039 365.99 213.737 366.158 214.456 366.157C216.667 366.157 217.942 364.914 217.942 363.055C217.942 361.457 216.756 360.082 214.533 360.082C213.796 360.094 213.086 360.278 212.515 360.603C211.944 360.929 211.544 361.377 211.378 361.879C211.303 362.072 211.259 362.271 211.248 362.471V363.858Z" fill="#783131"/>
<path d="M229.031 367.117L228.847 366.107H228.782C228.377 366.486 227.847 366.793 227.237 367C226.628 367.208 225.956 367.31 225.278 367.299C224.827 367.322 224.375 367.279 223.95 367.173C223.524 367.067 223.135 366.901 222.806 366.686C222.476 366.47 222.215 366.209 222.037 365.919C221.859 365.629 221.769 365.316 221.773 365.001C221.773 363.063 224.234 361.995 228.664 362.02V361.846C228.664 361.196 228.403 359.991 226.054 359.999C225.006 360 223.979 360.207 223.09 360.595L222.615 359.63C223.76 359.155 225.072 358.911 226.404 358.926C229.909 358.926 230.763 360.583 230.763 362.206V365.2C230.752 365.841 230.809 366.482 230.935 367.117H229.031ZM228.705 363.026C226.452 362.993 223.866 363.279 223.866 364.827C223.843 365.011 223.876 365.197 223.965 365.371C224.054 365.545 224.195 365.703 224.38 365.836C224.565 365.968 224.789 366.071 225.036 366.137C225.283 366.203 225.547 366.231 225.811 366.219C226.421 366.232 227.02 366.109 227.523 365.869C228.026 365.628 228.407 365.282 228.61 364.881C228.675 364.732 228.707 364.577 228.705 364.421V363.026Z" fill="#783131"/>
<path d="M234.102 361.602C234.102 360.658 234.066 359.85 234.007 359.117H235.833L235.916 360.687H235.987C236.19 360.198 236.608 359.766 237.182 359.451C237.755 359.137 238.455 358.956 239.184 358.935C239.383 358.93 239.582 358.944 239.777 358.976V360.347C239.543 360.313 239.304 360.298 239.065 360.301C237.594 360.301 236.557 361.076 236.272 362.165C236.216 362.39 236.188 362.619 236.189 362.848V367.126H234.114L234.102 361.602Z" fill="#783131"/>
<path d="M241.959 361.271C241.959 360.442 241.918 359.772 241.864 359.109H243.703L243.821 360.426H243.88C244.258 359.959 244.81 359.573 245.477 359.309C246.145 359.045 246.903 358.913 247.67 358.927C249.247 358.927 251.714 359.589 251.714 362.339V367.118H249.638V362.5C249.638 361.204 248.939 360.119 246.988 360.119C246.353 360.129 245.739 360.279 245.234 360.547C244.729 360.816 244.359 361.189 244.177 361.614C244.08 361.834 244.032 362.063 244.035 362.293V367.118H241.959V361.271Z" fill="#783131"/>
<path d="M261.48 367.117L261.296 366.107H261.249C260.843 366.486 260.313 366.793 259.704 367C259.094 367.208 258.422 367.31 257.744 367.299C257.294 367.322 256.841 367.279 256.416 367.173C255.991 367.067 255.601 366.901 255.272 366.686C254.943 366.47 254.681 366.209 254.503 365.919C254.326 365.629 254.236 365.316 254.239 365.001C254.239 363.063 256.7 361.995 261.13 362.02V361.846C261.13 361.196 260.869 359.991 258.521 359.999C257.472 360 256.445 360.207 255.556 360.595L255.081 359.63C256.227 359.155 257.539 358.911 258.871 358.926C262.375 358.926 263.229 360.583 263.229 362.206V365.2C263.215 365.841 263.273 366.482 263.401 367.117H261.48ZM261.154 363.026C258.9 362.993 256.315 363.279 256.315 364.827C256.291 365.011 256.325 365.197 256.414 365.371C256.502 365.545 256.644 365.703 256.829 365.836C257.014 365.968 257.237 366.071 257.484 366.137C257.731 366.203 257.996 366.231 258.26 366.219C258.869 366.231 259.468 366.108 259.971 365.868C260.474 365.627 260.855 365.282 261.059 364.881C261.123 364.732 261.155 364.577 261.154 364.421V363.026Z" fill="#783131"/>
<path d="M266.26 365.635C267.096 365.987 268.048 366.184 269.024 366.206C270.548 366.206 271.253 365.68 271.253 365.014C271.253 364.347 270.66 363.945 269.118 363.548C267.049 363.022 266.065 362.235 266.07 361.274C266.07 359.987 267.571 358.927 270.038 358.927C271.021 358.913 271.991 359.083 272.848 359.419L272.332 360.479C271.62 360.171 270.799 360.007 269.96 360.007C268.727 360.007 268.063 360.5 268.063 361.105C268.063 361.709 268.733 362.065 270.239 362.471C272.214 362.985 273.24 363.68 273.246 364.877C273.246 366.297 271.668 367.291 268.958 367.291C267.832 367.302 266.721 367.11 265.732 366.732L266.26 365.635Z" fill="#783131"/>
<path d="M275.653 365.635C276.489 365.987 277.44 366.184 278.416 366.206C279.94 366.206 280.646 365.68 280.646 365.014C280.646 364.347 280.053 363.945 278.511 363.548C276.441 363.022 275.457 362.235 275.463 361.274C275.463 359.987 276.963 358.927 279.43 358.927C280.413 358.913 281.383 359.083 282.241 359.419L281.725 360.479C281.013 360.171 280.191 360.007 279.353 360.007C278.12 360.007 277.455 360.5 277.455 361.105C277.455 361.709 278.126 362.065 279.632 362.471C281.606 362.985 282.632 363.68 282.638 364.877C282.638 366.297 281.061 367.291 278.351 367.291C277.225 367.302 276.113 367.11 275.125 366.732L275.653 365.635Z" fill="#783131"/>
<path d="M286.504 363.374C286.546 365.345 288.337 366.157 290.43 366.157C291.519 366.177 292.603 366.036 293.608 365.743L293.976 366.778C292.765 367.135 291.46 367.309 290.145 367.287C286.623 367.287 284.506 365.631 284.506 363.246C284.506 360.861 286.552 358.923 289.902 358.923C293.644 358.923 294.646 361.217 294.646 362.691C294.651 362.918 294.628 363.146 294.575 363.37L286.504 363.374ZM292.612 362.327C292.612 361.412 292.073 359.97 289.736 359.97C287.607 359.97 286.7 361.316 286.534 362.327H292.612Z" fill="#783131"/>
<path d="M707.722 135.657H709.797V145.595H716.628V146.812H707.734L707.722 135.657Z" fill="#783131"/>
<path d="M719.694 143.077C719.73 145.049 721.521 145.86 723.614 145.86C724.703 145.881 725.787 145.739 726.792 145.446L727.16 146.481C725.949 146.839 724.644 147.012 723.329 146.991C719.807 146.991 717.69 145.334 717.69 142.949C717.69 140.564 719.736 138.626 723.086 138.626C726.828 138.626 727.83 140.92 727.83 142.394C727.838 142.622 727.815 142.849 727.759 143.073L719.694 143.077ZM725.796 142.03C725.796 141.115 725.257 139.674 722.92 139.674C720.791 139.674 719.884 141.019 719.718 142.03H725.796Z" fill="#783131"/>
<path d="M738.166 146.821L732.936 135.64H735.177L737.662 141.143C738.344 142.651 738.937 144.009 739.369 145.309H739.423C739.873 144.021 740.526 142.618 741.243 141.168L743.947 135.644H746.153L740.443 146.825L738.166 146.821Z" fill="#783131"/>
<path d="M753.394 146.82L753.21 145.81H753.145C752.74 146.189 752.21 146.496 751.6 146.703C750.991 146.911 750.319 147.013 749.641 147.002C749.19 147.025 748.738 146.982 748.313 146.876C747.887 146.77 747.497 146.604 747.168 146.389C746.839 146.173 746.578 145.912 746.4 145.622C746.222 145.332 746.132 145.02 746.136 144.704C746.136 142.766 748.597 141.698 753.027 141.723V141.549C753.027 140.899 752.766 139.694 750.417 139.702C749.369 139.704 748.342 139.91 747.452 140.298L746.978 139.333C748.124 138.859 749.435 138.615 750.767 138.63C754.272 138.63 755.126 140.286 755.126 141.909V144.903C755.115 145.544 755.173 146.185 755.298 146.82H753.394ZM753.068 142.729C750.815 142.696 748.229 142.982 748.229 144.53C748.205 144.714 748.239 144.9 748.328 145.074C748.417 145.248 748.558 145.406 748.743 145.539C748.928 145.671 749.151 145.774 749.399 145.84C749.646 145.906 749.91 145.934 750.174 145.922C750.784 145.935 751.383 145.812 751.886 145.572C752.389 145.331 752.77 144.985 752.973 144.584C753.038 144.435 753.07 144.28 753.068 144.125V142.729Z" fill="#783131"/>
<path d="M758.47 135.064H760.546V146.821H758.47V135.064Z" fill="#783131"/>
<path d="M704.668 154.941V164.631C704.668 165.343 704.709 166.146 704.762 166.701H702.906L702.8 165.318H702.746C702.377 165.809 701.815 166.217 701.126 166.494C700.437 166.771 699.65 166.906 698.856 166.883C696.075 166.883 693.935 165.227 693.935 162.813C693.935 160.138 696.306 158.51 699.088 158.51C699.766 158.479 700.445 158.575 701.052 158.789C701.66 159.002 702.175 159.325 702.545 159.724H702.592V154.941H704.668ZM702.592 161.947C702.594 161.739 702.566 161.531 702.509 161.326C702.353 160.848 701.968 160.422 701.418 160.117C700.869 159.812 700.187 159.647 699.485 159.649C697.326 159.649 696.034 160.97 696.034 162.73C696.034 164.357 697.22 165.707 699.443 165.707C700.16 165.701 700.853 165.525 701.407 165.207C701.961 164.89 702.343 164.45 702.491 163.96C702.566 163.756 702.6 163.545 702.592 163.335V161.947Z" fill="#783131"/>
<path d="M709.317 162.953C709.352 164.925 711.143 165.736 713.237 165.736C714.326 165.757 715.409 165.615 716.415 165.322L716.783 166.357C715.572 166.715 714.266 166.888 712.952 166.867C709.43 166.867 707.312 165.21 707.312 162.825C707.312 160.44 709.358 158.502 712.709 158.502C716.451 158.502 717.453 160.796 717.453 162.27C717.461 162.498 717.437 162.725 717.382 162.949L709.317 162.953ZM715.419 161.906C715.419 160.991 714.879 159.55 712.543 159.55C710.414 159.55 709.507 160.895 709.341 161.906H715.419Z" fill="#783131"/>
<path d="M737.3 166.196C735.727 166.597 734.065 166.805 732.39 166.809C729.965 166.809 727.966 166.395 726.413 165.335C725.664 164.784 725.082 164.133 724.7 163.422C724.318 162.71 724.144 161.953 724.189 161.194C724.189 157.881 727.474 155.426 732.829 155.426C734.197 155.405 735.558 155.579 736.826 155.939L736.31 157.115C735.199 156.775 733.994 156.612 732.782 156.639C728.903 156.639 726.359 158.324 726.359 161.119C726.359 163.914 728.791 165.62 732.532 165.62C733.466 165.656 734.399 165.554 735.272 165.322V162.01H732.04V160.854H737.3V166.196Z" fill="#783131"/>
<path d="M740.425 161.181C740.425 160.237 740.39 159.43 740.331 158.697H742.169L742.252 160.266H742.323C742.526 159.777 742.944 159.345 743.517 159.031C744.091 158.717 744.791 158.536 745.52 158.514C745.719 158.51 745.918 158.524 746.113 158.556V159.927C745.879 159.893 745.64 159.877 745.401 159.881C743.93 159.881 742.892 160.655 742.608 161.744C742.552 161.97 742.524 162.199 742.525 162.428V166.705H740.449L740.425 161.181Z" fill="#783131"/>
<path d="M754.538 166.697L754.372 165.686H754.301C753.893 166.065 753.362 166.371 752.752 166.579C752.142 166.786 751.469 166.889 750.79 166.879C750.339 166.902 749.886 166.859 749.459 166.753C749.033 166.648 748.642 166.482 748.312 166.265C747.982 166.049 747.72 165.787 747.543 165.496C747.365 165.206 747.275 164.892 747.28 164.576C747.28 162.639 749.747 161.578 754.182 161.595V161.429C754.182 160.767 753.921 159.574 751.573 159.574C750.525 159.58 749.5 159.786 748.608 160.171L748.134 159.21C749.271 158.731 750.578 158.485 751.905 158.498C755.416 158.498 756.27 160.154 756.27 161.777V164.775C756.254 165.418 756.318 166.061 756.459 166.697H754.538ZM752.759 155.222L755.036 157.587H753.435L752.059 156.013H752.012L750.636 157.587H749.071L751.3 155.222H752.759ZM754.23 162.605C751.953 162.572 749.367 162.854 749.367 164.411C749.345 164.596 749.381 164.782 749.472 164.957C749.562 165.132 749.706 165.291 749.893 165.423C750.08 165.555 750.306 165.657 750.555 165.723C750.804 165.788 751.071 165.815 751.336 165.802C751.943 165.813 752.539 165.689 753.037 165.448C753.536 165.207 753.912 164.861 754.111 164.461C754.185 164.311 754.225 164.155 754.23 163.997V162.605Z" fill="#783131"/>
<path d="M767.798 166.399C766.761 166.721 765.635 166.879 764.501 166.863C761.038 166.863 758.784 165.206 758.784 162.771C758.784 160.336 761.204 158.514 764.951 158.514C765.947 158.507 766.934 158.648 767.845 158.929L767.371 160.055C766.626 159.783 765.792 159.652 764.951 159.674C762.319 159.674 760.895 161.032 760.895 162.705C760.895 164.56 762.603 165.703 764.88 165.703C765.768 165.701 766.643 165.559 767.442 165.289L767.798 166.399Z" fill="#783131"/>
<path d="M771.262 162.953C771.309 164.924 773.112 165.736 775.199 165.736C776.289 165.76 777.373 165.618 778.378 165.322L778.733 166.365C777.525 166.717 776.223 166.886 774.914 166.862C771.356 166.862 769.269 165.239 769.269 162.821C769.269 160.402 771.309 158.498 774.654 158.498C778.401 158.498 779.398 160.8 779.398 162.274C779.394 162.501 779.37 162.728 779.326 162.953H771.262ZM777.381 161.91C777.381 160.982 776.836 159.541 774.487 159.541C772.376 159.541 771.451 160.899 771.285 161.91H777.381Z" fill="#783131"/>
<path d="M537.413 193.215H539.489V203.154H546.32V204.371H537.425L537.413 193.215Z" fill="#783131"/>
<path d="M549.379 200.636C549.421 202.607 551.212 203.419 553.305 203.419C554.395 203.439 555.478 203.298 556.484 203.004L556.851 204.04C555.635 204.4 554.323 204.575 553.003 204.553C549.48 204.553 547.363 202.897 547.363 200.512C547.363 198.126 549.409 196.188 552.76 196.188C556.501 196.188 557.504 198.483 557.504 199.957C557.512 200.184 557.488 200.412 557.432 200.636H549.379ZM555.487 199.588C555.487 198.673 554.948 197.232 552.611 197.232C550.482 197.232 549.575 198.578 549.409 199.588H555.487Z" fill="#783131"/>
<path d="M565.189 193.373C566.432 193.204 567.695 193.122 568.961 193.128C571.03 193.128 572.353 193.377 573.349 193.956C573.781 194.187 574.128 194.487 574.36 194.831C574.592 195.174 574.703 195.552 574.683 195.932C574.659 196.487 574.385 197.023 573.899 197.463C573.414 197.903 572.742 198.225 571.979 198.383V198.424C572.909 198.553 573.747 198.902 574.349 199.414C574.951 199.925 575.281 200.566 575.282 201.228C575.293 201.645 575.176 202.059 574.94 202.443C574.704 202.826 574.354 203.17 573.912 203.452C572.815 204.172 571.013 204.499 568.392 204.499C567.322 204.5 566.253 204.459 565.189 204.375V193.373ZM567.253 197.928H569.145C571.303 197.928 572.584 197.124 572.584 196.039C572.584 194.747 571.179 194.221 569.091 194.221C568.475 194.207 567.858 194.243 567.253 194.329V197.928ZM567.253 203.265C567.835 203.332 568.425 203.361 569.014 203.352C571.155 203.352 573.13 202.801 573.13 201.178C573.13 199.663 571.244 199.025 568.979 199.025H567.235L567.253 203.265Z" fill="#783131"/>
<path d="M587.598 202.189C587.598 203.017 587.634 203.746 587.693 204.379H585.849L585.736 203.071H585.677C585.293 203.533 584.739 203.916 584.071 204.178C583.404 204.44 582.648 204.573 581.882 204.561C580.103 204.561 577.933 203.857 577.933 201.05V196.371H580.008V200.797C580.008 202.321 580.69 203.36 582.57 203.36C583.168 203.352 583.749 203.221 584.241 202.983C584.732 202.745 585.112 202.411 585.333 202.023C585.456 201.784 585.52 201.532 585.523 201.278V196.371H587.598V202.189Z" fill="#783131"/>
<path d="M591.073 198.532C591.073 197.704 591.038 197.033 590.979 196.371H592.823L592.941 197.687H592.995C593.374 197.221 593.927 196.836 594.596 196.572C595.264 196.308 596.022 196.175 596.79 196.188C598.367 196.188 600.834 196.851 600.834 199.601V204.379H598.759V199.762C598.759 198.466 598.059 197.381 596.108 197.381C595.473 197.39 594.859 197.54 594.354 197.809C593.849 198.077 593.479 198.451 593.297 198.876C593.198 199.096 593.148 199.325 593.149 199.555V204.379H591.073V198.532Z" fill="#783131"/>
<path d="M606.308 200.04H606.355C606.634 199.758 607.031 199.402 607.357 199.129L610.737 196.367H613.246L608.816 199.659L613.862 204.375H611.324L607.375 200.529L606.308 201.357V204.371H604.238V192.624H606.308V200.04Z" fill="#783131"/>
<path d="M616.555 200.636C616.596 202.607 618.387 203.418 620.48 203.418C621.57 203.439 622.653 203.298 623.659 203.004L624.02 204.039C622.812 204.396 621.508 204.57 620.196 204.549C616.673 204.549 614.55 202.892 614.55 200.507C614.55 198.122 616.602 196.184 619.947 196.184C623.688 196.184 624.691 198.478 624.691 199.952C624.699 200.18 624.675 200.407 624.619 200.631L616.555 200.636ZM622.663 199.588C622.663 198.673 622.123 197.232 619.781 197.232C617.652 197.232 616.744 198.578 616.578 199.588H622.663Z" fill="#783131"/>
<path d="M627.27 198.864C627.27 197.919 627.234 197.112 627.175 196.379H629.001L629.078 197.948H629.155C629.357 197.46 629.774 197.028 630.346 196.714C630.919 196.399 631.618 196.218 632.346 196.197C632.545 196.192 632.745 196.206 632.939 196.238V197.609C632.707 197.575 632.47 197.56 632.233 197.563C630.762 197.563 629.725 198.338 629.44 199.427C629.384 199.652 629.356 199.881 629.357 200.11V204.387H627.282L627.27 198.864Z" fill="#783131"/>
<path d="M832.791 419.194C833.897 419.662 835.163 419.913 836.456 419.923C838.567 419.923 839.806 419.153 839.806 418.026C839.806 416.991 838.94 416.37 836.788 415.815C834.178 415.169 832.56 414.212 832.56 412.651C832.56 410.912 834.629 409.62 837.736 409.62C838.969 409.588 840.193 409.775 841.294 410.163L840.701 411.343C839.779 410.986 838.738 410.803 837.683 410.813C835.489 410.813 834.659 411.724 834.659 412.469C834.659 413.509 835.631 414.018 837.837 414.614C840.547 415.355 841.911 416.271 841.911 417.902C841.911 419.612 840.132 421.12 836.319 421.12C834.89 421.129 833.481 420.878 832.233 420.391L832.791 419.194Z" fill="#783131"/>
<path d="M855.212 416.866C855.212 419.835 852.247 421.131 849.513 421.131C846.4 421.131 843.999 419.549 843.999 416.99C843.999 414.307 846.519 412.742 849.691 412.742C852.988 412.758 855.212 414.427 855.212 416.866ZM846.121 416.961C846.121 418.717 847.562 420.042 849.596 420.042C851.63 420.042 853.089 418.734 853.089 416.916C853.089 415.562 852.117 413.847 849.632 413.847C847.147 413.847 846.121 415.442 846.121 416.961Z" fill="#783131"/>
<path d="M867.445 418.759C867.445 419.587 867.487 420.316 867.54 420.949H865.696L865.583 419.641H865.512C865.127 420.104 864.571 420.486 863.903 420.748C863.234 421.01 862.477 421.143 861.711 421.131C859.932 421.131 857.762 420.428 857.762 417.62V412.941H859.837V417.367C859.837 418.891 860.519 419.931 862.405 419.931C863.002 419.922 863.582 419.79 864.072 419.552C864.563 419.314 864.942 418.981 865.162 418.593C865.285 418.354 865.349 418.102 865.352 417.848V412.941H867.427L867.445 418.759Z" fill="#783131"/>
<path d="M873.429 410.634V412.941H876.423V414.042H873.429V418.361C873.429 419.359 873.838 419.922 875.006 419.922C875.407 419.928 875.807 419.892 876.192 419.815L876.287 420.924C875.688 421.067 875.058 421.134 874.425 421.123C874.008 421.139 873.591 421.092 873.202 420.986C872.813 420.879 872.462 420.716 872.172 420.506C871.579 420.063 871.359 419.359 871.359 418.436V414.042H869.58V412.941H871.359V411.011L873.429 410.634Z" fill="#783131"/>
<path d="M879.803 417.206C879.839 419.177 881.63 419.989 883.723 419.989C884.812 420.009 885.896 419.868 886.901 419.574L887.269 420.61C886.058 420.967 884.752 421.141 883.438 421.119C879.916 421.119 877.799 419.463 877.799 417.077C877.799 414.692 879.845 412.754 883.195 412.754C886.937 412.754 887.939 415.048 887.939 416.523C887.947 416.75 887.923 416.978 887.868 417.202L879.803 417.206ZM885.905 416.158C885.905 415.243 885.365 413.802 883.029 413.802C880.9 413.802 879.993 415.148 879.827 416.158H885.905Z" fill="#783131"/>
<path d="M890.513 415.434C890.513 414.49 890.477 413.682 890.418 412.949H892.244L892.327 414.519H892.399C892.602 414.03 893.019 413.598 893.593 413.283C894.166 412.969 894.866 412.788 895.595 412.767C895.794 412.762 895.994 412.776 896.188 412.808V414.179C895.954 414.145 895.715 414.13 895.476 414.134C894.006 414.134 892.968 414.908 892.683 415.997C892.627 416.223 892.6 416.451 892.6 416.68V420.958H890.525L890.513 415.434Z" fill="#783131"/>
<path d="M898.364 415.434C898.364 414.49 898.329 413.682 898.27 412.949H900.096L900.179 414.519H900.25C900.453 414.03 900.871 413.598 901.444 413.283C902.018 412.969 902.718 412.788 903.446 412.767C903.646 412.762 903.845 412.776 904.039 412.808V414.179C903.805 414.145 903.566 414.13 903.328 414.133C901.857 414.133 900.819 414.908 900.535 415.997C900.479 416.223 900.451 416.451 900.452 416.68V420.958H898.376L898.364 415.434Z" fill="#783131"/>
<path d="M912.359 420.95L912.175 419.939H912.116C911.708 420.318 911.177 420.624 910.567 420.832C909.956 421.039 909.284 421.142 908.605 421.132C908.155 421.154 907.703 421.111 907.277 421.005C906.852 420.9 906.462 420.734 906.133 420.518C905.804 420.302 905.542 420.041 905.365 419.751C905.187 419.461 905.097 419.149 905.101 418.834C905.101 416.896 907.562 415.827 911.991 415.852V415.678C911.991 415.028 911.73 413.823 909.382 413.831C908.333 413.833 907.306 414.04 906.417 414.428L905.943 413.463C907.088 412.988 908.4 412.744 909.732 412.759C913.236 412.759 914.09 414.415 914.09 416.039V419.032C914.08 419.674 914.137 420.314 914.262 420.95H912.359ZM912.033 416.858C909.779 416.825 907.194 417.111 907.194 418.66C907.17 418.844 907.204 419.029 907.293 419.203C907.381 419.377 907.523 419.536 907.708 419.668C907.893 419.8 908.116 419.903 908.363 419.969C908.61 420.035 908.875 420.063 909.139 420.051C909.748 420.064 910.348 419.941 910.851 419.701C911.354 419.461 911.735 419.115 911.938 418.714C912.002 418.565 912.034 418.41 912.033 418.254V416.858Z" fill="#783131"/>
<path d="M919.771 410.676C919.777 410.798 919.747 410.919 919.682 411.033C919.617 411.146 919.519 411.248 919.394 411.334C919.269 411.419 919.12 411.485 918.956 411.528C918.792 411.571 918.618 411.59 918.443 411.583C918.274 411.584 918.106 411.562 917.949 411.517C917.793 411.471 917.651 411.404 917.533 411.319C917.416 411.234 917.324 411.133 917.264 411.023C917.204 410.912 917.178 410.794 917.186 410.676C917.186 410.436 917.322 410.207 917.565 410.037C917.807 409.868 918.136 409.773 918.479 409.773C918.821 409.773 919.15 409.868 919.393 410.037C919.635 410.207 919.771 410.436 919.771 410.676ZM917.441 420.949V412.941H919.516V420.949H917.441Z" fill="#783131"/>
<path d="M922.991 415.103C922.991 414.274 922.95 413.604 922.896 412.941H924.735L924.853 414.258H924.913C925.29 413.791 925.842 413.405 926.509 413.141C927.177 412.877 927.935 412.745 928.702 412.759C930.279 412.759 932.746 413.421 932.746 416.171V420.95H930.67V416.332C930.67 415.036 929.971 413.951 928.02 413.951C927.385 413.961 926.771 414.111 926.266 414.379C925.761 414.648 925.391 415.021 925.209 415.446C925.112 415.666 925.064 415.895 925.067 416.125V420.95H922.991V415.103Z" fill="#783131"/>
<path d="M935.86 419.467C936.696 419.819 937.647 420.016 938.623 420.038C940.147 420.038 940.853 419.512 940.853 418.846C940.853 418.179 940.26 417.777 938.718 417.38C936.648 416.854 935.67 416.067 935.67 415.106C935.67 413.819 937.176 412.758 939.643 412.758C940.624 412.746 941.592 412.916 942.448 413.251L941.932 414.311C941.22 414.003 940.398 413.839 939.56 413.839C938.332 413.839 937.662 414.332 937.662 414.937C937.662 415.541 938.332 415.897 939.839 416.303C941.813 416.817 942.839 417.512 942.845 418.709C942.845 420.129 941.268 421.123 938.558 421.123C937.432 421.133 936.321 420.941 935.332 420.564L935.86 419.467Z" fill="#783131"/>
<path d="M960.474 409.193V418.883C960.474 419.595 960.51 420.399 960.569 420.954H958.713L958.606 419.571H958.553C958.183 420.062 957.621 420.47 956.933 420.747C956.244 421.024 955.457 421.159 954.663 421.136C951.882 421.136 949.741 419.48 949.741 417.065C949.741 414.39 952.113 412.763 954.894 412.763C955.573 412.732 956.251 412.828 956.859 413.041C957.467 413.254 957.982 413.577 958.352 413.976H958.399V409.193H960.474ZM958.399 416.2C958.402 415.991 958.372 415.783 958.31 415.579C958.15 415.105 957.764 414.683 957.216 414.382C956.668 414.081 955.989 413.919 955.292 413.922C953.133 413.922 951.84 415.243 951.84 417.003C951.84 418.631 953.026 419.981 955.25 419.981C955.967 419.974 956.659 419.798 957.213 419.48C957.767 419.163 958.15 418.723 958.298 418.233C958.37 418.028 958.403 417.818 958.399 417.608V416.2Z" fill="#783131"/>
<path d="M965.136 417.206C965.177 419.177 966.968 419.989 969.061 419.989C970.151 420.009 971.234 419.868 972.24 419.574L972.607 420.61C971.397 420.967 970.091 421.141 968.777 421.119C965.254 421.119 963.137 419.463 963.137 417.077C963.137 414.692 965.183 412.754 968.534 412.754C972.275 412.754 973.278 415.048 973.278 416.523C973.283 416.75 973.259 416.977 973.206 417.202L965.136 417.206ZM971.244 416.158C971.244 415.243 970.704 413.802 968.367 413.802C966.239 413.802 965.331 415.148 965.165 416.158H971.244Z" fill="#783131"/>
<path d="M835.454 429.069H837.529V440.826H835.454V429.069Z" fill="#783131"/>
<path d="M843.814 429.479C843.275 430.842 842.532 432.16 841.596 433.413L840.268 433.517C840.891 432.254 841.359 430.956 841.668 429.637L843.814 429.479Z" fill="#783131"/>
<path d="M859.262 435.132C859.262 438.962 855.924 441.008 851.85 441.008C847.61 441.008 844.663 438.718 844.663 435.343C844.663 431.807 847.8 429.479 852.064 429.479C856.428 429.479 859.262 431.815 859.262 435.132ZM846.845 435.31C846.845 437.699 848.701 439.836 851.957 439.836C855.212 439.836 857.08 437.732 857.08 435.198C857.08 432.974 855.42 430.643 851.986 430.643C848.553 430.643 846.845 432.867 846.845 435.31Z" fill="#783131"/>
<path d="M861.824 440.826C861.877 440.275 861.919 439.472 861.919 438.755V429.065H863.994V434.097H864.042C864.436 433.624 865.009 433.237 865.699 432.978C866.389 432.72 867.168 432.599 867.949 432.631C870.802 432.631 872.8 434.287 872.794 436.71C872.794 439.584 870.185 441.004 867.629 441.004C866.852 441.031 866.079 440.904 865.4 440.639C864.72 440.374 864.161 439.981 863.787 439.505H863.727L863.621 440.822L861.824 440.826ZM863.994 437.617C863.994 437.793 864.022 437.97 864.077 438.142C864.25 438.631 864.652 439.064 865.22 439.374C865.788 439.683 866.488 439.85 867.208 439.849C869.402 439.849 870.689 438.606 870.689 436.768C870.689 435.157 869.503 433.782 867.267 433.782C866.532 433.794 865.823 433.976 865.252 434.3C864.681 434.624 864.281 435.071 864.113 435.571C864.036 435.768 863.997 435.971 863.994 436.175V437.617Z" fill="#783131"/>
<path d="M875.124 439.343C875.96 439.696 876.912 439.893 877.888 439.915C879.412 439.915 880.118 439.389 880.118 438.722C880.118 438.055 879.525 437.654 877.983 437.256C875.913 436.73 874.935 435.944 874.935 434.983C874.935 433.695 876.441 432.635 878.908 432.635C879.889 432.622 880.857 432.792 881.713 433.128L881.197 434.188C880.485 433.879 879.663 433.716 878.825 433.716C877.597 433.716 876.927 434.208 876.927 434.813C876.927 435.418 877.597 435.774 879.104 436.18C881.078 436.693 882.11 437.389 882.11 438.585C882.11 440.006 880.533 441 877.823 441C876.696 441.01 875.586 440.817 874.597 440.441L875.124 439.343Z" fill="#783131"/>
<path d="M885.976 437.082C886.018 439.053 887.809 439.865 889.902 439.865C890.991 439.885 892.075 439.744 893.08 439.451L893.448 440.486C892.237 440.844 890.931 441.017 889.617 440.996C886.095 440.996 883.978 439.339 883.978 436.954C883.978 434.569 886.024 432.631 889.374 432.631C893.116 432.631 894.118 434.925 894.118 436.399C894.126 436.627 894.103 436.854 894.047 437.078L885.976 437.082ZM892.084 436.035C892.084 435.12 891.544 433.679 889.208 433.679C887.079 433.679 886.172 435.024 886.006 436.035H892.084Z" fill="#783131"/>
<path d="M896.692 435.31C896.692 434.366 896.656 433.559 896.597 432.826H898.424L898.507 434.395H898.578C898.781 433.906 899.198 433.474 899.772 433.16C900.345 432.846 901.046 432.665 901.774 432.643C901.973 432.639 902.173 432.653 902.367 432.685V434.055C902.133 434.022 901.894 434.006 901.655 434.01C900.185 434.01 899.147 434.784 898.862 435.873C898.806 436.099 898.779 436.328 898.779 436.557V440.834H896.704L896.692 435.31Z" fill="#783131"/>
<path d="M905.836 432.817L908.083 437.306C908.469 438.052 908.771 438.71 909.026 439.377H909.085C909.352 438.71 909.678 438.043 910.046 437.306L912.293 432.817H914.47L909.957 440.826H907.971L903.6 432.817H905.836Z" fill="#783131"/>
<path d="M922.719 440.826L922.535 439.815H922.47C922.064 440.195 921.534 440.501 920.925 440.709C920.315 440.916 919.643 441.019 918.965 441.008C918.515 441.03 918.063 440.987 917.637 440.882C917.212 440.776 916.822 440.61 916.493 440.394C916.164 440.178 915.902 439.917 915.725 439.627C915.547 439.337 915.457 439.025 915.461 438.71C915.461 436.772 917.921 435.703 922.351 435.728V435.554C922.351 434.904 922.09 433.699 919.742 433.707C918.693 433.709 917.666 433.916 916.777 434.304L916.303 433.339C917.448 432.864 918.76 432.62 920.092 432.635C923.596 432.635 924.45 434.291 924.45 435.915V438.908C924.436 439.55 924.494 440.191 924.622 440.826H922.719ZM922.392 436.734C920.139 436.701 917.554 436.987 917.554 438.536C917.53 438.72 917.564 438.905 917.652 439.079C917.741 439.253 917.883 439.412 918.068 439.544C918.252 439.676 918.476 439.779 918.723 439.845C918.97 439.911 919.235 439.939 919.499 439.927C920.108 439.939 920.707 439.817 921.21 439.576C921.713 439.336 922.093 438.991 922.298 438.59C922.362 438.441 922.394 438.286 922.392 438.13V436.734Z" fill="#783131"/>
<path d="M930.202 430.51V432.817H933.197V433.918H930.202V438.237C930.202 439.235 930.611 439.798 931.78 439.798C932.181 439.805 932.58 439.768 932.966 439.691L933.066 440.8C932.466 440.944 931.833 441.011 931.199 440.999C930.782 441.015 930.366 440.968 929.979 440.862C929.591 440.755 929.24 440.592 928.951 440.382C928.358 439.939 928.139 439.235 928.139 438.312V433.918H926.36V432.817H928.139V430.887L930.202 430.51Z" fill="#783131"/>
<path d="M945.786 436.742C945.786 439.711 942.821 441.008 940.081 441.008C936.974 441.008 934.572 439.426 934.572 436.867C934.572 434.183 937.093 432.618 940.265 432.618C943.562 432.635 945.786 434.303 945.786 436.742ZM936.695 436.838C936.695 438.593 938.136 439.919 940.17 439.919C942.204 439.919 943.663 438.61 943.663 436.792C943.663 435.438 942.684 433.724 940.206 433.724C937.727 433.724 936.671 435.318 936.671 436.838H936.695Z" fill="#783131"/>
<path d="M950.761 430.552C950.767 430.674 950.737 430.796 950.672 430.909C950.607 431.023 950.509 431.125 950.384 431.211C950.259 431.296 950.11 431.362 949.946 431.405C949.782 431.448 949.608 431.466 949.433 431.459C949.263 431.461 949.095 431.439 948.938 431.393C948.782 431.348 948.64 431.281 948.521 431.196C948.403 431.111 948.311 431.01 948.251 430.9C948.19 430.789 948.163 430.671 948.17 430.552C948.166 430.433 948.197 430.313 948.261 430.202C948.324 430.091 948.42 429.99 948.541 429.905C948.663 429.82 948.808 429.753 948.967 429.709C949.126 429.664 949.297 429.643 949.469 429.646C949.64 429.641 949.812 429.662 949.971 429.706C950.131 429.751 950.276 429.817 950.398 429.902C950.519 429.987 950.614 430.089 950.676 430.201C950.739 430.313 950.768 430.432 950.761 430.552ZM948.431 440.826V432.817H950.5V440.826H948.431Z" fill="#783131"/>
<path d="M953.975 435.31C953.975 434.366 953.94 433.558 953.88 432.825H955.707L955.79 434.395H955.861C956.064 433.906 956.482 433.474 957.055 433.159C957.629 432.845 958.329 432.665 959.057 432.643C959.257 432.638 959.456 432.652 959.65 432.684V434.055C959.418 434.021 959.182 434.006 958.945 434.01C957.474 434.01 956.436 434.784 956.152 435.873C956.096 436.099 956.068 436.327 956.069 436.556V440.834H953.993L953.975 435.31Z" fill="#783131"/>
<path d="M962.662 437.082C962.704 439.053 964.495 439.865 966.588 439.865C967.677 439.886 968.761 439.744 969.766 439.451L970.134 440.486C968.923 440.843 967.617 441.017 966.303 440.996C962.781 440.996 960.664 439.339 960.664 436.954C960.664 434.569 962.71 432.631 966.06 432.631C969.802 432.631 970.804 434.925 970.804 436.399C970.809 436.627 970.786 436.854 970.733 437.078L962.662 437.082ZM968.77 436.035C968.77 435.12 968.231 433.679 965.894 433.679C963.765 433.679 962.858 435.024 962.692 436.035H968.77Z" fill="#783131"/>
</svg>
