<svg width="40" height="40" viewBox="0 0 40 40" fill="none" xmlns="http://www.w3.org/2000/svg">
<path d="M4.98995 1.42896L34.8184 1.42895V13.9611L32.3327 15.1004V21.9361L38.547 22.5575V38.611H1.88283L1.88281 22.5575L7.47566 21.2111L8.20066 15.1004L4.98995 12.9466V1.42896Z" fill="#393939"/>
<path d="M35.6522 20.8696H33.0435V15.5643C35.0251 15.1601 36.5217 13.4044 36.5217 11.3043V4.34783C36.5217 1.95058 34.5712 0 32.1739 0H7.82609C5.42884 0 3.47826 1.95058 3.47826 4.34783V11.3043C3.47826 13.4044 4.97495 15.1601 6.95652 15.5643V20.8696H4.34783C1.95058 20.8696 0 22.8201 0 25.2174V35.6522C0 38.0494 1.95058 40 4.34783 40H35.6522C38.0494 40 40 38.0494 40 35.6522V25.2174C40 22.8201 38.0494 20.8696 35.6522 20.8696ZM28.6957 38.2609H11.3043C9.86625 38.2609 8.69565 37.0903 8.69565 35.6522V33.0435H31.3043V35.6522C31.3043 37.0903 30.1337 38.2609 28.6957 38.2609ZM13.913 15.6522V18.2609C13.913 18.7407 14.3028 19.1304 14.7826 19.1304H25.2174C25.6985 19.1304 26.087 18.7407 26.087 18.2609V15.6522H31.3043V31.3043H8.69565V15.6522H13.913ZM24.3478 17.3913H15.6522V12.1739H24.3478V17.3913ZM5.21739 11.3043V4.34783C5.21739 2.90973 6.38799 1.73913 7.82609 1.73913H32.1739C33.612 1.73913 34.7826 2.90973 34.7826 4.34783V11.3043C34.7826 12.7424 33.612 13.913 32.1739 13.913H26.087V11.3043C26.087 10.8246 25.6985 10.4348 25.2174 10.4348H14.7826C14.3028 10.4348 13.913 10.8246 13.913 11.3043V13.913H7.82609C6.38799 13.913 5.21739 12.7424 5.21739 11.3043ZM1.73913 35.6522V25.2174C1.73913 23.7793 2.90973 22.6087 4.34783 22.6087H6.95652V35.6522C6.95652 36.6347 7.29662 37.5323 7.84859 38.2609H4.34783C2.90973 38.2609 1.73913 37.0903 1.73913 35.6522ZM38.2609 35.6522C38.2609 37.0903 37.0903 38.2609 35.6522 38.2609H32.1514C32.7034 37.5323 33.0435 36.6347 33.0435 35.6522V22.6087H35.6522C37.0903 22.6087 38.2609 23.7793 38.2609 25.2174V35.6522Z" fill="url(#paint0_linear)"/>
<path fill-rule="evenodd" clip-rule="evenodd" d="M13.9131 13.913V18.2608C13.9131 18.7406 14.3029 19.1304 14.7827 19.1304H25.2174C25.6985 19.1304 26.087 18.7406 26.087 18.2608V13.913V11.3043C26.087 10.8245 25.6985 10.4348 25.2174 10.4348H14.7827C14.3029 10.4348 13.9131 10.8245 13.9131 11.3043V13.913ZM15.6522 17.3913H24.3479L22.927 17.561L19.8612 17.3913H15.6522Z" fill="#FFCE1F"/>
<defs>
<linearGradient id="paint0_linear" x1="59.5976" y1="-23.8504" x2="-58.8253" y2="98.8401" gradientUnits="userSpaceOnUse">
<stop stop-color="#FFCE1F"/>
<stop offset="0.333819" stop-color="#FAF0CE"/>
<stop offset="0.569189" stop-color="#F5BC87" stop-opacity="0.651083"/>
<stop offset="1" stop-color="white" stop-opacity="0"/>
</linearGradient>
</defs>
</svg>
