<svg width="41" height="41" viewBox="0 0 41 41" fill="none" xmlns="http://www.w3.org/2000/svg">
<path d="M5.1145 1.46466L35.6887 1.46465V14.3101L33.1408 15.4778V22.4844L39.5105 23.1214V39.5763H1.92971L1.92969 23.1214L7.66236 21.7413L8.40548 15.4778L5.1145 13.2703V1.46466Z" fill="#393939"/>
<path d="M36.5435 21.3913H33.8696V15.9534C35.9007 15.5391 37.4348 13.7395 37.4348 11.587V4.45652C37.4348 1.99934 35.4354 0 32.9783 0H8.02174C5.56456 0 3.56522 1.99934 3.56522 4.45652V11.587C3.56522 13.7395 5.09932 15.5391 7.13043 15.9534V21.3913H4.45652C1.99934 21.3913 0 23.3906 0 25.8478V36.5435C0 39.0007 1.99934 41 4.45652 41H36.5435C39.0007 41 41 39.0007 41 36.5435V25.8478C41 23.3906 39.0007 21.3913 36.5435 21.3913ZM29.413 39.2174H11.587C10.1129 39.2174 8.91304 38.0175 8.91304 36.5435V33.8696H32.087V36.5435C32.087 38.0175 30.8871 39.2174 29.413 39.2174ZM14.2609 16.0435V18.7174C14.2609 19.2092 14.6604 19.6087 15.1522 19.6087H25.8478C26.3409 19.6087 26.7391 19.2092 26.7391 18.7174V16.0435H32.087V32.087H8.91304V16.0435H14.2609ZM24.9565 17.8261H16.0435V12.4783H24.9565V17.8261ZM5.34783 11.587V4.45652C5.34783 2.98248 6.54769 1.78261 8.02174 1.78261H32.9783C34.4523 1.78261 35.6522 2.98248 35.6522 4.45652V11.587C35.6522 13.061 34.4523 14.2609 32.9783 14.2609H26.7391V11.587C26.7391 11.0952 26.3409 10.6957 25.8478 10.6957H15.1522C14.6604 10.6957 14.2609 11.0952 14.2609 11.587V14.2609H8.02174C6.54769 14.2609 5.34783 13.061 5.34783 11.587ZM1.78261 36.5435V25.8478C1.78261 24.3738 2.98248 23.1739 4.45652 23.1739H7.13043V36.5435C7.13043 37.5505 7.47904 38.4706 8.04481 39.2174H4.45652C2.98248 39.2174 1.78261 38.0175 1.78261 36.5435ZM39.2174 36.5435C39.2174 38.0175 38.0175 39.2174 36.5435 39.2174H32.9552C33.521 38.4706 33.8696 37.5505 33.8696 36.5435V23.1739H36.5435C38.0175 23.1739 39.2174 24.3738 39.2174 25.8478V36.5435Z" fill="url(#paint0_linear)"/>
<path fill-rule="evenodd" clip-rule="evenodd" d="M14.2607 14.2609V18.7174C14.2607 19.2092 14.6603 19.6087 15.152 19.6087H25.8477C26.3408 19.6087 26.739 19.2092 26.739 18.7174V14.2609V11.587C26.739 11.0952 26.3408 10.6956 25.8477 10.6956H15.152C14.6603 10.6956 14.2607 11.0952 14.2607 11.587V14.2609ZM16.0434 17.8261H24.9564L23.5 18L20.3575 17.8261H16.0434Z" fill="#FFCE1F"/>
<defs>
<linearGradient id="paint0_linear" x1="61.0875" y1="-24.4466" x2="-60.296" y2="101.311" gradientUnits="userSpaceOnUse">
<stop stop-color="#FFCE1F"/>
<stop offset="0.333819" stop-color="#FAF0CE"/>
<stop offset="0.569189" stop-color="#F5BC87" stop-opacity="0.651083"/>
<stop offset="1" stop-color="white" stop-opacity="0"/>
</linearGradient>
</defs>
</svg>
