<svg width="41" height="41" viewBox="0 0 41 41" fill="none" xmlns="http://www.w3.org/2000/svg">
<path d="M15.1068 0H26.3263L25.8671 11.0441L28.754 13.6685L29.6069 20.5L29.9507 41H11.3994V20.5L11.8918 12.75L15.1068 11.0441V0Z" fill="#393939"/>
<path d="M26.7394 0.891304C26.7394 0.39952 26.3412 0 25.8481 0H15.1525C14.6594 0 14.2612 0.39952 14.2612 0.891304V10.7857C12.23 11.1992 10.6959 13.0005 10.6959 15.1522V39.2174C10.2029 39.2174 9.80477 39.6156 9.80477 40.1087C9.80477 40.6018 10.203 41 10.6961 41H30.3046C30.7977 41 31.1959 40.6018 31.1959 40.1087C31.1959 39.6156 30.7977 39.2174 30.3046 39.2174V15.1522C30.3046 12.9996 28.7705 11.1992 26.7394 10.7857V0.891304ZM16.0438 1.78261H24.9568V7.13043H16.0438V1.78261ZM28.522 32.087H12.4786V19.6087H28.522V32.087ZM12.4786 39.2174V33.8696H28.522V39.2174H12.4786ZM28.522 15.1522V17.8261H12.4786V15.1522C12.4786 13.6781 13.6784 12.4783 15.1525 12.4783C15.6456 12.4783 16.0438 12.0787 16.0438 11.587V8.91304H24.9568V11.587C24.9568 12.0787 25.355 12.4783 25.8481 12.4783C27.3222 12.4783 28.522 13.6781 28.522 15.1522Z" fill="url(#paint0_linear)"/>
<path fill-rule="evenodd" clip-rule="evenodd" d="M26.739 0.891304C26.739 0.39952 26.3408 0 25.8477 0H15.152C14.659 0 14.2607 0.39952 14.2607 0.891304V8.91304H26.739V0.891304Z" fill="#FFCE1F"/>
<defs>
<linearGradient id="paint0_linear" x1="41.6764" y1="-24.4466" x2="-59.9403" y2="30.4812" gradientUnits="userSpaceOnUse">
<stop stop-color="#FFCE1F"/>
<stop offset="0.333819" stop-color="#FAF0CE"/>
<stop offset="0.569189" stop-color="#F5BC87" stop-opacity="0.651083"/>
<stop offset="1" stop-color="white" stop-opacity="0"/>
</linearGradient>
</defs>
</svg>
