<svg width="40" height="40" viewBox="0 0 40 40" fill="none" xmlns="http://www.w3.org/2000/svg">
<g clip-path="url(#clip0)">
<path fill-rule="evenodd" clip-rule="evenodd" d="M20.9379 32.6584L30.1146 32.6584C30.1704 33.0889 30.3271 33.5002 30.5718 33.8589C30.8166 34.2175 31.1425 34.5133 31.5231 34.7222C31.9037 34.9312 32.3282 35.0474 32.7622 35.0614C33.1961 35.0754 33.6272 34.9868 34.0205 34.8028C34.4138 34.6188 34.7581 34.3447 35.0254 34.0026C35.2928 33.6605 35.4756 33.2601 35.5592 32.834C35.6427 32.408 35.6244 31.9682 35.506 31.5505C35.3875 31.1328 35.1722 30.7489 34.8775 30.4301C35.1723 30.1112 35.3877 29.7273 35.5062 29.3096C35.6246 28.8918 35.6429 28.452 35.5594 28.0258C35.4759 27.5997 35.293 27.1992 35.0256 26.8571C34.7582 26.5149 34.4138 26.2407 34.0205 26.0567C33.6271 25.8727 33.1959 25.7841 32.7619 25.7982C32.3279 25.8122 31.9033 25.9284 31.5227 26.1375C31.142 26.3465 30.8161 26.6424 30.5713 27.0011C30.3266 27.3598 30.17 27.7712 30.1141 28.2018L20.9379 28.2018L19.9342 28.2018L17.4851 28.2018L16.4814 28.2018L7.30469 28.2018C7.24883 27.7713 7.09215 27.3599 6.84741 27.0013C6.60266 26.6427 6.27675 26.3469 5.89616 26.1379C5.51557 25.929 5.09104 25.8128 4.65709 25.7988C4.22314 25.7848 3.79201 25.8734 3.39874 26.0574C3.00547 26.2413 2.66116 26.5155 2.39381 26.8576C2.12645 27.1997 1.94359 27.6001 1.86009 28.0262C1.77659 28.4522 1.7948 28.892 1.91325 29.3097C2.0317 29.7274 2.24704 30.1113 2.54177 30.4301C2.24709 30.7489 2.03179 31.1328 1.91339 31.5505C1.79498 31.9682 1.7768 32.408 1.86034 32.834C1.94387 33.2601 2.12675 33.6604 2.39412 34.0025C2.66149 34.3445 3.00581 34.6187 3.39907 34.8027C3.79234 34.9866 4.22346 35.0752 4.6574 35.0612C5.09133 35.0472 5.51584 34.9309 5.89642 34.722C6.27699 34.513 6.60289 34.2172 6.84763 33.8586C7.09236 33.5 7.24903 33.0887 7.30489 32.6582L16.4816 32.6582L17.4853 32.6582L19.9342 32.6584L20.9379 32.6584ZM6.61682 31.6959C6.67975 31.6686 6.74761 31.6545 6.81621 31.6544L16.9838 31.6546L20.431 31.6546L20.436 31.654L20.4411 31.6546L30.603 31.6548C30.6716 31.6548 30.7395 31.6688 30.8025 31.696C30.8655 31.7233 30.9222 31.7632 30.9691 31.8132C31.0161 31.8633 31.0522 31.9224 31.0754 31.987C31.0985 32.0516 31.1081 32.1203 31.1037 32.1887L31.099 32.2477C31.098 32.2658 31.0954 32.2846 31.0954 32.3037C31.0953 32.6069 31.1738 32.905 31.3231 33.1689C31.4725 33.4328 31.6876 33.6535 31.9476 33.8096C32.2076 33.9657 32.5035 34.0518 32.8066 34.0595C33.1098 34.0673 33.4097 33.9964 33.6773 33.8538C33.9449 33.7112 34.1711 33.5018 34.3337 33.2458C34.4963 32.9899 34.5899 32.6962 34.6054 32.3934C34.6208 32.0906 34.5576 31.7889 34.4218 31.5178C34.2861 31.2466 34.0825 31.0153 33.8308 30.8462C33.7626 30.8003 33.7067 30.7383 33.6681 30.6658C33.6295 30.5932 33.6092 30.5123 33.6093 30.4301C33.6092 30.3479 33.6295 30.267 33.6681 30.1944C33.7067 30.1218 33.7626 30.0599 33.8308 30.014C34.0825 29.8449 34.2861 29.6135 34.4218 29.3424C34.5576 29.0713 34.6208 28.7696 34.6054 28.4668C34.5899 28.1639 34.4963 27.8703 34.3337 27.6143C34.1711 27.3584 33.9449 27.149 33.6773 27.0064C33.4097 26.8638 33.1098 26.7929 32.8066 26.8007C32.5035 26.8084 32.2076 26.8945 31.9476 27.0506C31.6876 27.2067 31.4725 27.4274 31.3231 27.6913C31.1738 27.9552 31.0953 28.2533 31.0954 28.5565L31.0957 28.5618C31.0968 28.5807 31.0977 28.5977 31.0992 28.6155L31.1037 28.6698C31.1083 28.7384 31.0988 28.8072 31.0757 28.872C31.0527 28.9368 31.0166 28.9962 30.9696 29.0464C30.9227 29.0966 30.8659 29.1367 30.8029 29.1641C30.7398 29.1915 30.6718 29.2057 30.603 29.2058L16.9875 29.2043L16.9834 29.2047L16.9794 29.2043L6.81621 29.2041C6.74737 29.2055 6.67904 29.192 6.61586 29.1647C6.55268 29.1373 6.49611 29.0967 6.45 29.0456C6.40316 28.9955 6.36706 28.9364 6.34394 28.8718C6.32082 28.8073 6.31116 28.7387 6.31557 28.6702L6.32023 28.6112C6.32124 28.5932 6.32388 28.5743 6.32388 28.5553C6.32384 28.2521 6.24533 27.9542 6.09598 27.6904C5.94664 27.4266 5.73156 27.206 5.47166 27.05C5.21176 26.894 4.91591 26.808 4.61289 26.8002C4.30987 26.7925 4.01 26.8633 3.74248 27.0058C3.47495 27.1483 3.24888 27.3577 3.08625 27.6135C2.92363 27.8693 2.83 28.1628 2.81448 28.4656C2.79895 28.7683 2.86206 29.0699 2.99766 29.341C3.13326 29.6121 3.33673 29.8434 3.58828 30.0126C3.65637 30.0586 3.71214 30.1206 3.7507 30.1932C3.78925 30.2658 3.80941 30.3467 3.80941 30.4289C3.80941 30.5111 3.78925 30.592 3.7507 30.6646C3.71214 30.7371 3.65637 30.7992 3.58828 30.8452C3.3367 31.0143 3.1332 31.2456 2.99756 31.5167C2.86192 31.7878 2.79878 32.0894 2.81427 32.3921C2.82976 32.6948 2.92336 32.9884 3.08596 33.2442C3.24856 33.5001 3.47462 33.7094 3.74214 33.852C4.00966 33.9945 4.30952 34.0654 4.61255 34.0577C4.91558 34.05 5.21145 33.9639 5.47136 33.8079C5.73128 33.6519 5.94638 33.4313 6.09574 33.1675C6.2451 32.9038 6.32362 32.6058 6.32368 32.3027C6.32368 32.2836 6.32165 32.2654 6.32003 32.2467L6.31536 32.1885C6.31103 32.1201 6.32077 32.0514 6.34398 31.9869C6.36718 31.9223 6.40336 31.8632 6.45029 31.8132C6.49721 31.7631 6.55389 31.7232 6.61682 31.6959Z" fill="#DCB98B"/>
<path fill-rule="evenodd" clip-rule="evenodd" d="M22.4281 10.1803L32.4284 10.1803C32.4893 10.6496 32.66 11.0978 32.9267 11.4886C33.1934 11.8794 33.5486 12.2018 33.9633 12.4295C34.3781 12.6572 34.8407 12.7838 35.3136 12.7991C35.7865 12.8143 36.2563 12.7178 36.6849 12.5173C37.1134 12.3168 37.4887 12.018 37.78 11.6452C38.0714 11.2724 38.2706 10.8361 38.3616 10.3718C38.4526 9.90747 38.4328 9.42823 38.3037 8.97304C38.1746 8.51784 37.9399 8.09952 37.6188 7.75209C37.94 7.40463 38.1748 6.98626 38.3039 6.53099C38.433 6.07573 38.4529 5.59642 38.3619 5.13203C38.2709 4.66764 38.0716 4.23128 37.7802 3.85842C37.4888 3.48556 37.1135 3.18673 36.6848 2.98621C36.2562 2.7857 35.7863 2.68916 35.3133 2.70445C34.8404 2.71973 34.3777 2.84642 33.9629 3.0742C33.5481 3.30198 33.1929 3.62442 32.9262 4.01532C32.6595 4.40622 32.4888 4.85455 32.4279 5.32384L22.4281 5.32384L21.3343 5.32384L18.6654 5.32384L17.5716 5.32384L7.57137 5.32384C7.51049 4.85463 7.33976 4.4064 7.07304 4.01559C6.80633 3.62479 6.45117 3.30243 6.03642 3.07472C5.62167 2.84701 5.15905 2.72038 4.68615 2.70513C4.21325 2.68987 3.74343 2.78641 3.31486 2.98691C2.8863 3.18741 2.51109 3.4862 2.21974 3.859C1.92839 4.2318 1.72912 4.66809 1.63812 5.1324C1.54713 5.59671 1.56698 6.07595 1.69605 6.53114C1.82513 6.98634 2.0598 7.40466 2.38098 7.75209C2.05985 8.09954 1.82523 8.51787 1.6962 8.97307C1.56717 9.42826 1.54736 9.90748 1.63839 10.3718C1.72942 10.8361 1.92872 11.2723 2.22009 11.6451C2.51145 12.0179 2.88667 12.3166 3.31523 12.5171C3.74379 12.7176 4.2136 12.8141 4.68648 12.7988C5.15937 12.7835 5.62197 12.6569 6.0367 12.4292C6.45143 12.2015 6.80658 11.8791 7.07328 11.4883C7.33998 11.0975 7.51071 10.6493 7.57159 10.1801L17.5718 10.1801L18.6656 10.1801L21.3343 10.1803L22.4281 10.1803ZM6.82176 9.13154C6.89034 9.10179 6.96429 9.08639 7.03905 9.08631L18.1192 9.08653L21.8757 9.08653L21.8812 9.08587L21.8867 9.08653L32.9607 9.08676C33.0355 9.08669 33.1095 9.10197 33.1781 9.13166C33.2467 9.16135 33.3085 9.20481 33.3597 9.25936C33.4108 9.3139 33.4502 9.37836 33.4754 9.44875C33.5006 9.51914 33.5111 9.59396 33.5063 9.66857L33.5012 9.73287C33.5001 9.75254 33.4972 9.77309 33.4972 9.79386C33.4972 10.1243 33.5827 10.4491 33.7454 10.7367C33.9082 11.0243 34.1426 11.2648 34.4259 11.4349C34.7092 11.605 35.0317 11.6988 35.3621 11.7072C35.6924 11.7157 36.0193 11.6385 36.3109 11.4831C36.6025 11.3277 36.8489 11.0994 37.0262 10.8205C37.2034 10.5417 37.3054 10.2216 37.3222 9.89162C37.3391 9.56162 37.2702 9.23288 37.1222 8.9374C36.9743 8.64192 36.7524 8.38978 36.4781 8.20552C36.4038 8.15551 36.3429 8.088 36.3008 8.00893C36.2587 7.92987 36.2367 7.84166 36.2367 7.75209C36.2367 7.66252 36.2587 7.57432 36.3008 7.49525C36.3429 7.41618 36.4038 7.34867 36.4781 7.29866C36.7524 7.1144 36.9743 6.86226 37.1222 6.56678C37.2702 6.27131 37.3391 5.94256 37.3222 5.61256C37.3054 5.28255 37.2034 4.96252 37.0262 4.68364C36.8489 4.40475 36.6025 4.1765 36.3109 4.02111C36.0193 3.86573 35.6924 3.78849 35.3621 3.79694C35.0317 3.80538 34.7092 3.89921 34.4259 4.06929C34.1426 4.23937 33.9082 4.47991 33.7454 4.76749C33.5827 5.05507 33.4972 5.37989 33.4972 5.71032L33.4975 5.71612C33.4987 5.73673 33.4998 5.75521 33.5014 5.77462L33.5063 5.83384C33.5113 5.9086 33.501 5.9836 33.4758 6.05419C33.4507 6.12478 33.4113 6.18946 33.3602 6.24422C33.309 6.29897 33.2472 6.34264 33.1785 6.37251C33.1097 6.40238 33.0356 6.41782 32.9607 6.41787L18.1232 6.41632L18.1187 6.41676L18.1143 6.41632L7.03905 6.4161C6.96403 6.41758 6.88957 6.40292 6.82072 6.37311C6.75186 6.34329 6.69022 6.29902 6.63997 6.2433C6.58892 6.18874 6.54958 6.1243 6.52439 6.05395C6.49919 5.98361 6.48867 5.90885 6.49347 5.83428L6.49855 5.76998C6.49966 5.75032 6.50253 5.72976 6.50253 5.70899C6.50249 5.37867 6.41693 5.05398 6.25418 4.76653C6.09144 4.47908 5.85705 4.23866 5.57383 4.06866C5.29061 3.89866 4.9682 3.80488 4.63798 3.79644C4.30777 3.788 3.98099 3.86519 3.68945 4.0205C3.39792 4.1758 3.15155 4.40394 2.97433 4.6827C2.79712 4.96147 2.69509 5.28136 2.67817 5.61125C2.66125 5.94114 2.73002 6.26979 2.87779 6.56522C3.02556 6.86065 3.24729 7.11279 3.52141 7.29711C3.59562 7.34725 3.65639 7.41483 3.69841 7.49392C3.74042 7.57301 3.76239 7.6612 3.76239 7.75076C3.76239 7.84032 3.74042 7.92851 3.69841 8.00761C3.65639 8.0867 3.59562 8.15428 3.52141 8.20442C3.24726 8.3887 3.02549 8.64082 2.87768 8.93624C2.72987 9.23166 2.66105 9.56031 2.67793 9.89021C2.69482 10.2201 2.79682 10.54 2.97401 10.8188C3.1512 11.0976 3.39755 11.3258 3.68908 11.4811C3.98061 11.6364 4.30739 11.7137 4.63761 11.7052C4.96784 11.6968 5.29026 11.6031 5.5735 11.4331C5.85674 11.2631 6.09115 11.0227 6.25391 10.7352C6.41668 10.4478 6.50225 10.1231 6.50231 9.79276C6.50231 9.77198 6.5001 9.7521 6.49833 9.73177L6.49325 9.66835C6.48853 9.59374 6.49915 9.51896 6.52443 9.44861C6.54972 9.37826 6.58915 9.31383 6.64028 9.2593C6.69142 9.20477 6.75318 9.16129 6.82176 9.13154Z" fill="#DCB98B"/>
<path fill-rule="evenodd" clip-rule="evenodd" d="M16.7368 20.96L23.959 20.96C24.003 21.2989 24.1263 21.6226 24.3189 21.9049C24.5115 22.1871 24.7681 22.4199 25.0676 22.5844C25.3671 22.7488 25.7012 22.8403 26.0428 22.8513C26.3843 22.8623 26.7236 22.7926 27.0331 22.6478C27.3426 22.503 27.6136 22.2872 27.824 22.0179C28.0344 21.7487 28.1783 21.4336 28.244 21.0983C28.3098 20.763 28.2954 20.4169 28.2022 20.0881C28.109 19.7594 27.9395 19.4573 27.7076 19.2063C27.9396 18.9554 28.1091 18.6533 28.2023 18.3245C28.2956 17.9957 28.3099 17.6495 28.2442 17.3141C28.1785 16.9787 28.0346 16.6636 27.8241 16.3943C27.6137 16.125 27.3426 15.9092 27.0331 15.7644C26.7235 15.6196 26.3841 15.5499 26.0426 15.5609C25.701 15.572 25.3668 15.6635 25.0673 15.828C24.7677 15.9925 24.5112 16.2253 24.3185 16.5076C24.1259 16.7899 24.0026 17.1137 23.9587 17.4527L16.7368 17.4527L15.9469 17.4527L14.0194 17.4527L13.2294 17.4527L6.00722 17.4527C5.96325 17.1138 5.83995 16.7901 5.64733 16.5078C5.45471 16.2256 5.19821 15.9928 4.89868 15.8283C4.59914 15.6639 4.26503 15.5724 3.92351 15.5614C3.58198 15.5504 3.24267 15.6201 2.93316 15.7649C2.62365 15.9097 2.35267 16.1255 2.14226 16.3947C1.93184 16.664 1.78793 16.9791 1.72221 17.3144C1.65649 17.6497 1.67083 17.9958 1.76405 18.3246C1.85727 18.6533 2.02675 18.9554 2.2587 19.2063C2.02678 19.4573 1.85734 19.7594 1.76415 20.0881C1.67097 20.4169 1.65666 20.763 1.7224 21.0983C1.78815 21.4336 1.93208 21.7487 2.14251 22.0179C2.35293 22.2871 2.62391 22.5029 2.93342 22.6476C3.24293 22.7924 3.58223 22.8621 3.92375 22.8511C4.26526 22.8401 4.59936 22.7486 4.89888 22.5842C5.1984 22.4197 5.45489 22.1869 5.6475 21.9047C5.84011 21.6224 5.96341 21.2987 6.00738 20.9599L13.2296 20.9599L14.0195 20.9599L15.9469 20.96L16.7368 20.96ZM5.46585 20.2026C5.51538 20.1811 5.56879 20.17 5.62278 20.1699L13.6249 20.1701L16.3379 20.1701L16.3418 20.1696L16.3458 20.1701L24.3435 20.1702C24.3975 20.1702 24.4509 20.1812 24.5005 20.2027C24.55 20.2241 24.5947 20.2555 24.6316 20.2949C24.6685 20.3343 24.697 20.3808 24.7152 20.4317C24.7334 20.4825 24.741 20.5365 24.7375 20.5904L24.7338 20.6369C24.733 20.6511 24.731 20.6659 24.731 20.6809C24.7309 20.9196 24.7927 21.1541 24.9102 21.3618C25.0278 21.5695 25.1971 21.7432 25.4017 21.8661C25.6063 21.9889 25.8392 22.0567 26.0778 22.0628C26.3163 22.0689 26.5524 22.0131 26.763 21.9009C26.9736 21.7886 27.1516 21.6238 27.2796 21.4224C27.4076 21.221 27.4812 20.9899 27.4934 20.7515C27.5056 20.5132 27.4558 20.2758 27.349 20.0624C27.2421 19.849 27.0819 19.6669 26.8838 19.5338C26.8301 19.4977 26.7861 19.4489 26.7557 19.3918C26.7253 19.3347 26.7094 19.271 26.7094 19.2063C26.7094 19.1417 26.7253 19.078 26.7557 19.0209C26.7861 18.9638 26.8301 18.915 26.8838 18.8789C27.0819 18.7458 27.2421 18.5637 27.349 18.3503C27.4558 18.1369 27.5056 17.8995 27.4934 17.6612C27.4812 17.4228 27.4076 17.1917 27.2796 16.9903C27.1516 16.7889 26.9736 16.624 26.763 16.5118C26.5524 16.3996 26.3163 16.3438 26.0778 16.3499C25.8392 16.356 25.6063 16.4238 25.4017 16.5466C25.1971 16.6694 25.0278 16.8432 24.9102 17.0509C24.7927 17.2585 24.7309 17.4931 24.731 17.7318L24.7312 17.736C24.7321 17.7508 24.7328 17.7642 24.734 17.7782L24.7375 17.821C24.7411 17.875 24.7337 17.9291 24.7155 17.9801C24.6974 18.0311 24.6689 18.0778 24.632 18.1174C24.5951 18.1569 24.5504 18.1884 24.5008 18.21C24.4511 18.2316 24.3976 18.2427 24.3435 18.2428L13.6278 18.2416L13.6246 18.242L13.6214 18.2416L5.62278 18.2415C5.5686 18.2426 5.51482 18.232 5.4651 18.2104C5.41537 18.1889 5.37085 18.1569 5.33456 18.1167C5.29769 18.0773 5.26929 18.0307 5.25109 17.9799C5.23289 17.9291 5.22529 17.8751 5.22876 17.8213L5.23243 17.7749C5.23323 17.7607 5.2353 17.7458 5.2353 17.7308C5.23527 17.4923 5.17348 17.2578 5.05594 17.0502C4.93841 16.8426 4.76913 16.6689 4.56459 16.5462C4.36004 16.4234 4.1272 16.3557 3.88872 16.3496C3.65023 16.3435 3.41423 16.3992 3.20369 16.5114C2.99314 16.6235 2.81521 16.7883 2.68723 16.9896C2.55924 17.1909 2.48555 17.422 2.47333 17.6602C2.46111 17.8985 2.51078 18.1358 2.6175 18.3492C2.72422 18.5625 2.88436 18.7446 3.08233 18.8778C3.13592 18.914 3.17981 18.9628 3.21015 19.0199C3.2405 19.077 3.25636 19.1407 3.25636 19.2054C3.25636 19.2701 3.2405 19.3338 3.21015 19.3909C3.17981 19.448 3.13592 19.4968 3.08233 19.533C2.88433 19.6661 2.72417 19.8482 2.61742 20.0615C2.51067 20.2749 2.46097 20.5122 2.47316 20.7505C2.48536 20.9888 2.55902 21.2198 2.68699 21.4211C2.81496 21.6225 2.99287 21.7873 3.20342 21.8994C3.41396 22.0116 3.64996 22.0674 3.88845 22.0613C4.12694 22.0552 4.3598 21.9875 4.56435 21.8648C4.76891 21.742 4.9382 21.5684 5.05575 21.3608C5.1733 21.1532 5.2351 20.9187 5.23514 20.6801C5.23514 20.6651 5.23355 20.6508 5.23227 20.6361L5.2286 20.5903C5.22519 20.5364 5.23286 20.4824 5.25112 20.4316C5.26938 20.3808 5.29786 20.3342 5.33479 20.2949C5.37172 20.2555 5.41632 20.2241 5.46585 20.2026Z" fill="#DCB98B"/>
</g>
<defs>
<clipPath id="clip0">
<rect width="40" height="40" fill="white" transform="translate(40) rotate(90)"/>
</clipPath>
</defs>
</svg>
