<svg width="25" height="26" viewBox="0 0 25 26" fill="none" xmlns="http://www.w3.org/2000/svg">
<path d="M3.27993 3.62712C3.36505 2.33418 3.57763 1.73628 4.81579 1.33279C5.66227 1.51965 5.99049 1.71651 6.3074 2.23661C6.62674 2.93507 6.58122 3.3984 5.81441 4.4361L12.4992 11.2418L18.7665 4.45373L18.2042 3.36941L18.7665 1.4016L21.0288 1.2677L22.0328 3.14184L24.3085 4.61435L23.3781 6.99046L21.0288 6.71603L14.7238 12.8604L20.7209 18.7505L22.1131 18.4292L24.014 19.1126V21.7223L22.1131 22.2042V23.3822L20.0516 24.8012L17.9365 23.1948L18.6862 21.2404L12.3677 15.0558L5.98308 21.2598C6.49371 21.9797 6.55618 22.3598 6.47767 23.3282C5.92819 24.0111 5.53897 24.2024 4.75862 24.3375C4.02345 24.1209 3.61318 23.9998 3.0874 22.0872C1.86803 21.9767 1.37376 21.7056 0.985962 20.6807C1.20138 19.2214 1.72684 18.6866 3.0874 18.8771L3.6737 19.1674C4.01484 19.5679 4.19808 19.5574 4.51227 19.1674L10.9403 12.7917L4.22169 6.18055L2.96393 6.83155C2.34378 6.83355 2.01754 6.7765 1.5292 6.42073C1.0793 5.98771 1.02295 5.62204 1.00459 4.94808C1.40957 3.97684 1.89525 3.67747 3.27993 3.62712Z" fill="#393939"/>
<path d="M20.8859 18.482L15.2289 12.825L20.8859 7.16802C21.1858 7.39901 21.5359 7.55598 21.9079 7.62618C22.2798 7.69638 22.6631 7.67782 23.0265 7.57202C23.3899 7.46621 23.7233 7.27614 23.9994 7.01726C24.2755 6.75838 24.4867 6.43799 24.6157 6.08214C24.7447 5.72629 24.788 5.34502 24.7419 4.96932C24.6958 4.59362 24.5617 4.23409 24.3505 3.91996C24.1394 3.60583 23.857 3.34597 23.5265 3.16149C23.196 2.97701 22.8266 2.87312 22.4484 2.85827C22.4336 2.47998 22.3297 2.11053 22.1452 1.77995C21.9607 1.44937 21.7008 1.167 21.3866 0.955777C21.0725 0.744557 20.7129 0.610456 20.3371 0.564375C19.9613 0.518294 19.58 0.561534 19.2241 0.69058C18.8682 0.819627 18.5478 1.03084 18.2889 1.30704C18.03 1.58324 17.8399 1.91664 17.7341 2.28014C17.6283 2.64363 17.6098 3.02696 17.68 3.39896C17.7503 3.77097 17.9073 4.12114 18.1384 4.42102L12.4817 10.0778L6.82465 4.42102C7.0558 4.12115 7.21291 3.77097 7.28322 3.39895C7.35353 3.02693 7.33505 2.64356 7.22929 2.28002C7.12352 1.91649 6.93346 1.58304 6.67454 1.3068C6.41563 1.03056 6.09518 0.819318 5.73925 0.690254C5.38332 0.56119 5.00195 0.517947 4.62616 0.56404C4.25036 0.610132 3.89075 0.744261 3.57656 0.955519C3.26237 1.16678 3.00247 1.4492 2.818 1.77983C2.63352 2.11045 2.52968 2.47995 2.5149 2.85827C2.13657 2.873 1.76705 2.97681 1.4364 3.16126C1.10574 3.34571 0.823288 3.6056 0.611998 3.91978C0.400709 4.23396 0.26655 4.59357 0.220431 4.96938C0.174312 5.34518 0.217534 5.72656 0.346584 6.08251C0.475634 6.43846 0.686867 6.75893 0.963108 7.01786C1.23935 7.27679 1.5728 7.46687 1.93635 7.57265C2.29989 7.67842 2.68327 7.69691 3.0553 7.6266C3.42734 7.55629 3.77753 7.39917 4.0774 7.16802L9.7344 12.825L4.0774 18.482C3.77754 18.251 3.4274 18.0941 3.05545 18.0239C2.6835 17.9537 2.30024 17.9722 1.93681 18.078C1.57339 18.1838 1.24005 18.3739 0.96391 18.6328C0.687767 18.8917 0.476606 19.212 0.347592 19.5679C0.218579 19.9237 0.175353 20.305 0.221429 20.6807C0.267504 21.0564 0.401581 21.4159 0.61276 21.7301C0.82394 22.0442 1.10626 22.3041 1.43678 22.4886C1.7673 22.673 2.13668 22.7769 2.5149 22.7918C2.52979 23.17 2.63372 23.5393 2.81822 23.8698C3.00273 24.2003 3.26261 24.4826 3.57675 24.6938C3.89088 24.9049 4.25041 25.0389 4.6261 25.085C5.00179 25.131 5.38305 25.0878 5.73889 24.9588C6.09472 24.8297 6.41508 24.6186 6.67395 24.3424C6.93281 24.0663 7.12286 23.733 7.22866 23.3695C7.33445 23.0061 7.353 22.6229 7.2828 22.2509C7.2126 21.879 7.05563 21.5289 6.82465 21.229L12.4817 15.572L18.1384 21.2288C17.9072 21.5286 17.75 21.8789 17.6796 22.2509C17.6093 22.623 17.6277 23.0064 17.7335 23.3701C17.8392 23.7337 18.0293 24.0672 18.2882 24.3435C18.5472 24.6198 18.8677 24.8311 19.2236 24.9602C19.5796 25.0893 19.9611 25.1325 20.3369 25.0864C20.7128 25.0403 21.0724 24.9062 21.3867 24.6949C21.7009 24.4836 21.9608 24.2011 22.1453 23.8704C22.3298 23.5397 22.4337 23.1701 22.4484 22.7918C22.8267 22.777 23.1963 22.6732 23.5269 22.4888C23.8576 22.3043 24.14 22.0444 24.3513 21.7303C24.5626 21.4161 24.6968 21.0565 24.7429 20.6807C24.789 20.3049 24.7458 19.9235 24.6167 19.5675C24.4877 19.2116 24.2764 18.8911 24.0002 18.6322C23.724 18.3732 23.3905 18.1832 23.027 18.0774C22.6634 17.9716 22.28 17.9531 21.908 18.0234C21.536 18.0937 21.1858 18.2509 20.8859 18.482ZM4.3949 6.24827C4.35282 6.20565 4.30232 6.17226 4.24663 6.15022C4.19093 6.12818 4.13126 6.11798 4.0714 6.12027C4.01166 6.12225 3.95295 6.13645 3.89891 6.16199C3.84486 6.18753 3.79662 6.22387 3.75715 6.26877L3.72365 6.30802C3.71315 6.32027 3.70315 6.33302 3.6914 6.34477C3.50452 6.53172 3.27241 6.6671 3.01768 6.73772C2.76294 6.80835 2.49426 6.81181 2.23779 6.74778C1.98132 6.68375 1.7458 6.55441 1.55415 6.37234C1.36251 6.19027 1.22127 5.96169 1.14418 5.70884C1.06709 5.45598 1.05679 5.18748 1.11427 4.92946C1.17175 4.67144 1.29506 4.43271 1.47219 4.23649C1.64932 4.04027 1.87423 3.89325 2.12504 3.80976C2.37585 3.72626 2.64401 3.70912 2.9034 3.76002C2.97374 3.77375 3.04637 3.76999 3.11491 3.74907C3.18346 3.72815 3.24581 3.69072 3.2965 3.64006C3.34719 3.58939 3.38465 3.52706 3.4056 3.45852C3.42655 3.38999 3.43035 3.31736 3.41665 3.24702C3.36572 2.98762 3.38282 2.71946 3.46629 2.46863C3.54976 2.21781 3.69675 1.99287 3.89295 1.81571C4.08916 1.63855 4.32789 1.51522 4.5859 1.45771C4.84392 1.4002 5.11243 1.41048 5.3653 1.48755C5.61817 1.56461 5.84677 1.70584 6.02886 1.89748C6.21094 2.08911 6.34031 2.32463 6.40435 2.58111C6.4684 2.83758 6.46495 3.10626 6.39433 3.36101C6.32372 3.61575 6.18835 3.84787 6.0014 4.03477C5.98965 4.04652 5.9764 4.05652 5.9644 4.06702L5.92515 4.10052C5.88028 4.14005 5.84398 4.18836 5.81849 4.24246C5.793 4.29656 5.77886 4.35531 5.77694 4.41508C5.77502 4.47486 5.78536 4.53439 5.80732 4.59002C5.82929 4.64564 5.86241 4.69618 5.90465 4.73852L11.8629 10.6965L10.3532 12.2063L4.3949 6.24827ZM5.90465 20.9115C5.86241 20.9539 5.82929 21.0044 5.80732 21.06C5.78536 21.1156 5.77502 21.1752 5.77694 21.235C5.77886 21.2947 5.793 21.3535 5.81849 21.4076C5.84398 21.4617 5.88028 21.51 5.92515 21.5495L5.9639 21.5825C5.9764 21.593 5.9889 21.603 6.00065 21.6148C6.18749 21.8017 6.32275 22.0337 6.39328 22.2884C6.46382 22.5431 6.46722 22.8117 6.40315 23.0681C6.33908 23.3245 6.20973 23.5599 6.02769 23.7515C5.84565 23.943 5.61711 24.0842 5.36432 24.1612C5.11154 24.2383 4.84311 24.2486 4.58517 24.1911C4.32723 24.1336 4.08856 24.0104 3.89239 23.8333C3.69622 23.6562 3.54923 23.4314 3.46573 23.1807C3.38223 22.9299 3.36507 22.6618 3.4159 22.4025C3.42952 22.3322 3.42567 22.2596 3.40469 22.1911C3.38372 22.1226 3.34626 22.0602 3.2956 22.0096C3.24493 21.9589 3.18262 21.9215 3.11411 21.9005C3.0456 21.8795 2.97299 21.8757 2.90265 21.8893C2.64332 21.9401 2.37526 21.9229 2.12455 21.8393C1.87384 21.7558 1.64902 21.6088 1.47197 21.4126C1.29493 21.2164 1.17169 20.9778 1.11425 20.7198C1.0568 20.4619 1.06712 20.1935 1.14418 19.9407C1.22124 19.6879 1.36243 19.4594 1.554 19.2774C1.74557 19.0953 1.981 18.966 2.23739 18.902C2.49377 18.8379 2.76236 18.8413 3.01703 18.9119C3.2717 18.9824 3.50377 19.1177 3.69065 19.3045C3.7024 19.3163 3.7124 19.3295 3.7229 19.3413L3.7564 19.3805C3.79587 19.4254 3.84411 19.4618 3.89816 19.4873C3.9522 19.5128 4.01091 19.527 4.07065 19.529C4.1306 19.5321 4.19051 19.5223 4.24632 19.5002C4.30214 19.4781 4.35256 19.4443 4.39415 19.401L10.6594 13.136L10.6622 13.1338L10.6644 13.131L19.0587 4.73852C19.101 4.6961 19.1342 4.64544 19.1562 4.58967C19.1782 4.5339 19.1884 4.47421 19.1864 4.4143C19.1844 4.35439 19.17 4.29554 19.1443 4.24139C19.1186 4.18724 19.082 4.13895 19.0369 4.09952L19.0007 4.06877C18.9877 4.05777 18.9757 4.04702 18.9619 4.03477C18.775 3.84787 18.6396 3.61575 18.569 3.36101C18.4984 3.10626 18.4949 2.83758 18.559 2.58111C18.623 2.32463 18.7524 2.08911 18.9345 1.89748C19.1165 1.70584 19.3451 1.56461 19.598 1.48755C19.8509 1.41048 20.1194 1.4002 20.3774 1.45771C20.6354 1.51522 20.8742 1.63855 21.0704 1.81571C21.2666 1.99287 21.4135 2.21781 21.497 2.46863C21.5805 2.71946 21.5976 2.98762 21.5467 3.24702C21.5329 3.31735 21.5367 3.38997 21.5576 3.45851C21.5785 3.52705 21.6159 3.5894 21.6666 3.64007C21.7173 3.69074 21.7796 3.72818 21.8482 3.7491C21.9167 3.77001 21.9893 3.77376 22.0597 3.76002C22.319 3.70909 22.5872 3.72619 22.838 3.80965C23.0889 3.89312 23.3138 4.04011 23.491 4.23632C23.6681 4.43252 23.7915 4.67125 23.849 4.92927C23.9065 5.18729 23.8962 5.4558 23.8191 5.70866C23.7421 5.96153 23.6008 6.19013 23.4092 6.37222C23.2176 6.55431 22.982 6.68367 22.7256 6.74772C22.4691 6.81177 22.2004 6.80831 21.9457 6.7377C21.6909 6.66709 21.4588 6.53172 21.2719 6.34477C21.2602 6.33302 21.2502 6.31977 21.2397 6.30802L21.2062 6.26877C21.1667 6.22381 21.1184 6.18742 21.0644 6.16187C21.0103 6.13632 20.9515 6.12215 20.8917 6.12022C20.8319 6.1183 20.7724 6.12867 20.7168 6.1507C20.6612 6.17272 20.6107 6.20593 20.5684 6.24827L14.3039 12.5125L14.3004 12.5153L14.2977 12.5188L12.1727 14.6438L5.90465 20.9115ZM23.4369 21.4703C23.2594 21.6478 23.0409 21.7789 22.8007 21.8521C22.5605 21.9253 22.306 21.9383 22.0597 21.89C21.9893 21.8763 21.9167 21.8801 21.8481 21.9011C21.7796 21.922 21.7173 21.9595 21.6666 22.0102C21.616 22.0609 21.5785 22.1232 21.5576 22.1918C21.5367 22.2603 21.5329 22.3329 21.5467 22.4033C21.5975 22.6627 21.5804 22.9308 21.4969 23.1816C21.4134 23.4324 21.2664 23.6574 21.0702 23.8345C20.874 24.0116 20.6352 24.1349 20.3772 24.1924C20.1192 24.2499 19.8507 24.2396 19.5978 24.1625C19.345 24.0854 19.1164 23.9442 18.9343 23.7525C18.7523 23.5609 18.6229 23.3253 18.5589 23.0689C18.4949 22.8124 18.4983 22.5437 18.569 22.289C18.6396 22.0343 18.775 21.8022 18.9619 21.6153C18.9744 21.603 18.9869 21.5923 19.0007 21.5813L19.0369 21.5505C19.082 21.5111 19.1186 21.4628 19.1443 21.4086C19.17 21.3545 19.1844 21.2956 19.1864 21.2357C19.1884 21.1758 19.1782 21.1161 19.1562 21.0604C19.1342 21.0046 19.101 20.9539 19.0587 20.9115L13.1004 14.9533L14.6102 13.4438L20.5684 19.4018C20.6104 19.4446 20.6608 19.4781 20.7166 19.5001C20.7723 19.5222 20.832 19.5323 20.8919 19.5298C20.9516 19.5278 21.0104 19.5136 21.0644 19.488C21.1184 19.4625 21.1667 19.4262 21.2062 19.3813L21.2397 19.342C21.2502 19.3298 21.2602 19.317 21.2719 19.3053C21.5602 19.0239 21.9477 18.8675 22.3505 18.87C22.7533 18.8725 23.139 19.0336 23.4238 19.3184C23.7086 19.6032 23.8697 19.9888 23.8722 20.3916C23.8746 20.7944 23.7182 21.182 23.4369 21.4703V21.4703Z" fill="url(#paint0_linear)"/>
<defs>
<linearGradient id="paint0_linear" x1="36.7929" y1="-14.0969" x2="-35.9134" y2="61.2298" gradientUnits="userSpaceOnUse">
<stop stop-color="#FFCE1F"/>
<stop offset="0.333819" stop-color="#FAF0CE"/>
<stop offset="0.569189" stop-color="#FCA555"/>
<stop offset="1" stop-color="white" stop-opacity="0"/>
</linearGradient>
</defs>
</svg>
