<svg width="40" height="40" viewBox="0 0 40 40" fill="none" xmlns="http://www.w3.org/2000/svg">
<g clip-path="url(#clip0)">
<path d="M30.5054 27.0712L23.4341 20L30.5054 12.9287C30.8802 13.2174 31.3179 13.4137 31.7828 13.5014C32.2477 13.5892 32.7268 13.566 33.1811 13.4337C33.6354 13.3015 34.052 13.0639 34.3972 12.7403C34.7424 12.4167 35.0064 12.0162 35.1676 11.5714C35.3289 11.1266 35.3829 10.65 35.3253 10.1803C35.2677 9.71071 35.1001 9.2613 34.8362 8.86864C34.5722 8.47598 34.2193 8.15115 33.8061 7.92055C33.393 7.68995 32.9313 7.56009 32.4585 7.54152C32.44 7.06867 32.3101 6.60685 32.0795 6.19363C31.8489 5.78041 31.524 5.42744 31.1313 5.16341C30.7386 4.89939 30.2891 4.73176 29.8194 4.67416C29.3497 4.61656 28.873 4.67061 28.4281 4.83191C27.9832 4.99322 27.5827 5.25723 27.2591 5.60249C26.9354 5.94774 26.6978 6.36449 26.5656 6.81886C26.4334 7.27323 26.4102 7.75239 26.498 8.21739C26.5858 8.6824 26.7821 9.12011 27.071 9.49496L20 16.5659L12.9288 9.49496C13.2177 9.12013 13.4141 8.68241 13.502 8.21738C13.5899 7.75235 13.5668 7.27314 13.4346 6.81872C13.3024 6.3643 13.0648 5.94749 12.7412 5.60219C12.4175 5.25689 12.017 4.99284 11.572 4.83151C11.1271 4.67018 10.6504 4.61612 10.1807 4.67374C9.71094 4.73135 9.26142 4.89902 8.86868 5.16309C8.47595 5.42716 8.15107 5.78019 7.92048 6.19347C7.68988 6.60675 7.56007 7.06862 7.54161 7.54152C7.06869 7.55994 6.60679 7.6897 6.19348 7.92027C5.78016 8.15083 5.42709 8.47568 5.16298 8.86841C4.89887 9.26114 4.73117 9.71066 4.67352 10.1804C4.61587 10.6502 4.6699 11.1269 4.83121 11.5718C4.99252 12.0168 5.25656 12.4173 5.60187 12.741C5.94717 13.0647 6.36398 13.3023 6.81841 13.4345C7.27284 13.5667 7.75207 13.5898 8.21711 13.5019C8.68216 13.4141 9.11989 13.2177 9.49473 12.9287L16.566 20L9.49473 27.0712C9.1199 26.7825 8.68223 26.5863 8.2173 26.4985C7.75236 26.4108 7.27328 26.434 6.819 26.5662C6.36471 26.6985 5.94805 26.9361 5.60287 27.2597C5.25769 27.5833 4.99374 27.9837 4.83247 28.4286C4.6712 28.8734 4.61717 29.35 4.67477 29.8196C4.73236 30.2892 4.89996 30.7386 5.16393 31.1313C5.4279 31.5239 5.78081 31.8488 6.19395 32.0794C6.6071 32.31 7.06883 32.4398 7.54161 32.4584C7.56022 32.9312 7.69013 33.3929 7.92076 33.806C8.15139 34.2191 8.47624 34.5719 8.86891 34.8359C9.26159 35.0998 9.71099 35.2674 10.1806 35.3249C10.6502 35.3825 11.1268 35.3284 11.5716 35.1672C12.0164 35.0059 12.4168 34.7419 12.7404 34.3967C13.064 34.0515 13.3016 33.6349 13.4338 33.1806C13.566 32.7263 13.5892 32.2473 13.5015 31.7824C13.4137 31.3174 13.2175 30.8798 12.9288 30.505L20 23.4337L27.071 30.5046C26.782 30.8795 26.5855 31.3173 26.4975 31.7824C26.4096 32.2475 26.4326 32.7267 26.5648 33.1813C26.697 33.6358 26.9346 34.0526 27.2583 34.398C27.5819 34.7434 27.9825 35.0075 28.4275 35.1689C28.8725 35.3303 29.3493 35.3843 29.8191 35.3267C30.2889 35.2691 30.7385 35.1014 31.1313 34.8373C31.5241 34.5731 31.849 34.2201 32.0796 33.8067C32.3102 33.3933 32.4401 32.9314 32.4585 32.4584C32.9314 32.44 33.3933 32.3102 33.8066 32.0797C34.2199 31.8491 34.573 31.5242 34.8371 31.1315C35.1012 30.7388 35.2689 30.2893 35.3266 29.8195C35.3842 29.3498 35.3302 28.873 35.1689 28.4281C35.0076 27.9832 34.7435 27.5826 34.3982 27.2589C34.0529 26.9352 33.6361 26.6976 33.1817 26.5654C32.7272 26.4332 32.248 26.4101 31.783 26.498C31.3179 26.5859 30.8802 26.7823 30.5054 27.0712ZM9.89161 11.779C9.839 11.7257 9.77588 11.684 9.70626 11.6565C9.63664 11.6289 9.56205 11.6162 9.48723 11.619C9.41255 11.6215 9.33917 11.6393 9.27161 11.6712C9.20406 11.7031 9.14375 11.7485 9.09442 11.8046L9.05255 11.8537C9.03942 11.869 9.02692 11.885 9.01223 11.8996C8.77863 12.1333 8.48849 12.3026 8.17008 12.3908C7.85166 12.4791 7.51581 12.4835 7.19522 12.4034C6.87463 12.3234 6.58023 12.1617 6.34067 11.9341C6.10111 11.7065 5.92456 11.4208 5.8282 11.1047C5.73185 10.7887 5.71897 10.453 5.79082 10.1305C5.86267 9.80799 6.0168 9.50957 6.23821 9.2643C6.45963 9.01902 6.74077 8.83526 7.05428 8.73088C7.36779 8.62651 7.70299 8.60509 8.02723 8.66871C8.11515 8.68587 8.20594 8.68117 8.29162 8.65503C8.3773 8.62888 8.45525 8.58209 8.5186 8.51876C8.58196 8.45543 8.62879 8.37751 8.65498 8.29184C8.68117 8.20618 8.68591 8.11539 8.6688 8.02746C8.60513 7.70322 8.62651 7.36801 8.73084 7.05448C8.83518 6.74095 9.01891 6.45977 9.26417 6.23833C9.50942 6.01688 9.80784 5.86271 10.1304 5.79083C10.4529 5.71894 10.7885 5.73179 11.1046 5.82812C11.4207 5.92445 11.7064 6.10099 11.934 6.34053C12.1617 6.58008 12.3234 6.87448 12.4034 7.19507C12.4835 7.51566 12.4792 7.85152 12.3909 8.16995C12.3026 8.48838 12.1334 8.77853 11.8997 9.01215C11.885 9.02684 11.8685 9.03934 11.8535 9.05246L11.8044 9.09434C11.7483 9.14376 11.703 9.20414 11.6711 9.27177C11.6392 9.33939 11.6216 9.41283 11.6192 9.48754C11.6168 9.56226 11.6297 9.63668 11.6571 9.70621C11.6846 9.77574 11.726 9.83892 11.7788 9.89184L19.2266 17.3393L17.3394 19.2265L9.89161 11.779ZM11.7788 30.1081C11.726 30.161 11.6846 30.2242 11.6571 30.2937C11.6297 30.3632 11.6168 30.4377 11.6192 30.5124C11.6216 30.5871 11.6392 30.6605 11.6711 30.7282C11.703 30.7958 11.7483 30.8562 11.8044 30.9056L11.8529 30.9468C11.8685 30.96 11.8841 30.9725 11.8988 30.9871C12.1323 31.2208 12.3014 31.5109 12.3896 31.8292C12.4777 32.1476 12.482 32.4833 12.4019 32.8038C12.3218 33.1243 12.1601 33.4186 11.9326 33.658C11.705 33.8975 11.4194 34.0739 11.1034 34.1702C10.7874 34.2665 10.4519 34.2794 10.1294 34.2076C9.80701 34.1357 9.50868 33.9816 9.26346 33.7603C9.01825 33.539 8.83452 33.2579 8.73014 32.9445C8.62577 32.6311 8.60431 32.296 8.66786 31.9718C8.68488 31.8839 8.68007 31.7931 8.65385 31.7075C8.62763 31.6219 8.5808 31.544 8.51748 31.4807C8.45415 31.4173 8.37625 31.3705 8.29062 31.3443C8.20498 31.3181 8.11422 31.3133 8.0263 31.3303C7.70213 31.3938 7.36705 31.3723 7.05366 31.2679C6.74027 31.1634 6.45925 30.9797 6.23795 30.7345C6.01664 30.4892 5.86259 30.1909 5.79079 29.8685C5.71899 29.546 5.73187 29.2105 5.8282 28.8945C5.92453 28.5786 6.10101 28.2929 6.34048 28.0654C6.57994 27.8379 6.87424 27.6762 7.19471 27.5961C7.51519 27.5161 7.85093 27.5203 8.16927 27.6085C8.4876 27.6967 8.77769 27.8658 9.0113 28.0993C9.02598 28.114 9.03848 28.1306 9.05161 28.1453L9.09348 28.1943C9.14282 28.2505 9.20312 28.2959 9.27068 28.3278C9.33823 28.3597 9.41162 28.3775 9.4863 28.38C9.56123 28.3838 9.63612 28.3715 9.70589 28.3439C9.77566 28.3163 9.83867 28.2741 9.89067 28.22L17.7222 20.3887L17.7257 20.3859L17.7285 20.3825L28.2213 9.89184C28.2742 9.83882 28.3157 9.77549 28.3432 9.70577C28.3707 9.63606 28.3835 9.56145 28.381 9.48656C28.3784 9.41168 28.3605 9.33811 28.3284 9.27043C28.2962 9.20274 28.2505 9.14238 28.1941 9.09309L28.1488 9.05465C28.1325 9.0409 28.1175 9.02746 28.1004 9.01215C27.8667 8.77853 27.6975 8.48838 27.6092 8.16995C27.5209 7.85152 27.5166 7.51566 27.5967 7.19507C27.6767 6.87448 27.8384 6.58008 28.066 6.34053C28.2936 6.10099 28.5794 5.92445 28.8955 5.82812C29.2116 5.73179 29.5472 5.71894 29.8697 5.79083C30.1923 5.86271 30.4907 6.01688 30.7359 6.23833C30.9812 6.45977 31.1649 6.74095 31.2693 7.05448C31.3736 7.36801 31.395 7.70322 31.3313 8.02746C31.3141 8.11537 31.3188 8.20616 31.3449 8.29183C31.3711 8.3775 31.4179 8.45544 31.4812 8.51877C31.5446 8.58211 31.6225 8.62891 31.7082 8.65506C31.7938 8.6812 31.8846 8.68589 31.9725 8.66871C32.2968 8.60505 32.632 8.62642 32.9455 8.73076C33.2591 8.83509 33.5402 9.01883 33.7617 9.26408C33.9831 9.50934 34.1373 9.80775 34.2092 10.1303C34.2811 10.4528 34.2682 10.7884 34.1719 11.1045C34.0756 11.4206 33.899 11.7064 33.6595 11.934C33.4199 12.1616 33.1255 12.3233 32.8049 12.4033C32.4843 12.4834 32.1485 12.4791 31.8301 12.3908C31.5116 12.3025 31.2215 12.1333 30.9879 11.8996C30.9732 11.885 30.9607 11.8684 30.9475 11.8537L30.9057 11.8046C30.8564 11.7484 30.796 11.703 30.7284 11.671C30.6608 11.6391 30.5874 11.6214 30.5126 11.619C30.4379 11.6166 30.3635 11.6295 30.294 11.6571C30.2244 11.6846 30.1613 11.7261 30.1085 11.779L22.2779 19.6093L22.2735 19.6128L22.27 19.6171L19.6138 22.2734L11.7788 30.1081ZM33.6941 30.8065C33.4722 31.0284 33.1991 31.1924 32.8989 31.2839C32.5986 31.3754 32.2805 31.3916 31.9725 31.3312C31.8846 31.3141 31.7938 31.3188 31.7082 31.345C31.6225 31.3712 31.5446 31.418 31.4813 31.4814C31.4179 31.5448 31.3711 31.6227 31.345 31.7084C31.3188 31.7941 31.3141 31.8849 31.3313 31.9728C31.3949 32.297 31.3735 32.6322 31.2691 32.9457C31.1648 33.2592 30.981 33.5404 30.7357 33.7618C30.4904 33.9832 30.192 34.1373 29.8695 34.2092C29.547 34.281 29.2113 34.2682 28.8953 34.1718C28.5792 34.0754 28.2935 33.8989 28.0659 33.6593C27.8383 33.4198 27.6766 33.1254 27.5966 32.8048C27.5166 32.4842 27.5209 32.1483 27.6092 31.8299C27.6975 31.5115 27.8667 31.2214 28.1004 30.9878C28.116 30.9725 28.1316 30.959 28.1488 30.9453L28.1941 30.9068C28.2505 30.8575 28.2962 30.7972 28.3284 30.7295C28.3605 30.6618 28.3784 30.5882 28.381 30.5134C28.3835 30.4385 28.3707 30.3639 28.3432 30.2941C28.3157 30.2244 28.2742 30.1611 28.2213 30.1081L20.7735 22.6603L22.6607 20.7734L30.1085 28.2209C30.1609 28.2744 30.224 28.3163 30.2937 28.3438C30.3633 28.3714 30.438 28.384 30.5129 28.3809C30.5875 28.3784 30.6609 28.3607 30.7285 28.3287C30.796 28.2968 30.8563 28.2514 30.9057 28.1953L30.9475 28.1462C30.9607 28.1309 30.9732 28.115 30.9879 28.1003C31.3482 27.7486 31.8326 27.5531 32.3362 27.5562C32.8397 27.5593 33.3217 27.7606 33.6777 28.1167C34.0337 28.4727 34.2351 28.9547 34.2382 29.4582C34.2413 29.9617 34.0458 30.4462 33.6941 30.8065Z" fill="#DCB98B"/>
</g>
<defs>
<clipPath id="clip0">
<rect width="40" height="40" fill="white"/>
</clipPath>
</defs>
</svg>
