<svg width="25" height="25" viewBox="0 0 25 25" fill="none" xmlns="http://www.w3.org/2000/svg">
<g clip-path="url(#clip0)">
<path d="M17.7669 11.6844L17.8818 15.3045C16.496 15.6758 16.1032 15.3781 15.7027 14.45L10.2389 14.3414L4.12472 14.3971C3.80125 15.4255 3.24821 15.4705 2.05644 15.2565L2.09789 11.6549L3.87719 11.7017L4.22399 12.5341L15.9288 12.5514C16.1995 11.7007 16.6153 11.5304 17.7669 11.6844Z" fill="#393939"/>
<path fill-rule="evenodd" clip-rule="evenodd" d="M11.0627 14.5956L15.5916 14.5956C15.6192 14.8081 15.6965 15.0111 15.8173 15.1881C15.9381 15.365 16.099 15.511 16.2868 15.6142C16.4746 15.7173 16.6841 15.7746 16.8983 15.7815C17.1125 15.7885 17.3252 15.7447 17.5193 15.6539C17.7134 15.5631 17.8833 15.4278 18.0153 15.259C18.1472 15.0901 18.2375 14.8926 18.2787 14.6823C18.3199 14.472 18.3109 14.255 18.2525 14.0488C18.194 13.8427 18.0877 13.6532 17.9423 13.4959C18.0878 13.3385 18.1941 13.149 18.2525 12.9429C18.311 12.7367 18.32 12.5196 18.2788 12.3093C18.2376 12.099 18.1473 11.9014 18.0154 11.7325C17.8834 11.5636 17.7134 11.4283 17.5193 11.3375C17.3252 11.2467 17.1124 11.203 16.8982 11.2099C16.684 11.2168 16.4744 11.2742 16.2866 11.3773C16.0987 11.4805 15.9379 11.6265 15.8171 11.8036C15.6963 11.9806 15.619 12.1836 15.5914 12.3962L11.0627 12.3962L10.5674 12.3962L9.35869 12.3962L8.86332 12.3962L4.33441 12.3962C4.30684 12.1837 4.22952 11.9807 4.10873 11.8037C3.98794 11.6267 3.82709 11.4807 3.63926 11.3776C3.45143 11.2745 3.24192 11.2171 3.02775 11.2102C2.81359 11.2033 2.60081 11.247 2.40672 11.3378C2.21263 11.4286 2.04271 11.5639 1.91076 11.7328C1.77882 11.9016 1.68857 12.0992 1.64736 12.3095C1.60615 12.5197 1.61514 12.7368 1.6736 12.9429C1.73206 13.1491 1.83833 13.3385 1.98379 13.4959C1.83835 13.6532 1.7321 13.8427 1.67366 14.0488C1.61523 14.255 1.60626 14.472 1.64748 14.6823C1.68871 14.8925 1.77897 15.0901 1.91092 15.2589C2.04287 15.4278 2.2128 15.5631 2.40689 15.6538C2.60097 15.7446 2.81374 15.7883 3.0279 15.7814C3.24206 15.7745 3.45157 15.7172 3.63939 15.614C3.82721 15.5109 3.98805 15.3649 4.10884 15.1879C4.22962 15.011 4.30694 14.808 4.33451 14.5955L8.86342 14.5955L9.35879 14.5955L10.5674 14.5956L11.0627 14.5956ZM3.99493 14.1206C4.02599 14.1071 4.05948 14.1002 4.09333 14.1001L9.1113 14.1002L10.8126 14.1002L10.8151 14.0999L10.8176 14.1002L15.8327 14.1003C15.8666 14.1003 15.9001 14.1072 15.9312 14.1207C15.9623 14.1341 15.9902 14.1538 16.0134 14.1785C16.0366 14.2032 16.0544 14.2324 16.0658 14.2643C16.0773 14.2961 16.082 14.33 16.0798 14.3638L16.0775 14.3929C16.077 14.4018 16.0757 14.4111 16.0757 14.4205C16.0757 14.5702 16.1144 14.7173 16.1881 14.8475C16.2618 14.9778 16.368 15.0867 16.4963 15.1637C16.6246 15.2408 16.7707 15.2833 16.9203 15.2871C17.0699 15.2909 17.2179 15.2559 17.35 15.1856C17.482 15.1152 17.5936 15.0118 17.6739 14.8855C17.7542 14.7592 17.8004 14.6143 17.808 14.4648C17.8156 14.3154 17.7844 14.1665 17.7174 14.0327C17.6504 13.8989 17.5499 13.7847 17.4257 13.7012C17.392 13.6786 17.3645 13.648 17.3454 13.6122C17.3263 13.5764 17.3164 13.5364 17.3164 13.4959C17.3164 13.4553 17.3263 13.4154 17.3454 13.3796C17.3645 13.3437 17.392 13.3132 17.4257 13.2905C17.5499 13.2071 17.6504 13.0929 17.7174 12.9591C17.7844 12.8253 17.8156 12.6764 17.808 12.5269C17.8004 12.3775 17.7542 12.2325 17.6739 12.1062C17.5936 11.9799 17.482 11.8766 17.35 11.8062C17.2179 11.7358 17.0699 11.7008 16.9203 11.7047C16.7707 11.7085 16.6246 11.751 16.4963 11.828C16.368 11.905 16.2618 12.014 16.1881 12.1442C16.1144 12.2744 16.0757 12.4215 16.0757 12.5712L16.0759 12.5738C16.0764 12.5832 16.0769 12.5915 16.0776 12.6003L16.0798 12.6271C16.0821 12.661 16.0774 12.695 16.066 12.7269C16.0546 12.7589 16.0368 12.7882 16.0136 12.813C15.9905 12.8378 15.9625 12.8576 15.9313 12.8711C15.9002 12.8846 15.8667 12.8916 15.8327 12.8916L9.11311 12.8909L9.11111 12.8911L9.1091 12.8909L4.09333 12.8908C4.05936 12.8915 4.02564 12.8849 3.99445 12.8714C3.96327 12.8579 3.93536 12.8378 3.9126 12.8126C3.88948 12.7879 3.87166 12.7587 3.86025 12.7268C3.84884 12.695 3.84408 12.6611 3.84625 12.6273L3.84855 12.5982C3.84905 12.5893 3.85035 12.58 3.85035 12.5706C3.85033 12.421 3.81159 12.274 3.73788 12.1438C3.66418 12.0136 3.55803 11.9047 3.42976 11.8277C3.3015 11.7507 3.15549 11.7083 3.00594 11.7044C2.85639 11.7006 2.7084 11.7356 2.57637 11.8059C2.44434 11.8762 2.33276 11.9796 2.2525 12.1058C2.17225 12.2321 2.12604 12.3769 2.11838 12.5263C2.11071 12.6757 2.14186 12.8246 2.20878 12.9584C2.2757 13.0922 2.37612 13.2063 2.50027 13.2898C2.53387 13.3125 2.5614 13.3431 2.58042 13.379C2.59945 13.4148 2.6094 13.4547 2.6094 13.4953C2.6094 13.5358 2.59945 13.5758 2.58042 13.6116C2.5614 13.6474 2.53387 13.678 2.50027 13.7007C2.37611 13.7842 2.27567 13.8984 2.20873 14.0321C2.14179 14.1659 2.11063 14.3148 2.11827 14.4642C2.12592 14.6136 2.17211 14.7585 2.25236 14.8847C2.3326 15.011 2.44417 15.1143 2.5762 15.1847C2.70823 15.255 2.85622 15.29 3.00577 15.2862C3.15532 15.2824 3.30134 15.2399 3.42962 15.1629C3.55789 15.0859 3.66405 14.9771 3.73776 14.8469C3.81147 14.7167 3.85023 14.5697 3.85025 14.42C3.85025 14.4106 3.84925 14.4016 3.84845 14.3924L3.84615 14.3637C3.84401 14.3299 3.84882 14.2961 3.86027 14.2642C3.87173 14.2323 3.88958 14.2032 3.91274 14.1785C3.9359 14.1538 3.96387 14.1341 3.99493 14.1206Z" fill="url(#paint0_linear)"/>
<path d="M22.8423 3.87432L22.9946 8.6705C21.1585 9.16239 20.6381 8.76803 20.1076 7.53843L12.8688 7.39449L4.76839 7.46829C4.33984 8.83078 3.60714 8.89041 2.02822 8.60688L2.08314 3.83533L4.44044 3.89734L4.89991 5.00007L20.407 5.02304C20.7657 3.89601 21.3166 3.67033 22.8423 3.87432Z" fill="#393939"/>
<path fill-rule="evenodd" clip-rule="evenodd" d="M13.9603 7.7313H19.9605C19.997 8.01283 20.0994 8.28176 20.2595 8.51625C20.4195 8.75073 20.6326 8.94415 20.8815 9.08077C21.1303 9.2174 21.4079 9.29337 21.6916 9.30253C21.9754 9.31168 22.2572 9.25376 22.5144 9.13346C22.7715 9.01316 22.9966 8.83389 23.1715 8.6102C23.3463 8.38652 23.4658 8.12475 23.5204 7.84616C23.575 7.56758 23.5631 7.28004 23.4857 7.00692C23.4082 6.7338 23.2674 6.48281 23.0747 6.27435C23.2675 6.06587 23.4083 5.81485 23.4858 5.54169C23.5633 5.26853 23.5752 4.98095 23.5206 4.70231C23.466 4.42368 23.3464 4.16186 23.1716 3.93815C22.9967 3.71443 22.7715 3.53513 22.5144 3.41482C22.2572 3.29451 21.9752 3.23659 21.6915 3.24576C21.4077 3.25494 21.1301 3.33095 20.8812 3.46761C20.6323 3.60428 20.4192 3.79775 20.2592 4.03229C20.0991 4.26683 19.9967 4.53582 19.9602 4.8174L13.9603 4.8174H13.304H11.7027H11.0464L5.04628 4.8174C5.00975 4.53587 4.90731 4.26694 4.74728 4.03245C4.58725 3.79797 4.37416 3.60455 4.12531 3.46793C3.87646 3.3313 3.59888 3.25533 3.31515 3.24617C3.03141 3.23702 2.74951 3.29494 2.49237 3.41524C2.23523 3.53554 2.01011 3.71482 1.8353 3.9385C1.66049 4.16218 1.54093 4.42395 1.48633 4.70254C1.43173 4.98113 1.44364 5.26866 1.52109 5.54178C1.59854 5.8149 1.73934 6.06589 1.93204 6.27435C1.73937 6.48282 1.5986 6.73382 1.52118 7.00694C1.44376 7.28005 1.43187 7.56759 1.48649 7.84616C1.54111 8.12473 1.66069 8.38649 1.83551 8.61015C2.01033 8.83381 2.23545 9.01307 2.49259 9.13335C2.74973 9.25363 3.03162 9.31155 3.31535 9.30238C3.59908 9.29322 3.87664 9.21723 4.12548 9.08061C4.37431 8.94398 4.5874 8.75057 4.74743 8.51609C4.90745 8.28161 5.00988 8.01269 5.04641 7.73117L11.0466 7.73117L11.7028 7.73117L13.304 7.7313L13.9603 7.7313ZM4.59651 7.10202C4.63766 7.08417 4.68203 7.07493 4.72688 7.07488L11.375 7.07502H13.6289L13.6322 7.07462L13.6355 7.07502L20.2799 7.07515C20.3247 7.07511 20.3691 7.08428 20.4103 7.10209C20.4515 7.11991 20.4886 7.14598 20.5192 7.17871C20.5499 7.21144 20.5736 7.25011 20.5887 7.29235C20.6038 7.33458 20.6101 7.37947 20.6072 7.42424L20.6042 7.46282C20.6035 7.47462 20.6018 7.48695 20.6018 7.49941C20.6018 7.69767 20.6531 7.89257 20.7507 8.06511C20.8484 8.23766 20.989 8.38198 21.159 8.48403C21.329 8.58608 21.5225 8.64238 21.7207 8.64744C21.9189 8.65251 22.115 8.60617 22.29 8.51294C22.465 8.4197 22.6128 8.28276 22.7192 8.11542C22.8255 7.94809 22.8867 7.75607 22.8968 7.55807C22.9069 7.36007 22.8656 7.16282 22.7768 6.98554C22.688 6.80825 22.5549 6.65696 22.3903 6.54641C22.3457 6.5164 22.3092 6.4759 22.284 6.42846C22.2587 6.38101 22.2455 6.32809 22.2455 6.27435C22.2455 6.22061 22.2587 6.16769 22.284 6.12025C22.3092 6.07281 22.3457 6.0323 22.3903 6.00229C22.5549 5.89174 22.688 5.74045 22.7768 5.56317C22.8656 5.38588 22.9069 5.18863 22.8968 4.99063C22.8867 4.79263 22.8255 4.60061 22.7192 4.43328C22.6128 4.26594 22.465 4.129 22.29 4.03576C22.115 3.94253 21.9189 3.89619 21.7207 3.90126C21.5225 3.90632 21.329 3.96262 21.159 4.06467C20.989 4.16672 20.8484 4.31104 20.7507 4.48359C20.6531 4.65614 20.6018 4.85103 20.6018 5.04929L20.602 5.05277C20.6027 5.06513 20.6033 5.07622 20.6043 5.08787L20.6072 5.1234C20.6102 5.16826 20.604 5.21326 20.589 5.25561C20.5739 5.29797 20.5503 5.33677 20.5196 5.36963C20.4889 5.40248 20.4518 5.42868 20.4105 5.4466C20.3693 5.46452 20.3248 5.47379 20.2799 5.47382L11.3774 5.47289L11.3747 5.47315L11.3721 5.47289L4.72688 5.47276C4.68187 5.47365 4.6372 5.46485 4.59588 5.44696C4.55457 5.42907 4.51759 5.40251 4.48744 5.36908C4.45681 5.33634 4.43321 5.29768 4.41809 5.25547C4.40297 5.21326 4.39666 5.16841 4.39954 5.12367L4.40259 5.08509C4.40325 5.07329 4.40497 5.06096 4.40497 5.04849C4.40495 4.8503 4.35361 4.65549 4.25596 4.48301C4.15832 4.31054 4.01768 4.16629 3.84775 4.06429C3.67782 3.96229 3.48437 3.90602 3.28624 3.90096C3.08811 3.89589 2.89205 3.94221 2.71713 4.03539C2.5422 4.12858 2.39439 4.26546 2.28806 4.43272C2.18173 4.59998 2.12051 4.79191 2.11035 4.98985C2.1002 5.18778 2.14147 5.38497 2.23013 5.56223C2.31879 5.73949 2.45183 5.89077 2.6163 6.00136C2.66083 6.03145 2.69729 6.07199 2.7225 6.11945C2.74771 6.1669 2.76089 6.21982 2.76089 6.27356C2.76089 6.32729 2.74771 6.38021 2.7225 6.42766C2.69729 6.47512 2.66083 6.51566 2.6163 6.54575C2.45181 6.65632 2.31875 6.80759 2.23006 6.98484C2.14137 7.16209 2.10009 7.35928 2.11022 7.55722C2.12034 7.75516 2.18154 7.94711 2.28786 8.11438C2.39418 8.28165 2.54199 8.41855 2.7169 8.51176C2.89182 8.60496 3.08789 8.65129 3.28602 8.64624C3.48416 8.64119 3.67761 8.58494 3.84756 8.48294C4.0175 8.38095 4.15815 8.2367 4.2558 8.06423C4.35346 7.89176 4.40481 7.69695 4.40484 7.49875C4.40484 7.48629 4.40352 7.47436 4.40245 7.46216L4.3994 7.42411C4.39658 7.37934 4.40294 7.33447 4.41812 7.29226C4.43329 7.25005 4.45694 7.2114 4.48763 7.17868C4.51831 7.14596 4.55536 7.11987 4.59651 7.10202Z" fill="url(#paint1_linear)"/>
<path d="M20.805 18.4153L20.9426 22.7461C19.2846 23.1903 18.8147 22.8342 18.3356 21.7239L11.7991 21.5939L4.48465 21.6606C4.09767 22.8909 3.43605 22.9447 2.01032 22.6887L2.05991 18.3801L4.18851 18.4361L4.60341 19.4318L18.6061 19.4525C18.9299 18.4349 19.4274 18.2311 20.805 18.4153Z" fill="#393939"/>
<path fill-rule="evenodd" clip-rule="evenodd" d="M12.7848 21.898L18.2029 21.898C18.2358 22.1522 18.3283 22.3951 18.4728 22.6068C18.6173 22.8185 18.8098 22.9932 19.0345 23.1166C19.2592 23.2399 19.5098 23.3085 19.766 23.3168C20.0223 23.3251 20.2768 23.2728 20.509 23.1641C20.7412 23.0555 20.9445 22.8936 21.1023 22.6917C21.2602 22.4897 21.3681 22.2533 21.4174 22.0017C21.4667 21.7502 21.456 21.4905 21.386 21.2439C21.3161 20.9973 21.189 20.7707 21.015 20.5824C21.189 20.3942 21.3162 20.1675 21.3861 19.9208C21.4561 19.6742 21.4669 19.4145 21.4176 19.1629C21.3683 18.9113 21.2603 18.6749 21.1024 18.4729C20.9445 18.2709 20.7412 18.1089 20.509 18.0003C20.2767 17.8917 20.0221 17.8394 19.7659 17.8477C19.5096 17.8559 19.259 17.9246 19.0342 18.048C18.8095 18.1714 18.6171 18.3461 18.4726 18.5579C18.3281 18.7697 18.2356 19.0126 18.2026 19.2668L12.7848 19.2668L12.1922 19.2668L10.7462 19.2668L10.1536 19.2668L4.73559 19.2668C4.7026 19.0126 4.6101 18.7698 4.4656 18.558C4.3211 18.3463 4.12867 18.1716 3.90397 18.0483C3.67926 17.9249 3.42862 17.8563 3.1724 17.848C2.91619 17.8398 2.66165 17.8921 2.42945 18.0007C2.19726 18.1093 1.99398 18.2712 1.83613 18.4732C1.67828 18.6752 1.57032 18.9115 1.52102 19.1631C1.47171 19.4147 1.48247 19.6743 1.5524 19.9209C1.62234 20.1675 1.74948 20.3942 1.92349 20.5824C1.7495 20.7707 1.62239 20.9973 1.55248 21.2439C1.48257 21.4905 1.47184 21.7502 1.52116 22.0017C1.57048 22.2533 1.67846 22.4896 1.83632 22.6916C1.99418 22.8936 2.19746 23.0554 2.42965 23.164C2.66184 23.2727 2.91638 23.325 3.17259 23.3167C3.42879 23.3084 3.67942 23.2398 3.90412 23.1164C4.12882 22.993 4.32123 22.8184 4.46573 22.6067C4.61022 22.3949 4.70272 22.1521 4.73571 21.8979L10.1537 21.8979L10.7464 21.8979L12.1922 21.898L12.7848 21.898ZM4.32946 21.3298C4.36661 21.3137 4.40668 21.3053 4.44718 21.3053L10.4503 21.3054L12.4855 21.3054L12.4885 21.305L12.4915 21.3054L18.4913 21.3055C18.5318 21.3055 18.5719 21.3138 18.609 21.3299C18.6462 21.3459 18.6797 21.3695 18.7074 21.399C18.7351 21.4286 18.7565 21.4635 18.7701 21.5016C18.7838 21.5398 18.7895 21.5803 18.7869 21.6207L18.7841 21.6556C18.7835 21.6662 18.7819 21.6774 18.7819 21.6886C18.7819 21.8677 18.8282 22.0436 18.9164 22.1994C19.0046 22.3552 19.1316 22.4856 19.2851 22.5777C19.4386 22.6699 19.6133 22.7207 19.7923 22.7253C19.9713 22.7299 20.1484 22.688 20.3064 22.6038C20.4644 22.5196 20.5979 22.396 20.6939 22.2449C20.7899 22.0938 20.8452 21.9204 20.8543 21.7416C20.8634 21.5628 20.8261 21.3847 20.7459 21.2246C20.6658 21.0645 20.5456 20.9279 20.397 20.8281C20.3567 20.801 20.3237 20.7644 20.3009 20.7216C20.2781 20.6787 20.2662 20.6309 20.2662 20.5824C20.2662 20.5339 20.2781 20.4861 20.3009 20.4433C20.3237 20.4004 20.3567 20.3638 20.397 20.3368C20.5456 20.2369 20.6658 20.1003 20.7459 19.9402C20.8261 19.7801 20.8634 19.602 20.8543 19.4232C20.8452 19.2444 20.7899 19.0711 20.6939 18.92C20.5979 18.7689 20.4644 18.6452 20.3064 18.561C20.1484 18.4768 19.9713 18.435 19.7923 18.4396C19.6133 18.4441 19.4386 18.495 19.2851 18.5871C19.1316 18.6793 19.0046 18.8096 18.9164 18.9654C18.8282 19.1212 18.7819 19.2972 18.7819 19.4762L18.7821 19.4793C18.7828 19.4905 18.7833 19.5005 18.7842 19.511L18.7869 19.5431C18.7896 19.5836 18.784 19.6243 18.7704 19.6625C18.7567 19.7008 18.7354 19.7358 18.7077 19.7655C18.68 19.7951 18.6465 19.8188 18.6092 19.835C18.572 19.8512 18.5319 19.8595 18.4913 19.8595L10.4524 19.8587L10.45 19.8589L10.4477 19.8587L4.44718 19.8586C4.40654 19.8594 4.36619 19.8514 4.32889 19.8353C4.29159 19.8191 4.25819 19.7952 4.23097 19.765C4.20331 19.7354 4.18199 19.7005 4.16834 19.6624C4.15469 19.6243 4.14899 19.5838 4.15159 19.5434L4.15435 19.5085C4.15494 19.4979 4.1565 19.4867 4.1565 19.4755C4.15648 19.2965 4.11012 19.1206 4.02195 18.9649C3.93377 18.8091 3.80679 18.6789 3.65334 18.5868C3.49989 18.4947 3.32522 18.4439 3.14631 18.4393C2.9674 18.4347 2.79036 18.4765 2.6324 18.5607C2.47445 18.6448 2.34097 18.7684 2.24496 18.9195C2.14895 19.0705 2.09367 19.2438 2.0845 19.4225C2.07533 19.6013 2.11259 19.7793 2.19265 19.9394C2.27271 20.0994 2.39285 20.2361 2.54136 20.3359C2.58157 20.3631 2.61449 20.3997 2.63726 20.4425C2.66002 20.4854 2.67192 20.5332 2.67192 20.5817C2.67192 20.6302 2.66002 20.678 2.63726 20.7209C2.61449 20.7637 2.58157 20.8003 2.54136 20.8275C2.39283 20.9273 2.27268 21.0639 2.19259 21.224C2.11251 21.384 2.07523 21.5621 2.08437 21.7408C2.09352 21.9196 2.14878 22.0929 2.24478 22.2439C2.34079 22.395 2.47426 22.5186 2.6322 22.6028C2.79015 22.6869 2.9672 22.7288 3.14611 22.7242C3.32502 22.7196 3.49971 22.6688 3.65316 22.5767C3.80662 22.4846 3.93362 22.3544 4.0218 22.1986C4.10999 22.0429 4.15635 21.867 4.15638 21.688C4.15638 21.6768 4.15518 21.666 4.15423 21.655L4.15147 21.6206C4.14892 21.5802 4.15467 21.5397 4.16837 21.5016C4.18207 21.4635 4.20343 21.4286 4.23114 21.399C4.25884 21.3695 4.2923 21.3459 4.32946 21.3298Z" fill="url(#paint2_linear)"/>
</g>
<defs>
<linearGradient id="paint0_linear" x1="30.4699" y1="12.4506" x2="-28.782" y2="13.4991" gradientUnits="userSpaceOnUse">
<stop stop-color="#FFCE1F"/>
<stop offset="0.333819" stop-color="#FAF0CE"/>
<stop offset="0.569189" stop-color="#FCA555"/>
<stop offset="1" stop-color="white" stop-opacity="0"/>
</linearGradient>
<linearGradient id="paint1_linear" x1="39.672" y1="4.8895" x2="-38.8282" y2="6.27864" gradientUnits="userSpaceOnUse">
<stop stop-color="#FFCE1F"/>
<stop offset="0.333819" stop-color="#FAF0CE"/>
<stop offset="0.569189" stop-color="#FCA555"/>
<stop offset="1" stop-color="white" stop-opacity="0"/>
</linearGradient>
<linearGradient id="paint2_linear" x1="36.002" y1="19.3319" x2="-34.8823" y2="20.5863" gradientUnits="userSpaceOnUse">
<stop stop-color="#FFCE1F"/>
<stop offset="0.333819" stop-color="#FAF0CE"/>
<stop offset="0.569189" stop-color="#FCA555"/>
<stop offset="1" stop-color="white" stop-opacity="0"/>
</linearGradient>
<clipPath id="clip0">
<rect width="24" height="24" fill="white" transform="translate(0.507446 0.824707)"/>
</clipPath>
</defs>
</svg>
