<svg width="41" height="41" viewBox="0 0 41 41" fill="none" xmlns="http://www.w3.org/2000/svg">
<path d="M8 1L32.3913 1.00003V5.98136L29.4486 6.35191V14.4877L26.5617 17.309L25.2495 37.2548L20.3286 40.4042L15.0141 37.2548V17.309L11.4711 14.1597V6.35191H8.0001L8 1Z" fill="#393939"/>
<path d="M14.2613 34.7609C14.2613 38.2003 17.061 41 20.5004 41C23.9399 41 26.7396 38.2003 26.7396 34.7609V17.736C28.7707 17.3217 30.3048 15.5221 30.3048 13.3696V7.13043H32.9787C33.4718 7.13043 33.87 6.73091 33.87 6.23913V0.891304C33.87 0.39952 33.4718 0 32.9787 0H8.02216C7.52907 0 7.13086 0.39952 7.13086 0.891304V6.23913C7.13086 6.73091 7.52907 7.13043 8.02216 7.13043H10.6961V13.3696C10.6961 15.5212 12.2302 17.3217 14.2613 17.736V34.7609ZM24.9569 17.8261V21.3913H16.0439V17.8261H24.9569ZM20.5004 39.2174C18.0432 39.2174 16.0439 37.2181 16.0439 34.7609V23.1739H24.9569V34.7609C24.9569 37.2181 22.9576 39.2174 20.5004 39.2174ZM8.91347 1.78261H32.0874V5.34783H8.91347V1.78261ZM12.4787 13.3696V7.13043H28.5222V13.3696C28.5222 14.8436 27.3223 16.0435 25.8482 16.0435H15.1526C13.6786 16.0435 12.4787 14.8436 12.4787 13.3696Z" fill="url(#paint0_linear)"/>
<path fill-rule="evenodd" clip-rule="evenodd" d="M30.3048 7.13043H32.9787C33.4718 7.13043 33.87 6.73091 33.87 6.23913V0.891304C33.87 0.39952 33.4718 0 32.9787 0H8.02216C7.52907 0 7.13086 0.39952 7.13086 0.891304V6.23913C7.13086 6.73091 7.52907 7.13043 8.02216 7.13043H10.6961H12.4787H28.5222H30.3048ZM30.6114 5.34783H14.5H8.91347H32.0874H30.6114Z" fill="#FFCE1F"/>
<defs>
<linearGradient id="paint0_linear" x1="46.9706" y1="-24.4466" x2="-65.7176" y2="51.694" gradientUnits="userSpaceOnUse">
<stop stop-color="#FFCE1F"/>
<stop offset="0.333819" stop-color="#FAF0CE"/>
<stop offset="0.569189" stop-color="#F5BC87" stop-opacity="0.651083"/>
<stop offset="1" stop-color="white" stop-opacity="0"/>
</linearGradient>
</defs>
</svg>
