<svg width="40" height="40" viewBox="0 0 40 40" fill="none" xmlns="http://www.w3.org/2000/svg">
<path d="M6.95996 0.975586L30.7564 0.975614V5.83545L27.8854 6.19696V14.1343L25.0689 16.8868L23.7887 36.3462L18.9879 39.4187L13.803 36.3462V16.8868L10.3464 13.8143V6.19696H6.96006L6.95996 0.975586Z" fill="#393939"/>
<path d="M13.0678 33.913C13.0678 37.2686 15.7993 40 19.1548 40C22.5104 40 25.2418 37.2686 25.2418 33.913V17.3034C27.2233 16.8992 28.72 15.1435 28.72 13.0435V6.95652H31.3287C31.8098 6.95652 32.1983 6.56675 32.1983 6.08696V0.869565C32.1983 0.389776 31.8098 0 31.3287 0H6.98089C6.49983 0 6.11133 0.389776 6.11133 0.869565V6.08696C6.11133 6.56675 6.49983 6.95652 6.98089 6.95652H9.58959V13.0435C9.58959 15.1427 11.0863 16.8992 13.0678 17.3034V33.913ZM23.5026 17.3913V20.8696H14.807V17.3913H23.5026ZM19.1548 38.2609C16.7576 38.2609 14.807 36.3103 14.807 33.913V22.6087H23.5026V33.913C23.5026 36.3103 21.5521 38.2609 19.1548 38.2609ZM7.85046 1.73913H30.4592V5.21739H7.85046V1.73913ZM11.3287 13.0435V6.95652H26.9809V13.0435C26.9809 14.4816 25.8103 15.6522 24.3722 15.6522H13.9374C12.4993 15.6522 11.3287 14.4816 11.3287 13.0435Z" fill="url(#paint0_linear)"/>
<path fill-rule="evenodd" clip-rule="evenodd" d="M28.72 6.95652H31.3287C31.8098 6.95652 32.1983 6.56675 32.1983 6.08696V0.869565C32.1983 0.389776 31.8098 0 31.3287 0H6.98089C6.49983 0 6.11133 0.389776 6.11133 0.869565V6.08696C6.11133 6.56675 6.49983 6.95652 6.98089 6.95652H9.58959H11.3287H26.9809H28.72ZM29.0191 5.21739H13.3007H7.85046H30.4592H29.0191Z" fill="#FFCE1F"/>
<defs>
<linearGradient id="paint0_linear" x1="44.9793" y1="-23.8504" x2="-64.9604" y2="50.4332" gradientUnits="userSpaceOnUse">
<stop stop-color="#FFCE1F"/>
<stop offset="0.333819" stop-color="#FAF0CE"/>
<stop offset="0.569189" stop-color="#F5BC87" stop-opacity="0.651083"/>
<stop offset="1" stop-color="white" stop-opacity="0"/>
</linearGradient>
</defs>
</svg>
