<svg width="25" height="25" viewBox="0 0 25 25" fill="none" xmlns="http://www.w3.org/2000/svg">
<g clip-path="url(#clip0)">
<rect x="0.11792" y="0.771973" width="24" height="24.0001" fill="#393939"/>
<path d="M8.29974 0.771973H0.663392C0.361892 0.771973 0.11792 1.01594 0.11792 1.31744V8.9538C0.11792 9.2553 0.361892 9.49927 0.663392 9.49927C0.964892 9.49927 1.20881 9.2553 1.20881 8.9538V1.86287H8.29974C8.60124 1.86287 8.84522 1.61889 8.84522 1.31739C8.84522 1.01589 8.60124 0.771973 8.29974 0.771973ZM23.5725 0.771973H15.9361C15.6346 0.771973 15.3906 1.01594 15.3906 1.31744C15.3906 1.61894 15.6346 1.86292 15.9361 1.86292H23.027V8.9538C23.027 9.2553 23.271 9.49927 23.5725 9.49927C23.874 9.49927 24.118 9.2553 24.118 8.9538V1.31744C24.1179 1.01594 23.874 0.771973 23.5725 0.771973ZM23.5725 16.0447C23.271 16.0447 23.027 16.2887 23.027 16.5902V23.6811H15.9361C15.6346 23.6811 15.3906 23.9251 15.3906 24.2266C15.3906 24.5281 15.6346 24.772 15.9361 24.772H23.5724C23.8739 24.772 24.1179 24.5281 24.1179 24.2266V16.5901C24.1179 16.2887 23.874 16.0447 23.5725 16.0447ZM8.29974 23.6811H1.20881V16.5901C1.20881 16.2886 0.964841 16.0447 0.663341 16.0447C0.361841 16.0447 0.11792 16.2887 0.11792 16.5901V24.2265C0.11792 24.528 0.361892 24.772 0.663392 24.772H8.29974C8.60124 24.772 8.84522 24.528 8.84522 24.2265C8.84522 23.9251 8.60124 23.6811 8.29974 23.6811Z" fill="url(#paint0_linear)"/>
<path d="M8.29974 23.6811H1.20881V16.5902C1.20881 16.2887 0.964841 16.0447 0.663341 16.0447C0.361841 16.0447 0.11792 16.2887 0.11792 16.5902V24.2265C0.11792 24.528 0.361892 24.772 0.663392 24.772H8.29974C8.60124 24.772 8.84522 24.528 8.84522 24.2265C8.84522 23.9251 8.60124 23.6811 8.29974 23.6811Z" fill="#FFCE1F"/>
<path d="M15.9362 1.86286L23.0271 1.86286L23.0271 8.95379C23.0271 9.25529 23.2711 9.49927 23.5726 9.49927C23.8741 9.49927 24.118 9.25524 24.118 8.95379L24.118 1.31744C24.118 1.01594 23.874 0.77197 23.5725 0.77197L15.9362 0.771969C15.6347 0.771969 15.3907 1.01594 15.3907 1.31744C15.3907 1.61889 15.6347 1.86286 15.9362 1.86286Z" fill="#FFCE1F"/>
</g>
<defs>
<linearGradient id="paint0_linear" x1="35.8766" y1="-13.5383" x2="-35.1774" y2="60.0761" gradientUnits="userSpaceOnUse">
<stop stop-color="#FFCE1F"/>
<stop offset="0.333819" stop-color="#FAF0CE"/>
<stop offset="0.569189" stop-color="#F5BC87" stop-opacity="0.651083"/>
<stop offset="1" stop-color="white" stop-opacity="0"/>
</linearGradient>
<clipPath id="clip0">
<rect width="24" height="24" fill="white" transform="translate(0.11792 0.771973)"/>
</clipPath>
</defs>
</svg>
