<svg width="34" height="40" viewBox="0 0 40 40" fill="none" xmlns="http://www.w3.org/2000/svg">
<path d="M23.354 30.1031C27.7148 27.2228 31.6047 16.6892 24.2646 7.89537C22.9111 7.89535 13.8111 7.89539 9.03709 7.93039C2.15444 15.8732 4.75734 25.4034 9.85614 30.0781C11.3238 30.0781 20.3912 30.1031 23.354 30.1031Z" fill="#393939"/>
<path d="M2.9494 38.6987H31.002C32.8196 38.5793 32.5247 36.6653 31.0019 36.6653H2.94931C1.23569 36.7999 1.51246 38.5806 2.9494 38.6987Z" fill="#393939"/>
<path d="M9.85614 31.336C6.41138 31.6284 5.53869 32.6757 4.9513 35.3472H28.4362C27.4466 32.4333 26.6182 31.336 23.354 31.336H9.85614Z" fill="#393939"/>
<path d="M24.3459 6.72473H9.03709C9.70547 5.01784 10.4134 4.3307 13.1309 4.27582H20.2695C22.8345 4.31016 23.5813 4.98441 24.3459 6.72473Z" fill="#393939"/>
<path d="M20.2695 3.3492H13.1309C13.8179 2.01887 14.4193 1.64138 15.8949 1.28082H17.5055C19.2854 1.74843 19.7823 2.25391 20.2695 3.3492Z" fill="#393939"/>
<path fill-rule="evenodd" clip-rule="evenodd" d="M31.0737 35.3333H29.8712C29.8687 34.6153 29.7045 33.9493 29.4105 33.346L31.4743 31.6287L32.5101 32.4907C32.6664 32.6207 32.8715 32.686 33.0766 32.686C33.2816 32.686 33.4867 32.6207 33.643 32.4907C33.9562 32.23 33.9562 31.8087 33.643 31.548L30.4384 28.8813C30.1251 28.6207 29.6188 28.6207 29.3055 28.8813C28.9923 29.142 28.9923 29.5633 29.3055 29.824L30.3414 30.686L28.5773 32.154C27.7681 31.302 26.6129 30.668 25.2085 30.322C27.9604 27.5893 29.8728 22.9053 29.8728 18.6367C29.8728 15.3753 28.631 10.9467 26.2459 8.01933H28.2705C28.7127 8.01933 29.0716 7.72067 29.0716 7.35267C29.0716 6.98467 28.7127 6.686 28.2705 6.686H25.867V6.66667C25.867 4.82867 24.07 3.33333 21.8613 3.33333H21.7892C21.4062 1.44467 19.4322 0 17.0544 0H16.2532C13.8762 0 11.9022 1.44467 11.5184 3.33333H11.4463C9.23754 3.33333 7.44057 4.82867 7.44057 6.66667V6.68533H4.23597C3.79373 6.68533 3.43482 6.984 3.43482 7.352C3.43482 7.72 3.79373 8.01867 4.23597 8.01867H7.06162C6.11867 9.17667 5.35758 10.5693 4.77835 12.032C4.76669 12.0425 4.7544 12.0524 4.74215 12.0622C4.71566 12.0835 4.68936 12.1046 4.67019 12.132C0.896775 17.422 -1.45059 23.5027 1.36064 24.8913C1.70353 25.0607 2.08328 25.1407 2.49347 25.1407C3.12157 25.1407 3.82177 24.9433 4.56284 24.6033C5.38962 26.8293 6.62179 28.8553 8.09831 30.3213C5.27025 31.0187 3.44443 32.884 3.43562 35.3333H3.03424C1.48802 35.3333 0.230218 36.38 0.230218 37.6667C0.230218 38.9533 1.48802 40 3.03424 40H31.0745C32.6207 40 33.8785 38.9533 33.8785 37.6667C33.8785 36.38 32.6191 35.3333 31.0737 35.3333ZM16.2524 1.33333H17.0536C18.5437 1.33333 19.7999 2.18467 20.1572 3.33333H13.1496C13.5061 2.18467 14.7615 1.33333 16.2524 1.33333ZM15.8518 8.01867C15.2382 10.1653 13.8041 12.95 11.8565 15.6813C9.63171 18.8 7.34523 21.0573 5.52021 22.3947C5.21016 21.1507 5.03632 19.876 5.03632 18.636C5.03632 14.736 6.71552 10.3373 9.06209 8.01867H15.8518ZM2.17861 23.7447C1.28774 23.3047 1.58737 20.6213 3.54938 16.852C3.47568 17.4713 3.43402 18.0727 3.43402 18.636C3.43402 20.1707 3.68397 21.7593 4.12861 23.2927C3.23453 23.7727 2.54955 23.9287 2.17861 23.7447ZM9.92333 30.0187C8.21848 28.608 6.80606 26.3427 5.94482 23.8293C8.3683 22.248 11.0546 19.4193 13.2353 16.3613C15.3719 13.364 16.8869 10.3593 17.4918 8.018H24.2447C26.5912 10.3373 28.2705 14.7353 28.2705 18.6353C28.2705 22.936 26.2283 27.664 23.3834 30.018H22.64H20.259V29.018C20.259 28.0833 19.7318 27.258 18.925 26.7073C19.344 26.4387 19.7054 26.09 19.9978 25.66C21.2251 23.856 20.9704 21.058 20.0058 19.7247L16.54 13.8353L13.1071 19.6753C12.1033 21.068 11.8341 23.8687 13.0534 25.66C13.3771 26.1353 13.7889 26.508 14.2688 26.786C13.5269 27.336 13.0494 28.128 13.0494 29.018V30.018H10.6684L9.92333 30.0187ZM16.7299 26C14.7759 26 14.7991 23.6113 15.4016 22.7753L16.7299 20.518L18.0582 22.7753C18.6615 23.6113 18.6519 26 16.7299 26ZM14.6501 29.0187C14.6501 28.1 15.549 27.352 16.653 27.352C17.757 27.352 18.6559 28.1 18.6559 29.0187V30.0187H14.6501V29.0187ZM31.0737 38.6667H3.03344C2.37089 38.6667 1.83172 38.218 1.83172 37.6667C1.83172 37.1153 2.37089 36.6667 3.03344 36.6667H3.43402H29.872H31.0737C31.7362 36.6667 32.2754 37.1153 32.2754 37.6667C32.2754 38.218 31.7362 38.6667 31.0737 38.6667ZM23.3834 31.3555C26.4423 31.3555 27.5947 32.6363 28.2277 35.3333H5.02459C5.61938 32.5086 6.84955 31.3555 10.6684 31.3555H23.3834ZM24.2447 6.686L9.06209 6.66667C9.83902 4.78941 10.7808 4.30547 13.1496 4.30547H20.4118C22.5157 4.30547 23.4141 4.82811 24.2447 6.686Z" fill="url(#paint0_linear)"/>
<path fill-rule="evenodd" clip-rule="evenodd" d="M18.925 26.7073C19.344 26.4387 19.7054 26.09 19.9978 25.66C21.2251 23.856 20.9704 21.058 20.0058 19.7247L16.54 13.8353L13.1071 19.6753C12.1032 21.068 11.8341 23.8687 13.0534 25.66C13.3771 26.1353 13.7889 26.508 14.2687 26.786L18.925 26.7073ZM15.4016 22.7753C14.7991 23.6113 14.7759 26 16.7299 26C18.6518 26 18.6615 23.6113 18.0582 22.7753L16.7299 20.518L15.4016 22.7753Z" fill="#FFCE1F"/>
<path fill-rule="evenodd" clip-rule="evenodd" d="M26.2448 8.01931H28.2693C28.7116 8.01931 29.0705 7.72065 29.0705 7.35265C29.0705 6.98465 28.7116 6.68598 28.2693 6.68598H25.8659V6.66665C25.8659 4.82865 24.0689 3.33331 21.8601 3.33331H21.788H20.1561H13.1484H11.5172H11.4451C9.23634 3.33331 7.43936 4.82865 7.43936 6.66665V6.68531H4.23475C3.79251 6.68531 3.43359 6.98398 3.43359 7.35198C3.43359 7.71998 3.79251 8.01865 4.23475 8.01865H7.06041H9.06089H15.8507L17.4906 8.01798H24.2435L26.2448 8.01931Z" fill="#FFCE1F"/>
<defs>
<linearGradient id="paint0_linear" x1="50.4171" y1="-23.8504" x2="-67.0193" y2="78.8269" gradientUnits="userSpaceOnUse">
<stop stop-color="#FFCE1F"/>
<stop offset="0.333819" stop-color="#FAF0CE"/>
<stop offset="0.569189" stop-color="#FCA555"/>
<stop offset="1" stop-color="white" stop-opacity="0"/>
</linearGradient>
</defs>
</svg>
