<svg width="33" height="39" viewBox="0 0 33 39" fill="none" xmlns="http://www.w3.org/2000/svg">
<path d="M23.0866 29.8557C27.5757 26.9034 31.58 16.1064 24.0239 7.09278C22.6306 7.09275 13.2631 7.0928 8.34861 7.12867C1.26354 15.27 3.94298 25.0385 9.19175 29.8301C10.7026 29.8301 20.0367 29.8557 23.0866 29.8557Z" fill="#393939"/>
<path d="M2.08188 38.6662H30.9595C32.8306 38.5438 32.527 36.582 30.9594 36.582H2.08178C0.317761 36.7199 0.602673 38.5452 2.08188 38.6662Z" fill="#393939"/>
<path d="M9.19175 31.1194C5.64568 31.4192 4.74732 32.4926 4.14265 35.2309H28.3183C27.2996 32.2441 26.4468 31.1194 23.0866 31.1194H9.19175Z" fill="#393939"/>
<path d="M24.1076 5.89287H8.34861C9.03665 4.14331 9.76545 3.43899 12.5629 3.38274H19.9114C22.5518 3.41794 23.3206 4.10905 24.1076 5.89287Z" fill="#393939"/>
<path d="M19.9114 2.43296H12.5629C13.2701 1.06936 13.8891 0.682434 15.4081 0.312866H17.0661C18.8983 0.792169 19.4099 1.31028 19.9114 2.43296Z" fill="#393939"/>
</svg>
