<svg width="24" height="25" viewBox="0 0 24 25" fill="none" xmlns="http://www.w3.org/2000/svg">
<g clip-path="url(#clip0)">
<path d="M23.228 5.24639L16.416 0.946412C16.2984 0.868928 16.1608 0.827256 16.02 0.826412C15.8646 0.818256 15.7103 0.855803 15.576 0.934412L8.42402 5.2304C8.2992 5.304 8.15693 5.34267 8.01204 5.34239C7.86045 5.34281 7.71195 5.29978 7.58403 5.2184L1.62801 1.45843C1.38158 1.30243 1.06977 1.29291 0.814258 1.43358C0.558743 1.57425 0.400024 1.8428 0.400024 2.13446V18.6424C0.400681 18.9165 0.540884 19.1712 0.772024 19.3184L7.58403 23.6184C7.70164 23.6959 7.83921 23.7376 7.98003 23.7384C8.13542 23.7466 8.28977 23.709 8.42402 23.6304L15.576 19.3344C15.7008 19.2608 15.8431 19.2221 15.988 19.2224C16.1396 19.222 16.2881 19.265 16.416 19.3464L22.372 23.1064C22.6184 23.2624 22.9302 23.2719 23.1857 23.1312C23.4412 22.9906 23.6 22.7221 23.6 22.4304V5.92242C23.5993 5.64839 23.4591 5.39358 23.228 5.24639Z" fill="#393939"/>
<path d="M16.02 0.82629L16 1.08227V19.0822L15.988 19.2223C15.8431 19.222 15.7008 19.2607 15.576 19.3342L8.42398 23.6302C8.28973 23.7088 8.13537 23.7464 7.97998 23.7382L8 23.4822V5.48228L8.012 5.34227C8.15689 5.3425 8.2992 5.30383 8.42398 5.23028L15.576 0.93429C15.7102 0.855681 15.8646 0.818134 16.02 0.82629Z" fill="#393939"/>
<path d="M12.7543 16.6391C12.5873 16.6228 12.4179 16.5972 12.2477 16.567L11.4716 16.3842C11.3563 16.3503 11.2408 16.3147 11.1248 16.2747L11.1166 16.2717C10.9152 16.1971 10.8097 15.9749 10.8802 15.7711C10.9519 15.5648 11.1772 15.4554 11.3837 15.5268C11.5067 15.5694 11.6277 15.5969 11.7503 15.6318L12.5308 15.8028C12.6303 15.8177 12.7319 15.8418 12.8297 15.851C12.8647 15.8547 12.8984 15.8626 12.9296 15.8741C13.094 15.935 13.2032 16.1003 13.1858 16.2829C13.1651 16.5005 12.9719 16.6598 12.7543 16.6391Z" fill="#FFCE1F"/>
<path d="M15.4746 15.7139C15.7481 15.6269 15.999 15.5257 16.2366 15.4093C16.4017 15.3316 16.7332 15.0619 16.9011 15.0814C17.0689 15.1009 17.1616 15.1279 17.2373 15.2443C17.3244 15.3786 17.311 15.546 17.22 15.6669C17.0699 15.8188 16.9164 15.9041 16.5893 16.056C16.3117 16.1934 16.0173 16.3184 15.6988 16.4194C15.504 16.4812 15.2956 16.3734 15.2337 16.1786C15.1719 15.9838 15.2788 15.7755 15.4746 15.7139Z" fill="#FFCE1F"/>
<path d="M20.877 11.8801C20.9202 11.8969 20.9644 11.9045 21.0078 11.9045C21.1516 11.9045 21.287 11.8179 21.3427 11.676C21.5116 11.2451 21.6471 10.7586 21.7463 10.23C21.7829 10.0352 21.6543 9.84765 21.4592 9.81064C21.263 9.7783 21.0765 9.90299 21.0398 10.0981C20.9493 10.5825 20.826 11.0252 20.6737 11.4144C20.6014 11.5987 20.6923 11.8075 20.877 11.8801Z" fill="#FFCE1F"/>
<path d="M18.7253 14.8592C18.7803 14.8592 18.8363 14.8467 18.8884 14.8201C19.3527 14.5825 19.762 14.2455 20.1044 13.819C20.2288 13.6641 20.204 13.4377 20.0491 13.3137C19.8946 13.1905 19.6682 13.2145 19.5439 13.3691C19.265 13.7165 18.9344 13.9893 18.5611 14.1801C18.3843 14.2706 18.3142 14.487 18.4048 14.6638C18.4687 14.7877 18.5949 14.8592 18.7253 14.8592Z" fill="#FFCE1F"/>
<path d="M21.5428 7.91997C21.5507 7.92033 21.5583 7.92069 21.5662 7.92069C21.7541 7.92069 21.9122 7.7748 21.9245 7.58399C21.9467 7.23867 21.9579 6.87322 21.9579 6.4988C21.9579 6.37411 21.9568 6.24762 21.9543 6.11862C21.9507 5.9199 21.7782 5.76898 21.5885 5.76575C21.3901 5.76934 21.232 5.9332 21.2356 6.13155C21.2378 6.25624 21.2392 6.37878 21.2392 6.4988C21.2392 6.85813 21.2284 7.20777 21.2072 7.53836C21.1946 7.73635 21.3448 7.90704 21.5428 7.91997Z" fill="#FFCE1F"/>
<path d="M8.85823 14.2189C8.61292 14.1237 7.78135 13.971 7.23213 13.9767C7.01786 13.9655 6.83545 14.132 6.82504 14.3466C6.81501 14.5611 6.98072 14.7436 7.19526 14.7536C7.589 14.7195 8.27692 14.8535 8.6347 14.9644C8.68557 14.9798 8.73721 14.9838 8.78672 14.9786C8.93795 14.9628 9.07254 14.8588 9.1189 14.7038C9.18058 14.4972 9.06406 14.2802 8.85823 14.2189Z" fill="#FFCE1F"/>
<path d="M4.6209 14.3369C4.15151 14.6313 3.7284 15 3.36284 15.4336C3.2244 15.5977 3.2454 15.8431 3.40951 15.9815C3.48262 16.043 3.57168 16.0729 3.65995 16.0729C3.77079 16.0729 3.88045 16.0259 3.95745 15.9349C4.2709 15.5631 4.63295 15.2469 5.0339 14.9961C5.2159 14.8818 5.27073 14.6418 5.15679 14.4598C5.04284 14.2778 4.80251 14.2226 4.6209 14.3369Z" fill="#FFCE1F"/>
<path d="M2.32125 17.2831C2.15339 17.2044 1.95477 17.2787 1.87752 17.4506C1.53444 18.213 1.44951 18.8285 1.44583 18.8545C1.42075 19.0419 1.54849 19.2141 1.7314 19.2398C1.74678 19.2422 1.76249 19.2432 1.77754 19.2432C1.94172 19.2432 2.08484 19.1193 2.10858 18.9484C2.10925 18.9429 2.18583 18.4014 2.48477 17.738C2.56201 17.5657 2.48878 17.3626 2.32125 17.2831Z" fill="#FFCE1F"/>
<path d="M23.4408 4.90844L16.6301 0.607291C16.2475 0.363823 15.76 0.358151 15.3719 0.592666L8.21659 4.88599C8.08722 4.96413 7.9247 4.96216 7.79725 4.88092L1.84062 1.11902C1.47191 0.8824 1.00278 0.868525 0.620705 1.08288C0.23544 1.29138 -0.00329377 1.69554 3.43499e-05 2.13363V18.6412C-0.00104377 19.0533 0.210268 19.4368 0.559252 19.656L7.36994 23.9572C7.75258 24.2006 8.23994 24.2062 8.62816 23.9719L15.7834 19.6785C15.9128 19.6004 16.0753 19.6024 16.2028 19.6836L22.1592 23.4455H22.1594C22.5291 23.6788 22.9964 23.6927 23.3793 23.4816C23.7621 23.2706 23.9999 22.868 24 22.4308V5.92333C24.0011 5.5112 23.7898 5.12767 23.4408 4.90844ZM0.986564 18.9797C0.870173 18.9066 0.799673 18.7787 0.800048 18.6412V2.13363C0.798361 1.98748 0.878095 1.85252 1.00691 1.78343C1.06705 1.75038 1.13441 1.73271 1.20298 1.73205C1.2778 1.73248 1.35092 1.75455 1.41355 1.79552L7.36999 5.55723C7.44278 5.60003 7.51989 5.635 7.60005 5.66158V23.1562L0.986564 18.9797ZM8.40002 23.1759V5.66889C8.47919 5.64452 8.55564 5.61203 8.62816 5.57191L15.6 1.3886V18.8955C15.5208 18.9199 15.4444 18.9524 15.3719 18.9926L8.40002 23.1759ZM23.2 22.4309C23.2 22.5766 23.1207 22.7108 22.9931 22.7811C22.8654 22.8514 22.7097 22.8468 22.5865 22.7689L16.63 19.0072C16.5572 18.9644 16.4801 18.9294 16.4 18.9028V1.40824L23.0134 5.58484C23.1298 5.65797 23.2003 5.78589 23.1999 5.92333V22.4309H23.2Z" fill="url(#paint0_linear)"/>
<path d="M11.0409 5.2639C10.2007 5.6119 9.52385 6.70441 9.53201 7.69928C9.53916 8.57073 10.0696 9.08206 10.7654 8.96219L10.7717 9.72034C10.7733 9.91989 10.9111 10.0246 11.0794 9.95497C11.2476 9.88529 11.3828 9.66744 11.3811 9.46789L11.3749 8.70974C12.068 8.25428 12.5865 7.30849 12.5793 6.43703C12.5712 5.44217 11.881 4.9159 11.0409 5.2639ZM11.0646 8.15071C10.5605 8.35948 10.1464 8.04368 10.1415 7.44683C10.1366 6.84998 10.5428 6.19438 11.0468 5.9856C11.5508 5.77683 11.965 6.09264 11.9699 6.68948C11.9748 7.28633 11.5686 7.94193 11.0646 8.15071Z" fill="url(#paint1_linear)"/>
<path d="M10.283 12.9695C10.343 13.0152 10.4213 13.0183 10.4993 12.986C10.5773 12.9537 10.6551 12.886 10.7139 12.791L11.1041 12.1612L11.5019 12.4646C11.5619 12.5103 11.6402 12.5134 11.7183 12.4811C11.7963 12.4488 11.874 12.3811 11.9328 12.2861C12.0508 12.0957 12.049 11.8676 11.9286 11.7759L11.5308 11.4725L11.921 10.8427C12.039 10.6522 12.0371 10.4242 11.9168 10.3324C11.7965 10.2407 11.6039 10.3205 11.4859 10.5109L11.0957 11.1407L10.6979 10.8373C10.5776 10.7456 10.385 10.8254 10.267 11.0158C10.149 11.2063 10.1509 11.4343 10.2712 11.5261L10.669 11.8294L10.2788 12.4592C10.1608 12.6493 10.1627 12.8777 10.283 12.9695Z" fill="url(#paint2_linear)"/>
</g>
<defs>
<linearGradient id="paint0_linear" x1="35.7585" y1="-13.7245" x2="-34.4419" y2="59.8546" gradientUnits="userSpaceOnUse">
<stop stop-color="#FFCE1F"/>
<stop offset="0.333819" stop-color="#FAF0CE"/>
<stop offset="0.569189" stop-color="#FCA555"/>
<stop offset="1" stop-color="white" stop-opacity="0"/>
</linearGradient>
<linearGradient id="paint1_linear" x1="14.0346" y1="1.21727" x2="0.28075" y2="14.208" gradientUnits="userSpaceOnUse">
<stop stop-color="#FFCE1F"/>
<stop offset="0.333819" stop-color="#FAF0CE"/>
<stop offset="0.569189" stop-color="#FCA555"/>
<stop offset="1" stop-color="white" stop-opacity="0"/>
</linearGradient>
<linearGradient id="paint2_linear" x1="12.8906" y1="8.52751" x2="6.8384" y2="16.9107" gradientUnits="userSpaceOnUse">
<stop stop-color="#FFCE1F"/>
<stop offset="0.333819" stop-color="#FAF0CE"/>
<stop offset="0.569189" stop-color="#FCA555"/>
<stop offset="1" stop-color="white" stop-opacity="0"/>
</linearGradient>
<clipPath id="clip0">
<rect width="24" height="24" fill="white" transform="translate(0 0.282227)"/>
</clipPath>
</defs>
</svg>
