<svg width="32" height="32" viewBox="0 0 32 32" fill="none" xmlns="http://www.w3.org/2000/svg">
<path d="M31.7132 0.677393C31.5354 0.569541 31.3138 0.564801 31.1307 0.661393L21.3333 5.84836L11.5366 0.661393C11.5289 0.657245 11.52 0.65606 11.5123 0.652504C11.4839 0.638875 11.4548 0.628801 11.4252 0.619912C11.4086 0.615171 11.3926 0.609838 11.376 0.606282C11.3434 0.599764 11.3102 0.597393 11.2764 0.596208C11.2616 0.595615 11.2468 0.593838 11.2314 0.59443C11.1994 0.596208 11.168 0.602134 11.1366 0.609245C11.1188 0.612801 11.101 0.615171 11.0839 0.620504C11.0797 0.62169 11.0756 0.62169 11.072 0.622875L0.405333 4.17843C0.162963 4.25902 0 4.48539 0 4.7408V30.2223C0 30.4125 0.0912593 30.5915 0.246519 30.7035C0.348444 30.7764 0.469926 30.8149 0.592593 30.8149C0.655407 30.8149 0.718815 30.8048 0.779852 30.7841L11.2367 27.2984L21.1076 31.363C21.1159 31.3666 21.1253 31.3654 21.1336 31.3684C21.1988 31.3915 21.2652 31.4075 21.3333 31.4075C21.3867 31.4075 21.4394 31.3986 21.491 31.3844C21.5076 31.3796 21.523 31.3719 21.5396 31.366C21.5633 31.3571 21.5881 31.3506 21.6107 31.3387L31.6847 26.0054C31.8785 25.9029 32 25.7008 32 25.4815V1.18525C32 0.977245 31.891 0.784653 31.7132 0.677393ZM1.18519 5.16806L10.6667 2.00776V18.003C10.4119 18.0492 10.1606 18.1014 9.91763 18.1654C9.60118 18.2495 9.41274 18.5737 9.49689 18.8901C9.56741 19.1556 9.80682 19.331 10.0693 19.331C10.1191 19.331 10.1707 19.3245 10.2216 19.3115C10.3639 19.2735 10.5191 19.2546 10.6667 19.2238V26.2401L1.18519 29.3998V5.16806ZM11.8519 19.0578C12.0421 19.043 12.2264 19.0187 12.4213 19.0146C12.7484 19.0075 13.008 18.7367 13.0015 18.4095C12.9944 18.0866 12.7307 17.8294 12.4089 17.8294C12.4047 17.8294 12.4 17.8294 12.3959 17.8294C12.2121 17.8335 12.0314 17.8436 11.8519 17.8561V2.16954L20.7407 6.87532V19.4347C20.3176 19.4164 19.8874 19.3666 19.4364 19.2795C19.1141 19.2161 18.8041 19.427 18.7419 19.7482C18.6797 20.0694 18.8901 20.3805 19.2113 20.4427C19.7363 20.5447 20.2459 20.5944 20.7413 20.614V29.9301L11.8519 26.2697V19.0578ZM30.8148 25.1242L21.9259 29.83V20.55C22.1464 20.4498 22.2933 20.2247 22.2738 19.9692C22.2566 19.7476 22.1144 19.5698 21.9259 19.4827V6.87532L30.8148 2.16954V25.1242Z" fill="#EFEDE5"/>
<path d="M6.51863 5.3335C4.88485 5.3335 3.55566 6.66268 3.55566 8.29646C3.55566 9.72757 4.57552 10.924 5.92603 11.1996V12.4446C5.92603 12.7723 6.19152 13.0372 6.51863 13.0372C6.84574 13.0372 7.11122 12.7723 7.11122 12.4446V11.1996C8.46174 10.924 9.48159 9.72757 9.48159 8.29646C9.48159 6.66268 8.15241 5.3335 6.51863 5.3335ZM6.51863 10.0742C5.53848 10.0742 4.74085 9.27661 4.74085 8.29646C4.74085 7.31631 5.53848 6.51868 6.51863 6.51868C7.49878 6.51868 8.29641 7.31631 8.29641 8.29646C8.29641 9.27661 7.49878 10.0742 6.51863 10.0742Z" fill="#EFEDE5"/>
<path d="M26.7083 16.3989C26.7794 16.4268 26.8523 16.4392 26.924 16.4392C27.1611 16.4392 27.3845 16.2964 27.4763 16.0623C27.7548 15.3518 27.9783 14.5494 28.1418 13.6777C28.2023 13.3566 27.9901 13.0472 27.6683 12.9862C27.3448 12.9329 27.0372 13.1385 26.9768 13.4603C26.8274 14.2591 26.6242 14.9891 26.3729 15.6309C26.2538 15.9349 26.4037 16.2792 26.7083 16.3989Z" fill="#FFCE1F"/>
<path d="M7.58827 19.1657C6.87301 19.6143 6.22827 20.1761 5.67123 20.8368C5.46027 21.0869 5.49227 21.4608 5.74234 21.6718C5.85375 21.7654 5.98945 21.8111 6.12397 21.8111C6.29286 21.8111 6.45997 21.7394 6.5773 21.6007C7.05493 21.0342 7.60664 20.5524 8.2176 20.1702C8.49493 19.996 8.57849 19.6303 8.40486 19.353C8.23123 19.0757 7.86501 18.9915 7.58827 19.1657Z" fill="#EFEDE5"/>
<path d="M5.11215 22.682C4.81467 22.5457 4.46267 22.6743 4.32578 22.9718C3.71778 24.2909 3.56726 25.3558 3.56075 25.4009C3.5163 25.725 3.74267 26.0231 4.06682 26.0675C4.09408 26.0717 4.12193 26.0735 4.1486 26.0735C4.43956 26.0735 4.69319 25.8589 4.73526 25.5632C4.73645 25.5537 4.87215 24.6169 5.40193 23.469C5.53882 23.1709 5.40904 22.8195 5.11215 22.682Z" fill="#FFCE1F"/>
<path d="M23.9542 19.9877C24.0449 19.9877 24.1373 19.967 24.2233 19.9231C24.9889 19.5314 25.6639 18.9756 26.2286 18.2722C26.4336 18.0168 26.3927 17.6434 26.1373 17.439C25.8825 17.2357 25.5092 17.2754 25.3042 17.5302C24.8443 18.1033 24.2991 18.553 23.6834 18.8677C23.3919 19.017 23.2763 19.3738 23.4256 19.6653C23.5311 19.8698 23.7391 19.9877 23.9542 19.9877Z" fill="#FFCE1F"/>
<path d="M17.2857 18.6265C17.0244 18.5168 16.8715 18.441 16.8614 18.4357C16.8229 18.4161 16.782 18.4001 16.7399 18.3894C16.0981 18.2247 15.4658 18.0943 14.8596 18.0019C14.5367 17.9509 14.2338 18.1743 14.1841 18.4979C14.1349 18.8214 14.3571 19.1242 14.6807 19.1734C15.2294 19.2576 15.8024 19.3749 16.3855 19.5231C16.465 19.561 16.6167 19.6327 16.8288 19.721C16.9035 19.7524 16.9811 19.7666 17.057 19.7666C17.2887 19.7666 17.5091 19.6303 17.6039 19.4028C17.7301 19.0994 17.5879 18.7521 17.2857 18.6265Z" fill="#EFEDE5"/>
<path d="M27.8062 11.8111C27.8192 11.8117 27.8316 11.8123 27.8447 11.8123C28.1546 11.8123 28.4153 11.5717 28.4355 11.2571C28.4722 10.6876 28.4906 10.0849 28.4906 9.46743C28.4906 9.2618 28.4888 9.05321 28.4847 8.84047C28.4788 8.51277 28.1943 8.26388 27.8814 8.25854C27.5543 8.26447 27.2936 8.53469 27.2995 8.8618C27.303 9.06743 27.3054 9.26951 27.3054 9.46743C27.3054 10.06 27.2876 10.6366 27.2527 11.1818C27.2319 11.5083 27.4796 11.7898 27.8062 11.8111Z" fill="#EFEDE5"/>
<path d="M4.9145 17.0117C5.03006 17.1273 5.18176 17.1853 5.33346 17.1853C5.48517 17.1853 5.63687 17.1273 5.75243 17.0117L6.51865 16.2455L7.28487 17.0117C7.40043 17.1273 7.55213 17.1853 7.70383 17.1853C7.85554 17.1853 8.00724 17.1273 8.1228 17.0117C8.3545 16.78 8.3545 16.4055 8.1228 16.1738L7.35657 15.4076L8.1228 14.6413C8.3545 14.4096 8.3545 14.0351 8.1228 13.8034C7.89109 13.5717 7.51657 13.5717 7.28487 13.8034L6.51865 14.5696L5.75243 13.8034C5.52072 13.5717 5.1462 13.5717 4.9145 13.8034C4.6828 14.0351 4.6828 14.4096 4.9145 14.6413L5.68072 15.4076L4.9145 16.1738C4.6828 16.4049 4.6828 16.78 4.9145 17.0117Z" fill="#FFCE1F"/>
</svg>
