<svg width="42" height="41" viewBox="0 0 42 41" fill="none" xmlns="http://www.w3.org/2000/svg">
<g clip-path="url(#clip0)">
<path d="M1.43823 1.02411H22.6217L23.4579 19.1416H40.1817V40.3162H22.6217H1.43823V1.02411Z" fill="#393939"/>
<path d="M14.1667 36.5971C14.1667 37.7588 13.2783 38.6471 12.1167 38.6471C10.955 38.6471 10.0667 37.7588 10.0667 36.5971C10.0667 35.4354 10.955 34.5471 12.1167 34.5471C13.2783 34.5471 14.1667 35.4354 14.1667 36.5971Z" fill="#FFCE1F"/>
<path d="M36.7166 40.6965C36.2667 40.6965 35.9668 40.3966 35.9668 39.9466V20.45C35.9668 20.0001 36.2667 19.7002 36.7166 19.7002C37.1666 19.7002 37.4665 20.0001 37.4665 20.45V39.9466C37.4665 40.3966 37.1666 40.6965 36.7166 40.6965Z" fill="url(#paint0_linear)"/>
<path d="M20.7267 41.3804H3.50669C1.86669 41.3804 0.5 40.0137 0.5 38.3737V3.38706C0.5 1.74706 1.86669 0.380371 3.50669 0.380371H20.7267C22.3667 0.380371 23.7334 1.74706 23.7334 3.38706V38.3738C23.7333 40.0137 22.3667 41.3804 20.7267 41.3804ZM3.50669 1.74706C2.61839 1.74706 1.86669 2.49876 1.86669 3.38706V38.3738C1.86669 39.2621 2.61839 40.0138 3.50669 40.0138H20.7267C21.615 40.0138 22.3667 39.2621 22.3667 38.3738V3.38706C22.3667 2.49876 21.615 1.74706 20.7267 1.74706H3.50669Z" fill="url(#paint1_linear)"/>
<path d="M12.1166 39.3303C10.6133 39.3303 9.3833 38.1003 9.3833 36.597C9.3833 35.0937 10.6133 33.8637 12.1166 33.8637C13.6199 33.8637 14.8499 35.0937 14.8499 36.597C14.8499 38.1003 13.6199 39.3303 12.1166 39.3303ZM12.1166 35.2303C11.3649 35.2303 10.7499 35.8453 10.7499 36.597C10.7499 37.3487 11.3649 37.9637 12.1166 37.9637C12.8683 37.9637 13.4833 37.3487 13.4833 36.597C13.4833 35.8453 12.8682 35.2303 12.1166 35.2303Z" fill="#FFCE1F"/>
<path d="M23.05 33.1805H1.18331C0.773307 33.1805 0.5 32.9071 0.5 32.4971C0.5 32.0871 0.773307 31.8138 1.18331 31.8138H23.05C23.46 31.8138 23.7333 32.0871 23.7333 32.4971C23.7333 32.9071 23.46 33.1805 23.05 33.1805Z" fill="url(#paint2_linear)"/>
<path d="M23.05 5.8471H1.18331C0.773307 5.8471 0.5 5.57372 0.5 5.16371C0.5 4.75371 0.773307 4.48041 1.18331 4.48041H23.05C23.46 4.48041 23.7333 4.75371 23.7333 5.16371C23.7333 5.57372 23.46 5.8471 23.05 5.8471Z" fill="url(#paint3_linear)"/>
<path d="M12.1166 3.79709H9.38326C8.97326 3.79709 8.69995 3.52379 8.69995 3.11379C8.69995 2.70379 8.97326 2.43048 9.38326 2.43048H12.1166C12.5266 2.43048 12.7999 2.70379 12.7999 3.11379C12.7999 3.52379 12.5266 3.79709 12.1166 3.79709Z" fill="#FFCE1F"/>
<path d="M14.85 3.79709H14.1667C13.7567 3.79709 13.4834 3.52379 13.4834 3.11379C13.4834 2.70379 13.7567 2.43048 14.1667 2.43048H14.85C15.26 2.43048 15.5333 2.70379 15.5333 3.11379C15.5333 3.52379 15.26 3.79709 14.85 3.79709Z" fill="#FFCE1F"/>
<path d="M38.4934 41.3804H20.7268C20.3168 41.3804 20.0435 41.1071 20.0435 40.6971C20.0435 40.2871 20.3168 40.0138 20.7268 40.0138C21.6151 40.0138 22.3668 39.2621 22.3668 38.3738V19.5138C22.3668 19.1038 22.6401 18.8304 23.0501 18.8304H38.4934C40.1334 18.8304 41.5001 20.1971 41.5001 21.8371V38.3738C41.5001 40.0137 40.1334 41.3804 38.4934 41.3804ZM23.2551 40.0137H38.4934C39.3817 40.0137 40.1334 39.262 40.1334 38.3737V21.8371C40.1334 20.9488 39.3817 20.1971 38.4934 20.1971H23.7334V38.3738C23.7334 38.9887 23.5284 39.5354 23.2551 40.0137Z" fill="url(#paint4_linear)"/>
<path fill-rule="evenodd" clip-rule="evenodd" d="M35.5543 14.5246L31.4551 10.4254C31.1818 10.152 31.1818 9.74205 31.4551 9.46866C31.7284 9.19535 32.1384 9.19535 32.4118 9.46866L35.3452 12.4021C35.2 8.36402 31.9086 5.16367 27.8335 5.16367C27.4235 5.16367 27.1501 4.89036 27.1501 4.48036C27.1501 4.07036 27.4235 3.79706 27.8335 3.79706C32.6633 3.79706 36.5712 7.61648 36.7128 12.4109L39.6551 9.46866C39.9284 9.19535 40.3384 9.19535 40.6118 9.46866C40.8851 9.74197 40.8851 10.152 40.6118 10.4254L36.5124 14.5247C36.5122 14.5249 36.512 14.5251 36.5118 14.5254C36.3836 14.6535 36.2555 14.7216 36.071 14.7296C36.0587 14.7301 36.0462 14.7304 36.0334 14.7304C35.854 14.7304 35.7269 14.6781 35.6064 14.5734C35.5892 14.5585 35.5721 14.5424 35.5551 14.5254C35.5548 14.5251 35.5546 14.5249 35.5543 14.5246Z" fill="#FFCE1F"/>
</g>
<defs>
<linearGradient id="paint0_linear" x1="38.2012" y1="7.18096" x2="29.0458" y2="7.85846" gradientUnits="userSpaceOnUse">
<stop stop-color="#FFCE1F"/>
<stop offset="0.333819" stop-color="#FAF0CE"/>
<stop offset="0.569189" stop-color="#FCA555"/>
<stop offset="1" stop-color="white" stop-opacity="0"/>
</linearGradient>
<linearGradient id="paint1_linear" x1="35.1164" y1="-24.0662" x2="-70.9429" y2="38.1999" gradientUnits="userSpaceOnUse">
<stop stop-color="#FFCE1F"/>
<stop offset="0.333819" stop-color="#FAF0CE"/>
<stop offset="0.569189" stop-color="#FCA555"/>
<stop offset="1" stop-color="white" stop-opacity="0"/>
</linearGradient>
<linearGradient id="paint2_linear" x1="35.1162" y1="30.999" x2="34.658" y2="39.07" gradientUnits="userSpaceOnUse">
<stop stop-color="#FFCE1F"/>
<stop offset="0.333819" stop-color="#FAF0CE"/>
<stop offset="0.569189" stop-color="#FCA555"/>
<stop offset="1" stop-color="white" stop-opacity="0"/>
</linearGradient>
<linearGradient id="paint3_linear" x1="35.1162" y1="3.6655" x2="34.6579" y2="11.737" gradientUnits="userSpaceOnUse">
<stop stop-color="#FFCE1F"/>
<stop offset="0.333819" stop-color="#FAF0CE"/>
<stop offset="0.569189" stop-color="#FCA555"/>
<stop offset="1" stop-color="white" stop-opacity="0"/>
</linearGradient>
<linearGradient id="paint4_linear" x1="52.0125" y1="5.38485" x2="-14.7832" y2="71.2324" gradientUnits="userSpaceOnUse">
<stop stop-color="#FFCE1F"/>
<stop offset="0.333819" stop-color="#FAF0CE"/>
<stop offset="0.569189" stop-color="#FCA555"/>
<stop offset="1" stop-color="white" stop-opacity="0"/>
</linearGradient>
<clipPath id="clip0">
<rect width="41" height="41" fill="white" transform="translate(0.5)"/>
</clipPath>
</defs>
</svg>
