<svg width="40" height="40" viewBox="0 0 40 40" fill="none" xmlns="http://www.w3.org/2000/svg">
<path d="M0.873076 1.32535L16.8477 1.32538L18.7687 18.9325L35.451 20.5896L38.6739 24.4218V39.617H16.8477L13.7134 32.6039L11.2043 39.617H0.873047L0.873076 1.32535Z" fill="#393939"/>
<path d="M32.1739 19.1304H21.7391C20.301 19.1304 19.1304 17.9598 19.1304 16.5217V4.34783C19.1304 1.95058 17.1799 0 14.7826 0H0.869565C0.388502 0 0 0.389776 0 0.869565V39.1304C0 39.6102 0.388502 40 0.869565 40H11.3043C11.7035 40 12.0504 39.7278 12.148 39.3419L13.7224 33.0435H14.1037L15.6789 39.3419C15.7757 39.7287 16.1226 40 16.5217 40H39.1304C39.6115 40 40 39.6102 40 39.1304V26.9565C40 22.6418 36.4895 19.1304 32.1739 19.1304ZM38.2609 26.9565V31.3043H26.087V26.9565C26.087 23.6001 28.8184 21.0359 32.1739 21.0359C35.5295 21.0359 38.2609 23.6001 38.2609 26.9565ZM10.6254 38.2609H1.73913V33.0435H11.9298L10.6254 38.2609ZM13.0435 31.3043H1.73913V1.73913H7.82779C7.28091 2.46603 6.95652 3.36957 6.95652 4.34783V11.3043C6.95652 11.7841 7.34502 12.1739 7.82609 12.1739C8.30715 12.1739 8.69565 11.7841 8.69565 11.3043V4.34783C8.69565 2.90973 9.86625 1.73913 11.3043 1.73913H14.7826C16.2207 1.73913 17.3913 2.90973 17.3913 4.34783V5.21739H13.0435C12.5624 5.21739 12.1739 5.60717 12.1739 6.08696C12.1739 6.56675 12.5624 6.95652 13.0435 6.95652H17.3913V10.4348H13.0435C12.5624 10.4348 12.1739 10.8246 12.1739 11.3043C12.1739 11.7841 12.5624 12.1739 13.0435 12.1739H17.3913V15.6522H13.0435C12.5624 15.6522 12.1739 16.042 12.1739 16.5217C12.1739 17.0015 12.5624 17.3913 13.0435 17.3913H17.4792C17.8834 19.3729 19.6391 20.8696 21.7391 20.8696H27.2661C25.4887 22.3051 24.3478 24.499 24.3478 26.9565V31.3043H13.0435ZM17.2007 38.2609L15.8955 33.0435H38.2609V38.2609H17.2007Z" fill="url(#paint0_linear)"/>
<path d="M38.2607 26.9565V31.3043H26.0868V26.9565C26.0868 23.6001 28.8182 21.0359 32.1737 21.0359C35.5293 21.0359 38.2607 23.6001 38.2607 26.9565Z" fill="#FFCE1F"/>
<path fill-rule="evenodd" clip-rule="evenodd" d="M39.9998 26.9565C39.9998 22.6418 36.4893 19.1304 32.1737 19.1304C29.9051 19.3323 28.8109 19.6861 27.2659 20.8696C25.4885 22.3051 24.3477 24.499 24.3477 26.9565V31.3043V33.0609H39.9998V26.9565ZM38.2607 31.3043V26.9565C38.2607 23.6001 35.5293 21.0359 32.1737 21.0359C28.8182 21.0359 26.0868 23.6001 26.0868 26.9565V31.3043H38.2607Z" fill="#FFCE1F"/>
<defs>
<linearGradient id="paint0_linear" x1="59.5976" y1="-23.8504" x2="-58.8253" y2="98.8401" gradientUnits="userSpaceOnUse">
<stop stop-color="#FFCE1F"/>
<stop offset="0.333819" stop-color="#FAF0CE"/>
<stop offset="0.569189" stop-color="#FCA555"/>
<stop offset="1" stop-color="white" stop-opacity="0"/>
</linearGradient>
</defs>
</svg>
