<svg width="25" height="25" viewBox="0 0 25 25" fill="none" xmlns="http://www.w3.org/2000/svg">
<g clip-path="url(#clip0)">
<path d="M8.30018 0.869812H15.9653V8.78424L24.0239 8.89143V16.6408H15.9653V24.749H8.30018V16.6408H0.151794L0.223177 8.78424H8.30018V0.869812Z" fill="#393939"/>
<path d="M8.29974 0.771973C7.99824 0.771973 7.75427 1.01594 7.75427 1.31744V8.40838H0.663392C0.361892 8.40832 0.11792 8.6523 0.11792 8.9538C0.11792 9.2553 0.361892 9.49927 0.663392 9.49927H8.29974C8.60124 9.49927 8.84522 9.2553 8.84522 8.9538V1.31744C8.84522 1.01594 8.60124 0.771973 8.29974 0.771973ZM15.9361 9.49927H23.5724C23.8739 9.49927 24.1179 9.2553 24.1179 8.9538C24.1179 8.6523 23.8739 8.40832 23.5724 8.40832H16.4816V1.31744C16.4816 1.01594 16.2376 0.771973 15.9361 0.771973C15.6346 0.771973 15.3906 1.01594 15.3906 1.31744V8.9538C15.3907 9.2553 15.6346 9.49927 15.9361 9.49927ZM23.5725 16.0447H15.9361C15.6346 16.0447 15.3906 16.2887 15.3906 16.5902V24.2266C15.3906 24.5281 15.6346 24.772 15.9361 24.772C16.2376 24.772 16.4816 24.5281 16.4816 24.2266V17.1356H23.5725C23.874 17.1356 24.118 16.8916 24.118 16.5901C24.118 16.2886 23.874 16.0447 23.5725 16.0447ZM8.29974 16.0447H0.663392C0.361892 16.0447 0.11792 16.2887 0.11792 16.5901C0.11792 16.8916 0.361892 17.1356 0.663392 17.1356H7.75432V24.2266C7.75432 24.5281 7.9983 24.772 8.2998 24.772C8.6013 24.772 8.84527 24.5281 8.84527 24.2266V16.5901C8.84522 16.2887 8.60124 16.0447 8.29974 16.0447Z" fill="url(#paint0_linear)"/>
<path d="M8.29974 16.0447H0.663392C0.361892 16.0447 0.11792 16.2887 0.11792 16.5902C0.11792 16.8916 0.361892 17.1356 0.663392 17.1356H7.75432V24.2266C7.75432 24.5281 7.9983 24.772 8.2998 24.772C8.6013 24.772 8.84527 24.5281 8.84527 24.2266V16.5902C8.84522 16.2887 8.60124 16.0447 8.29974 16.0447Z" fill="#FFCE1F"/>
<path d="M15.9361 9.49927H23.5724C23.8739 9.49927 24.1179 9.2553 24.1179 8.9538C24.1179 8.6523 23.8739 8.40832 23.5724 8.40832H16.4816V1.31744C16.4816 1.01594 16.2376 0.771973 15.9361 0.771973C15.6346 0.771973 15.3906 1.01594 15.3906 1.31744V8.9538C15.3907 9.2553 15.6346 9.49927 15.9361 9.49927Z" fill="#FFCE1F"/>
</g>
<defs>
<linearGradient id="paint0_linear" x1="35.8766" y1="-13.5383" x2="-35.1774" y2="60.0761" gradientUnits="userSpaceOnUse">
<stop stop-color="#FFCE1F"/>
<stop offset="0.333819" stop-color="#FAF0CE"/>
<stop offset="0.569189" stop-color="#F5BC87" stop-opacity="0.651083"/>
<stop offset="1" stop-color="white" stop-opacity="0"/>
</linearGradient>
<clipPath id="clip0">
<rect width="24" height="24" fill="white" transform="translate(0.11792 0.771973)"/>
</clipPath>
</defs>
</svg>
