<svg width="24" height="24" viewBox="0 0 24 24" fill="none" xmlns="http://www.w3.org/2000/svg">
<g clip-path="url(#clip0)">
<path d="M0.518066 7.51698H5.44314L10.7622 3.03519L12.486 2.24718V21.8489L10.7622 20.9131L5.44314 16.1851L0.518093 15.9388L0.518066 7.51698Z" fill="#393939"/>
<path d="M20.6284 11.5555L23.8698 8.3142C24.0435 8.14042 24.0435 7.85953 23.8698 7.68575C23.696 7.51198 23.4151 7.51198 23.2413 7.68575L20 10.9271L16.7587 7.68575C16.5849 7.51198 16.304 7.51198 16.1302 7.68575C15.9564 7.85953 15.9564 8.14042 16.1302 8.3142L19.3715 11.5555L16.1302 14.7969C15.9564 14.9706 15.9564 15.2515 16.1302 15.4253C16.2169 15.512 16.3307 15.5555 16.4444 15.5555C16.5582 15.5555 16.672 15.512 16.7587 15.4253L20 12.184L23.2413 15.4253C23.328 15.512 23.4418 15.5555 23.5555 15.5555C23.6693 15.5555 23.7831 15.512 23.8698 15.4253C24.0435 15.2515 24.0435 14.9706 23.8698 14.7969L20.6284 11.5555Z" fill="url(#paint0_linear)"/>
<path d="M12.624 1.95555C12.1907 1.71022 11.6769 1.71822 11.2507 1.97511C11.2302 1.98711 11.2107 2.00133 11.1929 2.01644L5.17067 7.11111H0.444444C0.198667 7.11111 0 7.30978 0 7.55555V16C0 16.1182 0.0466667 16.2311 0.130222 16.3142C0.213778 16.3973 0.326222 16.4444 0.444444 16.4444L5.16 16.4422L11.1791 21.9711C11.2013 21.9916 11.2253 22.0093 11.2507 22.0244C11.4693 22.1564 11.7116 22.2227 11.9538 22.2227C12.1836 22.2222 12.4129 22.1631 12.624 22.044C13.068 21.7933 13.3333 21.3356 13.3333 20.8196V3.18044C13.3333 2.66444 13.068 2.20666 12.624 1.95555ZM12.4444 20.8196C12.4444 21.0111 12.348 21.1796 12.1871 21.2707C12.1182 21.3093 11.9436 21.384 11.7427 21.2822L5.77778 15.8027V13.7778C5.77778 13.532 5.57911 13.3333 5.33333 13.3333C5.08755 13.3333 4.88889 13.532 4.88889 13.7778V15.5538L0.888889 15.5556V8H4.88889V9.77778C4.88889 10.0236 5.08755 10.2222 5.33333 10.2222C5.57911 10.2222 5.77778 10.0236 5.77778 9.77778V7.76178L11.7356 2.72178C11.94 2.61422 12.1178 2.69066 12.1871 2.72978C12.348 2.82089 12.4444 2.98889 12.4444 3.18044V20.8196Z" fill="url(#paint1_linear)"/>
<path d="M0.444444 7.11108H5.17067L5.77778 7.76175V9.77775C5.77778 10.0235 5.57911 10.2222 5.33333 10.2222C5.08756 10.2222 4.88889 10.0235 4.88889 9.77775V7.99997H0.888889V15.5555L4.88889 15.5538V13.7778C4.88889 13.532 5.08756 13.3333 5.33333 13.3333C5.57911 13.3333 5.77778 13.532 5.77778 13.7778V15.8026L5.16 16.4422L0.444444 16.4444C0.326222 16.4444 0.213778 16.3973 0.130222 16.3142C0.0466667 16.2311 0 16.1182 0 16V7.55553C0 7.30975 0.198667 7.11108 0.444444 7.11108Z" fill="#FFCE1F"/>
<path d="M4.88892 8.00025V13.778C4.88892 14.0238 5.08758 13.3336 5.33336 13.3336C5.57914 13.3336 5.77781 14.0238 5.77781 13.778V7.76202L4.88892 8.00025Z" fill="#FFCE1F"/>
<path d="M5.77781 15.8029V13.778C5.77781 13.5322 5.57914 13.3336 5.33336 13.3336C5.08758 13.3336 4.88892 13.5322 4.88892 13.778V15.554L5.77781 15.8029Z" fill="#FFCE1F"/>
</g>
<defs>
<linearGradient id="paint0_linear" x1="27.9197" y1="2.78528" x2="4.23482" y2="27.324" gradientUnits="userSpaceOnUse">
<stop stop-color="#FFCE1F"/>
<stop offset="0.333819" stop-color="#FAF0CE"/>
<stop offset="0.569189" stop-color="#F5BC87" stop-opacity="0.651083"/>
<stop offset="1" stop-color="white" stop-opacity="0"/>
</linearGradient>
<linearGradient id="paint1_linear" x1="19.8659" y1="-10.4141" x2="-36.3279" y2="27.5521" gradientUnits="userSpaceOnUse">
<stop stop-color="#FFCE1F"/>
<stop offset="0.333819" stop-color="#FAF0CE"/>
<stop offset="0.569189" stop-color="#F5BC87" stop-opacity="0.651083"/>
<stop offset="1" stop-color="white" stop-opacity="0"/>
</linearGradient>
<clipPath id="clip0">
<rect width="24" height="24" fill="white"/>
</clipPath>
</defs>
</svg>
