<svg width="24" height="24" viewBox="0 0 24 24" fill="none" xmlns="http://www.w3.org/2000/svg">
<path d="M0.935669 7.46895H5.86074L11.1798 2.98716L12.9036 2.19915V21.8008L11.1798 20.8651L5.86074 16.137L0.935696 15.8908L0.935669 7.46895Z" fill="#393939"/>
<path d="M13.103 1.57445C12.6528 1.31981 12.1199 1.32812 11.6775 1.59475C11.6563 1.60721 11.636 1.62197 11.6176 1.63765L5.36686 6.92563H0.461308C0.206205 6.92563 0 7.13183 0 7.38693V16.1518C0 16.2745 0.0484373 16.3917 0.135163 16.4779C0.221889 16.5642 0.3386 16.6131 0.461308 16.6131L5.35578 16.6108L11.6033 22.3495C11.6263 22.3707 11.6513 22.3891 11.6775 22.4048C11.9045 22.5418 12.1559 22.6106 12.4073 22.6106C12.6458 22.6101 12.8839 22.5487 13.103 22.4251C13.5638 22.1649 13.8392 21.6898 13.8392 21.1542V2.84582C13.8392 2.31024 13.5638 1.83509 13.103 1.57445ZM12.9166 21.1542C12.9166 21.353 12.8165 21.5279 12.6495 21.6224C12.578 21.6626 12.3967 21.7401 12.1882 21.6344L5.997 15.947V13.8452C5.997 13.5901 5.7908 13.3839 5.53569 13.3839C5.28059 13.3839 5.07439 13.5901 5.07439 13.8452V15.6886L0.922616 15.6905V7.84824H5.07439V9.69347C5.07439 9.94858 5.28059 10.1548 5.53569 10.1548C5.7908 10.1548 5.997 9.94858 5.997 9.69347V7.60098L12.1808 2.36975C12.3935 2.25811 12.5776 2.33746 12.6495 2.37805C12.8165 2.47262 12.9166 2.64746 12.9166 2.84582V21.1542Z" fill="url(#paint0_linear)"/>
<path fill-rule="evenodd" clip-rule="evenodd" d="M5.36685 6.9256H0.461308C0.206205 6.9256 0 7.1318 0 7.38691V16.1518C0 16.2745 0.0484373 16.3916 0.135163 16.4779C0.221889 16.5642 0.3386 16.6131 0.461308 16.6131L5.35578 16.6108L5.997 15.9469V13.8452V9.69345V7.60095L5.36685 6.9256ZM5.07439 13.8452V15.6886L0.922616 15.6904V7.84821H5.07439V9.69345V13.8452Z" fill="#FFCE1F"/>
<path d="M5.0744 7.84827V9.69351C5.0744 9.94861 5.28061 10.1548 5.53571 10.1548C5.79081 10.1548 5.99702 9.94861 5.99702 9.69351V7.60101L5.0744 7.84827Z" fill="#FFCE1F"/>
<path d="M5.99702 15.947V13.8453C5.99702 13.5902 5.79081 13.384 5.53571 13.384C5.28061 13.384 5.0744 13.5902 5.0744 13.8453V15.6887L5.99702 15.947Z" fill="#FFCE1F"/>
<path d="M17.8974 3.2596C17.6561 3.17794 17.3941 3.30711 17.312 3.54837C17.2303 3.78918 17.3595 4.05166 17.6007 4.13377C20.8765 5.24599 23.0774 8.31461 23.0774 11.7698C23.0774 15.2218 20.8806 18.2908 17.6114 19.4063C17.3705 19.4884 17.2414 19.7504 17.324 19.9922C17.3895 20.1836 17.5685 20.3045 17.7604 20.3045C17.8097 20.3045 17.86 20.2966 17.9094 20.2795C21.5518 19.0372 23.9995 15.6176 23.9995 11.7703C24 7.9188 21.5477 4.49913 17.8974 3.2596Z" fill="url(#paint1_linear)"/>
<path d="M19.8482 11.7693C19.8482 9.0144 17.9988 6.55563 15.3509 5.78986C15.105 5.7202 14.8509 5.85998 14.7798 6.10539C14.7092 6.34989 14.8499 6.60591 15.0953 6.67649C17.3507 7.32832 18.926 9.42266 18.926 11.7693C18.926 14.116 17.3507 16.2103 15.0953 16.8622C14.8504 16.9327 14.7092 17.1888 14.7798 17.4333C14.8384 17.6353 15.0225 17.7668 15.2231 17.7668C15.2656 17.7668 15.3085 17.7608 15.3509 17.7488C17.9993 16.983 19.8482 14.5243 19.8482 11.7693Z" fill="url(#paint2_linear)"/>
<defs>
<linearGradient id="paint0_linear" x1="20.6196" y1="-11.2646" x2="-37.7063" y2="28.1422" gradientUnits="userSpaceOnUse">
<stop stop-color="#FFCE1F"/>
<stop offset="0.333819" stop-color="#FAF0CE"/>
<stop offset="0.569189" stop-color="#F5BC87" stop-opacity="0.651083"/>
<stop offset="1" stop-color="white" stop-opacity="0"/>
</linearGradient>
<linearGradient id="paint1_linear" x1="27.2881" y1="-6.94264" x2="-8.04831" y2="7.45316" gradientUnits="userSpaceOnUse">
<stop stop-color="#FFCE1F"/>
<stop offset="0.333819" stop-color="#FAF0CE"/>
<stop offset="0.569189" stop-color="#F5BC87" stop-opacity="0.651083"/>
<stop offset="1" stop-color="white" stop-opacity="0"/>
</linearGradient>
<linearGradient id="paint2_linear" x1="22.3403" y1="-1.38005" x2="-3.83127" y2="10.1184" gradientUnits="userSpaceOnUse">
<stop stop-color="#FFCE1F"/>
<stop offset="0.333819" stop-color="#FAF0CE"/>
<stop offset="0.569189" stop-color="#F5BC87" stop-opacity="0.651083"/>
<stop offset="1" stop-color="white" stop-opacity="0"/>
</linearGradient>
</defs>
</svg>
