<svg width="40" height="40" viewBox="0 0 40 40" fill="none" xmlns="http://www.w3.org/2000/svg">
<path d="M14.7381 0H25.6839L25.2359 10.7747L28.0524 13.3351L28.8845 20L29.2199 40H11.1211V20L11.6015 12.439L14.7381 10.7747V0Z" fill="#393939"/>
<path d="M26.0871 0.869565C26.0871 0.389776 25.6986 0 25.2176 0H14.7828C14.3017 0 13.9132 0.389776 13.9132 0.869565V10.5227C11.9316 10.926 10.4349 12.6834 10.4349 14.7826V38.2609C9.95388 38.2609 9.56551 38.6494 9.56551 39.1304C9.56551 39.6115 9.95402 40 10.4351 40H29.5654C30.0465 40 30.435 39.6115 30.435 39.1304C30.435 38.6494 30.0465 38.2609 29.5654 38.2609V14.7826C29.5654 12.6826 28.0687 10.926 26.0871 10.5227V0.869565ZM15.6523 1.73913H24.348V6.95652H15.6523V1.73913ZM27.8263 31.3043H12.1741V19.1304H27.8263V31.3043ZM12.1741 38.2609V33.0435H27.8263V38.2609H12.1741ZM27.8263 14.7826V17.3913H12.1741V14.7826C12.1741 13.3445 13.3447 12.1739 14.7828 12.1739C15.2638 12.1739 15.6523 11.7841 15.6523 11.3043V8.69565H24.348V11.3043C24.348 11.7841 24.7365 12.1739 25.2176 12.1739C26.6557 12.1739 27.8263 13.3445 27.8263 14.7826Z" fill="url(#paint0_linear)"/>
<path fill-rule="evenodd" clip-rule="evenodd" d="M26.087 0.869565C26.087 0.389776 25.6985 0 25.2174 0H14.7827C14.3016 0 13.9131 0.389776 13.9131 0.869565V8.69565H26.087V0.869565Z" fill="#FFCE1F"/>
<defs>
<linearGradient id="paint0_linear" x1="40.6598" y1="-23.8504" x2="-58.4785" y2="29.7378" gradientUnits="userSpaceOnUse">
<stop stop-color="#FFCE1F"/>
<stop offset="0.333819" stop-color="#FAF0CE"/>
<stop offset="0.569189" stop-color="#F5BC87" stop-opacity="0.651083"/>
<stop offset="1" stop-color="white" stop-opacity="0"/>
</linearGradient>
</defs>
</svg>
